%TF.GenerationSoftware,KiCad,Pcbnew,7.0.8*%
%TF.CreationDate,2023-10-18T13:58:29-03:00*%
%TF.ProjectId,FirstBoard,46697273-7442-46f6-9172-642e6b696361,rev?*%
%TF.SameCoordinates,Original*%
%TF.FileFunction,Plated,1,2,PTH,Mixed*%
%TF.FilePolarity,Positive*%
%FSLAX46Y46*%
G04 Gerber Fmt 4.6, Leading zero omitted, Abs format (unit mm)*
G04 Created by KiCad (PCBNEW 7.0.8) date 2023-10-18 13:58:29*
%MOMM*%
%LPD*%
G01*
G04 APERTURE LIST*
G04 aperture for slot hole*
%TA.AperFunction,ComponentDrill*%
%ADD10O,5.000000X0.500000*%
%TD*%
%TA.AperFunction,ComponentDrill*%
%ADD11C,0.700000*%
%TD*%
%TA.AperFunction,ComponentDrill*%
%ADD12C,0.800000*%
%TD*%
%TA.AperFunction,ViaDrill*%
%ADD13C,1.000000*%
%TD*%
%TA.AperFunction,ComponentDrill*%
%ADD14C,1.000000*%
%TD*%
%TA.AperFunction,ViaDrill*%
%ADD15C,1.020000*%
%TD*%
%TA.AperFunction,ComponentDrill*%
%ADD16C,1.020000*%
%TD*%
%TA.AperFunction,ComponentDrill*%
%ADD17C,1.100000*%
%TD*%
G04 APERTURE END LIST*
D10*
%TO.C,SW2*%
X66480000Y-143733000D03*
X66480000Y-148730000D03*
D11*
%TO.C,D0*%
X66480000Y-170950000D03*
X66480000Y-178570000D03*
%TO.C,D1*%
X75529442Y-171154385D03*
X75529442Y-178774385D03*
D12*
%TO.C,R1*%
X58860000Y-169080000D03*
X58860000Y-179240000D03*
%TO.C,R3*%
X81720000Y-169260000D03*
X81720000Y-179420000D03*
%TO.C,R2*%
X91880000Y-169280000D03*
X91880000Y-179440000D03*
%TO.C,R5*%
X99500000Y-178460000D03*
%TO.C,R4*%
X108140000Y-165660000D03*
%TO.C,R5*%
X109660000Y-178460000D03*
%TO.C,R4*%
X118300000Y-165660000D03*
%TD*%
D13*
X83183835Y-120923835D03*
X85530000Y-137670000D03*
X88070000Y-103565571D03*
X103012188Y-149797812D03*
D14*
%TO.C,J8*%
X44725000Y-67130000D03*
%TO.C,J9*%
X44725000Y-84610000D03*
%TO.C,J10*%
X44725000Y-102090000D03*
%TO.C,J11*%
X44725000Y-119570000D03*
%TO.C,J12*%
X44725000Y-137050000D03*
%TO.C,J13*%
X44725000Y-159660000D03*
%TO.C,J8*%
X47265000Y-67130000D03*
%TO.C,J9*%
X47265000Y-84610000D03*
%TO.C,J10*%
X47265000Y-102090000D03*
%TO.C,J11*%
X47265000Y-119570000D03*
%TO.C,J12*%
X47265000Y-137050000D03*
%TO.C,J13*%
X47265000Y-159660000D03*
%TO.C,J8*%
X49805000Y-67130000D03*
%TO.C,J9*%
X49805000Y-84610000D03*
%TO.C,J10*%
X49805000Y-102090000D03*
%TO.C,J11*%
X49805000Y-119570000D03*
%TO.C,J12*%
X49805000Y-137050000D03*
%TO.C,J13*%
X49805000Y-159660000D03*
%TO.C,J8*%
X52345000Y-67130000D03*
%TO.C,J9*%
X52345000Y-84610000D03*
%TO.C,J10*%
X52345000Y-102090000D03*
%TO.C,J11*%
X52345000Y-119570000D03*
%TO.C,J12*%
X52345000Y-137050000D03*
%TO.C,J13*%
X52345000Y-159660000D03*
%TO.C,J8*%
X54885000Y-67130000D03*
%TO.C,J9*%
X54885000Y-84610000D03*
%TO.C,J10*%
X54885000Y-102090000D03*
%TO.C,J11*%
X54885000Y-119570000D03*
%TO.C,J12*%
X54885000Y-137050000D03*
%TO.C,J13*%
X54885000Y-159660000D03*
%TO.C,J8*%
X57425000Y-67130000D03*
%TO.C,J9*%
X57425000Y-84610000D03*
%TO.C,J10*%
X57425000Y-102090000D03*
%TO.C,J11*%
X57425000Y-119570000D03*
%TO.C,J12*%
X57425000Y-137050000D03*
%TO.C,J13*%
X57425000Y-159660000D03*
%TO.C,J8*%
X59965000Y-67130000D03*
%TO.C,J9*%
X59965000Y-84610000D03*
%TO.C,J10*%
X59965000Y-102090000D03*
%TO.C,J11*%
X59965000Y-119570000D03*
%TO.C,J12*%
X59965000Y-137050000D03*
%TO.C,J13*%
X59965000Y-159660000D03*
%TO.C,J8*%
X62505000Y-67130000D03*
%TO.C,J9*%
X62505000Y-84610000D03*
%TO.C,J10*%
X62505000Y-102090000D03*
%TO.C,J11*%
X62505000Y-119570000D03*
%TO.C,J12*%
X62505000Y-137050000D03*
%TO.C,J13*%
X62505000Y-159660000D03*
%TO.C,J15*%
X75478224Y-78520748D03*
%TO.C,J0*%
X75820000Y-140085000D03*
X75820000Y-142625000D03*
%TO.C,J15*%
X78018224Y-78520748D03*
X80558224Y-78520748D03*
X83098224Y-78520748D03*
X85638224Y-78520748D03*
X88178224Y-78520748D03*
%TO.C,J7*%
X100510000Y-67380000D03*
%TO.C,J6*%
X100510000Y-84840000D03*
%TO.C,J5*%
X100510000Y-102340000D03*
%TO.C,J4*%
X100510000Y-119840000D03*
%TO.C,J3*%
X100510000Y-137340000D03*
%TO.C,J2*%
X100510000Y-154820000D03*
%TO.C,J1*%
X100510000Y-172300000D03*
%TO.C,J7*%
X103050000Y-67380000D03*
%TO.C,J6*%
X103050000Y-84840000D03*
%TO.C,J5*%
X103050000Y-102340000D03*
%TO.C,J4*%
X103050000Y-119840000D03*
%TO.C,J3*%
X103050000Y-137340000D03*
%TO.C,J2*%
X103050000Y-154820000D03*
%TO.C,J1*%
X103050000Y-172300000D03*
%TO.C,J7*%
X105590000Y-67380000D03*
%TO.C,J6*%
X105590000Y-84840000D03*
%TO.C,J5*%
X105590000Y-102340000D03*
%TO.C,J4*%
X105590000Y-119840000D03*
%TO.C,J3*%
X105590000Y-137340000D03*
%TO.C,J2*%
X105590000Y-154820000D03*
%TO.C,J1*%
X105590000Y-172300000D03*
%TO.C,J7*%
X108130000Y-67380000D03*
%TO.C,J6*%
X108130000Y-84840000D03*
%TO.C,J5*%
X108130000Y-102340000D03*
%TO.C,J4*%
X108130000Y-119840000D03*
%TO.C,J3*%
X108130000Y-137340000D03*
%TO.C,J2*%
X108130000Y-154820000D03*
%TO.C,J1*%
X108130000Y-172300000D03*
%TO.C,J7*%
X110670000Y-67380000D03*
%TO.C,J6*%
X110670000Y-84840000D03*
%TO.C,J5*%
X110670000Y-102340000D03*
%TO.C,J4*%
X110670000Y-119840000D03*
%TO.C,J3*%
X110670000Y-137340000D03*
%TO.C,J2*%
X110670000Y-154820000D03*
%TO.C,J1*%
X110670000Y-172300000D03*
%TO.C,J7*%
X113210000Y-67380000D03*
%TO.C,J6*%
X113210000Y-84840000D03*
%TO.C,J5*%
X113210000Y-102340000D03*
%TO.C,J4*%
X113210000Y-119840000D03*
%TO.C,J3*%
X113210000Y-137340000D03*
%TO.C,J2*%
X113210000Y-154820000D03*
%TO.C,J1*%
X113210000Y-172300000D03*
%TO.C,J7*%
X115750000Y-67380000D03*
%TO.C,J6*%
X115750000Y-84840000D03*
%TO.C,J5*%
X115750000Y-102340000D03*
%TO.C,J4*%
X115750000Y-119840000D03*
%TO.C,J3*%
X115750000Y-137340000D03*
%TO.C,J2*%
X115750000Y-154820000D03*
%TO.C,J1*%
X115750000Y-172300000D03*
%TO.C,J7*%
X118290000Y-67380000D03*
%TO.C,J6*%
X118290000Y-84840000D03*
%TO.C,J5*%
X118290000Y-102340000D03*
%TO.C,J4*%
X118290000Y-119840000D03*
%TO.C,J3*%
X118290000Y-137340000D03*
%TO.C,J2*%
X118290000Y-154820000D03*
%TO.C,J1*%
X118290000Y-172300000D03*
%TD*%
D15*
X49805000Y-122375000D03*
X49805000Y-132675000D03*
X52345000Y-124100000D03*
X52345000Y-134035000D03*
X57620000Y-73060000D03*
X65920000Y-118160000D03*
X68970000Y-114960000D03*
X69346986Y-128907807D03*
X70430000Y-174900000D03*
X70490000Y-132430000D03*
X71737282Y-95940200D03*
X72420000Y-146860000D03*
X72520000Y-85860000D03*
X73880200Y-98480200D03*
X81020000Y-103360000D03*
X81120000Y-163588576D03*
X85420000Y-128260000D03*
X86880200Y-101020200D03*
X87620000Y-174860000D03*
X88413456Y-82044151D03*
X90610000Y-106320000D03*
X90610000Y-136800000D03*
X90920000Y-80920000D03*
X96421712Y-166170444D03*
X98370000Y-114160000D03*
X110670000Y-125010000D03*
X110670000Y-134460000D03*
X113210000Y-122670000D03*
X113210000Y-132470000D03*
D16*
%TO.C,U1*%
X68884800Y-75620200D03*
X68884800Y-78160200D03*
X68884800Y-80700200D03*
X68884800Y-83240200D03*
X68884800Y-85780200D03*
X68884800Y-88320200D03*
X68884800Y-90860200D03*
X68884800Y-93400200D03*
X68884800Y-95940200D03*
X68884800Y-98480200D03*
X68884800Y-101020200D03*
X68884800Y-103560200D03*
X68884800Y-106100200D03*
X68884800Y-108640200D03*
X68884800Y-111180200D03*
%TO.C,U2*%
X75840544Y-122703000D03*
X75840544Y-162200000D03*
X92985544Y-122703000D03*
X92985544Y-162200000D03*
%TO.C,U1*%
X94284800Y-75620200D03*
X94284800Y-78160200D03*
X94284800Y-80700200D03*
X94284800Y-83240200D03*
X94284800Y-85780200D03*
X94284800Y-88320200D03*
X94284800Y-90860200D03*
X94284800Y-93400200D03*
X94284800Y-95940200D03*
X94284800Y-98480200D03*
X94284800Y-101020200D03*
X94284800Y-103560200D03*
X94284800Y-106100200D03*
X94284800Y-108640200D03*
X94284800Y-111180200D03*
D17*
%TO.C,SW1*%
X46740000Y-166570000D03*
X46740000Y-173070000D03*
X51240000Y-166570000D03*
X51240000Y-173070000D03*
M02*
