%TF.GenerationSoftware,KiCad,Pcbnew,7.0.8*%
%TF.CreationDate,2023-10-24T13:26:35-03:00*%
%TF.ProjectId,FirstBoard,46697273-7442-46f6-9172-642e6b696361,rev?*%
%TF.SameCoordinates,Original*%
%TF.FileFunction,Drillmap*%
%TF.FilePolarity,Positive*%
%FSLAX45Y45*%
G04 Gerber Fmt 4.5, Leading zero omitted, Abs format (unit mm)*
G04 Created by KiCad (PCBNEW 7.0.8) date 2023-10-24 13:26:35*
%MOMM*%
%LPD*%
G01*
G04 APERTURE LIST*
%ADD10C,0.200000*%
%ADD11C,0.050000*%
%ADD12C,0.070000*%
%ADD13C,0.080000*%
%ADD14C,0.100000*%
%ADD15C,0.102000*%
%ADD16C,0.110000*%
G04 APERTURE END LIST*
D10*
X4632500Y-17900000D02*
G75*
G03*
X4632500Y-17900000I-162500J0D01*
G01*
X12144500Y-17900000D02*
G75*
G03*
X12144500Y-17900000I-162500J0D01*
G01*
X12144500Y-6314000D02*
G75*
G03*
X12144500Y-6314000I-162500J0D01*
G01*
X4118000Y-6039262D02*
X12318313Y-6039262D01*
X12318313Y-18250000D01*
X4118000Y-18250000D01*
X4118000Y-6039262D01*
X4632500Y-6314000D02*
G75*
G03*
X4632500Y-6314000I-162500J0D01*
G01*
D11*
X6623000Y-14348300D02*
X6673000Y-14398300D01*
X6673000Y-14348300D02*
X6623000Y-14398300D01*
D10*
X6423000Y-14398300D02*
X6873000Y-14398300D01*
X6873000Y-14398300D02*
G75*
G03*
X6873000Y-14348300I0J25000D01*
G01*
X6873000Y-14348300D02*
X6423000Y-14348300D01*
X6423000Y-14348300D02*
G75*
G03*
X6423000Y-14398300I0J-25000D01*
G01*
D11*
X6623000Y-14848000D02*
X6673000Y-14898000D01*
X6673000Y-14848000D02*
X6623000Y-14898000D01*
D10*
X6423000Y-14898000D02*
X6873000Y-14898000D01*
X6873000Y-14898000D02*
G75*
G03*
X6873000Y-14848000I0J25000D01*
G01*
X6873000Y-14848000D02*
X6423000Y-14848000D01*
X6423000Y-14848000D02*
G75*
G03*
X6423000Y-14898000I0J-25000D01*
G01*
D12*
X6683000Y-17095000D02*
G75*
G03*
X6683000Y-17095000I-35000J0D01*
G01*
X6683000Y-17857000D02*
G75*
G03*
X6683000Y-17857000I-35000J0D01*
G01*
X7587944Y-17115439D02*
G75*
G03*
X7587944Y-17115439I-35000J0D01*
G01*
X7587944Y-17877439D02*
G75*
G03*
X7587944Y-17877439I-35000J0D01*
G01*
D13*
X5886000Y-16868000D02*
X5886000Y-16948000D01*
X5846000Y-16908000D02*
X5926000Y-16908000D01*
X5886000Y-17884000D02*
X5886000Y-17964000D01*
X5846000Y-17924000D02*
X5926000Y-17924000D01*
X8172000Y-16886000D02*
X8172000Y-16966000D01*
X8132000Y-16926000D02*
X8212000Y-16926000D01*
X8172000Y-17902000D02*
X8172000Y-17982000D01*
X8132000Y-17942000D02*
X8212000Y-17942000D01*
X9188000Y-16888000D02*
X9188000Y-16968000D01*
X9148000Y-16928000D02*
X9228000Y-16928000D01*
X9188000Y-17904000D02*
X9188000Y-17984000D01*
X9148000Y-17944000D02*
X9228000Y-17944000D01*
X9950000Y-17806000D02*
X9950000Y-17886000D01*
X9910000Y-17846000D02*
X9990000Y-17846000D01*
X10814000Y-16526000D02*
X10814000Y-16606000D01*
X10774000Y-16566000D02*
X10854000Y-16566000D01*
X10966000Y-17806000D02*
X10966000Y-17886000D01*
X10926000Y-17846000D02*
X11006000Y-17846000D01*
X11830000Y-16526000D02*
X11830000Y-16606000D01*
X11790000Y-16566000D02*
X11870000Y-16566000D01*
D14*
X8588356Y-13802356D02*
X8588356Y-13731644D01*
X8517644Y-13731644D01*
X8517644Y-13802356D01*
X8588356Y-13802356D01*
X8969356Y-10391913D02*
X8969356Y-10321201D01*
X8898644Y-10321201D01*
X8898644Y-10391913D01*
X8969356Y-10391913D01*
X10336575Y-15015137D02*
X10336575Y-14944425D01*
X10265863Y-14944425D01*
X10265863Y-15015137D01*
X10336575Y-15015137D01*
X4472500Y-6763000D02*
X4522500Y-6713000D01*
X4472500Y-6663000D01*
X4422500Y-6713000D01*
X4472500Y-6763000D01*
X4472500Y-8511000D02*
X4522500Y-8461000D01*
X4472500Y-8411000D01*
X4422500Y-8461000D01*
X4472500Y-8511000D01*
X4472500Y-10259000D02*
X4522500Y-10209000D01*
X4472500Y-10159000D01*
X4422500Y-10209000D01*
X4472500Y-10259000D01*
X4472500Y-12007000D02*
X4522500Y-11957000D01*
X4472500Y-11907000D01*
X4422500Y-11957000D01*
X4472500Y-12007000D01*
X4472500Y-13755000D02*
X4522500Y-13705000D01*
X4472500Y-13655000D01*
X4422500Y-13705000D01*
X4472500Y-13755000D01*
X4472500Y-16016000D02*
X4522500Y-15966000D01*
X4472500Y-15916000D01*
X4422500Y-15966000D01*
X4472500Y-16016000D01*
X4726500Y-6763000D02*
X4776500Y-6713000D01*
X4726500Y-6663000D01*
X4676500Y-6713000D01*
X4726500Y-6763000D01*
X4726500Y-8511000D02*
X4776500Y-8461000D01*
X4726500Y-8411000D01*
X4676500Y-8461000D01*
X4726500Y-8511000D01*
X4726500Y-10259000D02*
X4776500Y-10209000D01*
X4726500Y-10159000D01*
X4676500Y-10209000D01*
X4726500Y-10259000D01*
X4726500Y-12007000D02*
X4776500Y-11957000D01*
X4726500Y-11907000D01*
X4676500Y-11957000D01*
X4726500Y-12007000D01*
X4726500Y-13755000D02*
X4776500Y-13705000D01*
X4726500Y-13655000D01*
X4676500Y-13705000D01*
X4726500Y-13755000D01*
X4726500Y-16016000D02*
X4776500Y-15966000D01*
X4726500Y-15916000D01*
X4676500Y-15966000D01*
X4726500Y-16016000D01*
X4980500Y-6763000D02*
X5030500Y-6713000D01*
X4980500Y-6663000D01*
X4930500Y-6713000D01*
X4980500Y-6763000D01*
X4980500Y-8511000D02*
X5030500Y-8461000D01*
X4980500Y-8411000D01*
X4930500Y-8461000D01*
X4980500Y-8511000D01*
X4980500Y-10259000D02*
X5030500Y-10209000D01*
X4980500Y-10159000D01*
X4930500Y-10209000D01*
X4980500Y-10259000D01*
X4980500Y-12007000D02*
X5030500Y-11957000D01*
X4980500Y-11907000D01*
X4930500Y-11957000D01*
X4980500Y-12007000D01*
X4980500Y-13755000D02*
X5030500Y-13705000D01*
X4980500Y-13655000D01*
X4930500Y-13705000D01*
X4980500Y-13755000D01*
X4980500Y-16016000D02*
X5030500Y-15966000D01*
X4980500Y-15916000D01*
X4930500Y-15966000D01*
X4980500Y-16016000D01*
X5234500Y-6763000D02*
X5284500Y-6713000D01*
X5234500Y-6663000D01*
X5184500Y-6713000D01*
X5234500Y-6763000D01*
X5234500Y-8511000D02*
X5284500Y-8461000D01*
X5234500Y-8411000D01*
X5184500Y-8461000D01*
X5234500Y-8511000D01*
X5234500Y-10259000D02*
X5284500Y-10209000D01*
X5234500Y-10159000D01*
X5184500Y-10209000D01*
X5234500Y-10259000D01*
X5234500Y-12007000D02*
X5284500Y-11957000D01*
X5234500Y-11907000D01*
X5184500Y-11957000D01*
X5234500Y-12007000D01*
X5234500Y-13755000D02*
X5284500Y-13705000D01*
X5234500Y-13655000D01*
X5184500Y-13705000D01*
X5234500Y-13755000D01*
X5234500Y-16016000D02*
X5284500Y-15966000D01*
X5234500Y-15916000D01*
X5184500Y-15966000D01*
X5234500Y-16016000D01*
X5488500Y-6763000D02*
X5538500Y-6713000D01*
X5488500Y-6663000D01*
X5438500Y-6713000D01*
X5488500Y-6763000D01*
X5488500Y-8511000D02*
X5538500Y-8461000D01*
X5488500Y-8411000D01*
X5438500Y-8461000D01*
X5488500Y-8511000D01*
X5488500Y-10259000D02*
X5538500Y-10209000D01*
X5488500Y-10159000D01*
X5438500Y-10209000D01*
X5488500Y-10259000D01*
X5488500Y-12007000D02*
X5538500Y-11957000D01*
X5488500Y-11907000D01*
X5438500Y-11957000D01*
X5488500Y-12007000D01*
X5488500Y-13755000D02*
X5538500Y-13705000D01*
X5488500Y-13655000D01*
X5438500Y-13705000D01*
X5488500Y-13755000D01*
X5488500Y-16016000D02*
X5538500Y-15966000D01*
X5488500Y-15916000D01*
X5438500Y-15966000D01*
X5488500Y-16016000D01*
X5742500Y-6763000D02*
X5792500Y-6713000D01*
X5742500Y-6663000D01*
X5692500Y-6713000D01*
X5742500Y-6763000D01*
X5742500Y-8511000D02*
X5792500Y-8461000D01*
X5742500Y-8411000D01*
X5692500Y-8461000D01*
X5742500Y-8511000D01*
X5742500Y-10259000D02*
X5792500Y-10209000D01*
X5742500Y-10159000D01*
X5692500Y-10209000D01*
X5742500Y-10259000D01*
X5742500Y-12007000D02*
X5792500Y-11957000D01*
X5742500Y-11907000D01*
X5692500Y-11957000D01*
X5742500Y-12007000D01*
X5742500Y-13755000D02*
X5792500Y-13705000D01*
X5742500Y-13655000D01*
X5692500Y-13705000D01*
X5742500Y-13755000D01*
X5742500Y-16016000D02*
X5792500Y-15966000D01*
X5742500Y-15916000D01*
X5692500Y-15966000D01*
X5742500Y-16016000D01*
X5996500Y-6763000D02*
X6046500Y-6713000D01*
X5996500Y-6663000D01*
X5946500Y-6713000D01*
X5996500Y-6763000D01*
X5996500Y-8511000D02*
X6046500Y-8461000D01*
X5996500Y-8411000D01*
X5946500Y-8461000D01*
X5996500Y-8511000D01*
X5996500Y-10259000D02*
X6046500Y-10209000D01*
X5996500Y-10159000D01*
X5946500Y-10209000D01*
X5996500Y-10259000D01*
X5996500Y-12007000D02*
X6046500Y-11957000D01*
X5996500Y-11907000D01*
X5946500Y-11957000D01*
X5996500Y-12007000D01*
X5996500Y-13755000D02*
X6046500Y-13705000D01*
X5996500Y-13655000D01*
X5946500Y-13705000D01*
X5996500Y-13755000D01*
X5996500Y-16016000D02*
X6046500Y-15966000D01*
X5996500Y-15916000D01*
X5946500Y-15966000D01*
X5996500Y-16016000D01*
X6250500Y-6763000D02*
X6300500Y-6713000D01*
X6250500Y-6663000D01*
X6200500Y-6713000D01*
X6250500Y-6763000D01*
X6250500Y-8511000D02*
X6300500Y-8461000D01*
X6250500Y-8411000D01*
X6200500Y-8461000D01*
X6250500Y-8511000D01*
X6250500Y-10259000D02*
X6300500Y-10209000D01*
X6250500Y-10159000D01*
X6200500Y-10209000D01*
X6250500Y-10259000D01*
X6250500Y-12007000D02*
X6300500Y-11957000D01*
X6250500Y-11907000D01*
X6200500Y-11957000D01*
X6250500Y-12007000D01*
X6250500Y-13755000D02*
X6300500Y-13705000D01*
X6250500Y-13655000D01*
X6200500Y-13705000D01*
X6250500Y-13755000D01*
X6250500Y-16016000D02*
X6300500Y-15966000D01*
X6250500Y-15916000D01*
X6200500Y-15966000D01*
X6250500Y-16016000D01*
X7547822Y-7902075D02*
X7597822Y-7852075D01*
X7547822Y-7802075D01*
X7497822Y-7852075D01*
X7547822Y-7902075D01*
X7582000Y-14058500D02*
X7632000Y-14008500D01*
X7582000Y-13958500D01*
X7532000Y-14008500D01*
X7582000Y-14058500D01*
X7582000Y-14312500D02*
X7632000Y-14262500D01*
X7582000Y-14212500D01*
X7532000Y-14262500D01*
X7582000Y-14312500D01*
X7801822Y-7902075D02*
X7851822Y-7852075D01*
X7801822Y-7802075D01*
X7751822Y-7852075D01*
X7801822Y-7902075D01*
X8055822Y-7902075D02*
X8105822Y-7852075D01*
X8055822Y-7802075D01*
X8005822Y-7852075D01*
X8055822Y-7902075D01*
X8309822Y-7902075D02*
X8359822Y-7852075D01*
X8309822Y-7802075D01*
X8259822Y-7852075D01*
X8309822Y-7902075D01*
X8563822Y-7902075D02*
X8613822Y-7852075D01*
X8563822Y-7802075D01*
X8513822Y-7852075D01*
X8563822Y-7902075D01*
X8817822Y-7902075D02*
X8867822Y-7852075D01*
X8817822Y-7802075D01*
X8767822Y-7852075D01*
X8817822Y-7902075D01*
X10051000Y-6788000D02*
X10101000Y-6738000D01*
X10051000Y-6688000D01*
X10001000Y-6738000D01*
X10051000Y-6788000D01*
X10051000Y-8534000D02*
X10101000Y-8484000D01*
X10051000Y-8434000D01*
X10001000Y-8484000D01*
X10051000Y-8534000D01*
X10051000Y-10284000D02*
X10101000Y-10234000D01*
X10051000Y-10184000D01*
X10001000Y-10234000D01*
X10051000Y-10284000D01*
X10051000Y-12034000D02*
X10101000Y-11984000D01*
X10051000Y-11934000D01*
X10001000Y-11984000D01*
X10051000Y-12034000D01*
X10051000Y-13784000D02*
X10101000Y-13734000D01*
X10051000Y-13684000D01*
X10001000Y-13734000D01*
X10051000Y-13784000D01*
X10051000Y-15532000D02*
X10101000Y-15482000D01*
X10051000Y-15432000D01*
X10001000Y-15482000D01*
X10051000Y-15532000D01*
X10051000Y-17280000D02*
X10101000Y-17230000D01*
X10051000Y-17180000D01*
X10001000Y-17230000D01*
X10051000Y-17280000D01*
X10305000Y-6788000D02*
X10355000Y-6738000D01*
X10305000Y-6688000D01*
X10255000Y-6738000D01*
X10305000Y-6788000D01*
X10305000Y-8534000D02*
X10355000Y-8484000D01*
X10305000Y-8434000D01*
X10255000Y-8484000D01*
X10305000Y-8534000D01*
X10305000Y-10284000D02*
X10355000Y-10234000D01*
X10305000Y-10184000D01*
X10255000Y-10234000D01*
X10305000Y-10284000D01*
X10305000Y-12034000D02*
X10355000Y-11984000D01*
X10305000Y-11934000D01*
X10255000Y-11984000D01*
X10305000Y-12034000D01*
X10305000Y-13784000D02*
X10355000Y-13734000D01*
X10305000Y-13684000D01*
X10255000Y-13734000D01*
X10305000Y-13784000D01*
X10305000Y-15532000D02*
X10355000Y-15482000D01*
X10305000Y-15432000D01*
X10255000Y-15482000D01*
X10305000Y-15532000D01*
X10305000Y-17280000D02*
X10355000Y-17230000D01*
X10305000Y-17180000D01*
X10255000Y-17230000D01*
X10305000Y-17280000D01*
X10559000Y-6788000D02*
X10609000Y-6738000D01*
X10559000Y-6688000D01*
X10509000Y-6738000D01*
X10559000Y-6788000D01*
X10559000Y-8534000D02*
X10609000Y-8484000D01*
X10559000Y-8434000D01*
X10509000Y-8484000D01*
X10559000Y-8534000D01*
X10559000Y-10284000D02*
X10609000Y-10234000D01*
X10559000Y-10184000D01*
X10509000Y-10234000D01*
X10559000Y-10284000D01*
X10559000Y-12034000D02*
X10609000Y-11984000D01*
X10559000Y-11934000D01*
X10509000Y-11984000D01*
X10559000Y-12034000D01*
X10559000Y-13784000D02*
X10609000Y-13734000D01*
X10559000Y-13684000D01*
X10509000Y-13734000D01*
X10559000Y-13784000D01*
X10559000Y-15532000D02*
X10609000Y-15482000D01*
X10559000Y-15432000D01*
X10509000Y-15482000D01*
X10559000Y-15532000D01*
X10559000Y-17280000D02*
X10609000Y-17230000D01*
X10559000Y-17180000D01*
X10509000Y-17230000D01*
X10559000Y-17280000D01*
X10813000Y-6788000D02*
X10863000Y-6738000D01*
X10813000Y-6688000D01*
X10763000Y-6738000D01*
X10813000Y-6788000D01*
X10813000Y-8534000D02*
X10863000Y-8484000D01*
X10813000Y-8434000D01*
X10763000Y-8484000D01*
X10813000Y-8534000D01*
X10813000Y-10284000D02*
X10863000Y-10234000D01*
X10813000Y-10184000D01*
X10763000Y-10234000D01*
X10813000Y-10284000D01*
X10813000Y-12034000D02*
X10863000Y-11984000D01*
X10813000Y-11934000D01*
X10763000Y-11984000D01*
X10813000Y-12034000D01*
X10813000Y-13784000D02*
X10863000Y-13734000D01*
X10813000Y-13684000D01*
X10763000Y-13734000D01*
X10813000Y-13784000D01*
X10813000Y-15532000D02*
X10863000Y-15482000D01*
X10813000Y-15432000D01*
X10763000Y-15482000D01*
X10813000Y-15532000D01*
X10813000Y-17280000D02*
X10863000Y-17230000D01*
X10813000Y-17180000D01*
X10763000Y-17230000D01*
X10813000Y-17280000D01*
X11067000Y-6788000D02*
X11117000Y-6738000D01*
X11067000Y-6688000D01*
X11017000Y-6738000D01*
X11067000Y-6788000D01*
X11067000Y-8534000D02*
X11117000Y-8484000D01*
X11067000Y-8434000D01*
X11017000Y-8484000D01*
X11067000Y-8534000D01*
X11067000Y-10284000D02*
X11117000Y-10234000D01*
X11067000Y-10184000D01*
X11017000Y-10234000D01*
X11067000Y-10284000D01*
X11067000Y-12034000D02*
X11117000Y-11984000D01*
X11067000Y-11934000D01*
X11017000Y-11984000D01*
X11067000Y-12034000D01*
X11067000Y-13784000D02*
X11117000Y-13734000D01*
X11067000Y-13684000D01*
X11017000Y-13734000D01*
X11067000Y-13784000D01*
X11067000Y-15532000D02*
X11117000Y-15482000D01*
X11067000Y-15432000D01*
X11017000Y-15482000D01*
X11067000Y-15532000D01*
X11067000Y-17280000D02*
X11117000Y-17230000D01*
X11067000Y-17180000D01*
X11017000Y-17230000D01*
X11067000Y-17280000D01*
X11321000Y-6788000D02*
X11371000Y-6738000D01*
X11321000Y-6688000D01*
X11271000Y-6738000D01*
X11321000Y-6788000D01*
X11321000Y-8534000D02*
X11371000Y-8484000D01*
X11321000Y-8434000D01*
X11271000Y-8484000D01*
X11321000Y-8534000D01*
X11321000Y-10284000D02*
X11371000Y-10234000D01*
X11321000Y-10184000D01*
X11271000Y-10234000D01*
X11321000Y-10284000D01*
X11321000Y-12034000D02*
X11371000Y-11984000D01*
X11321000Y-11934000D01*
X11271000Y-11984000D01*
X11321000Y-12034000D01*
X11321000Y-13784000D02*
X11371000Y-13734000D01*
X11321000Y-13684000D01*
X11271000Y-13734000D01*
X11321000Y-13784000D01*
X11321000Y-15532000D02*
X11371000Y-15482000D01*
X11321000Y-15432000D01*
X11271000Y-15482000D01*
X11321000Y-15532000D01*
X11321000Y-17280000D02*
X11371000Y-17230000D01*
X11321000Y-17180000D01*
X11271000Y-17230000D01*
X11321000Y-17280000D01*
X11575000Y-6788000D02*
X11625000Y-6738000D01*
X11575000Y-6688000D01*
X11525000Y-6738000D01*
X11575000Y-6788000D01*
X11575000Y-8534000D02*
X11625000Y-8484000D01*
X11575000Y-8434000D01*
X11525000Y-8484000D01*
X11575000Y-8534000D01*
X11575000Y-10284000D02*
X11625000Y-10234000D01*
X11575000Y-10184000D01*
X11525000Y-10234000D01*
X11575000Y-10284000D01*
X11575000Y-12034000D02*
X11625000Y-11984000D01*
X11575000Y-11934000D01*
X11525000Y-11984000D01*
X11575000Y-12034000D01*
X11575000Y-13784000D02*
X11625000Y-13734000D01*
X11575000Y-13684000D01*
X11525000Y-13734000D01*
X11575000Y-13784000D01*
X11575000Y-15532000D02*
X11625000Y-15482000D01*
X11575000Y-15432000D01*
X11525000Y-15482000D01*
X11575000Y-15532000D01*
X11575000Y-17280000D02*
X11625000Y-17230000D01*
X11575000Y-17180000D01*
X11525000Y-17230000D01*
X11575000Y-17280000D01*
X11829000Y-6788000D02*
X11879000Y-6738000D01*
X11829000Y-6688000D01*
X11779000Y-6738000D01*
X11829000Y-6788000D01*
X11829000Y-8534000D02*
X11879000Y-8484000D01*
X11829000Y-8434000D01*
X11779000Y-8484000D01*
X11829000Y-8534000D01*
X11829000Y-10284000D02*
X11879000Y-10234000D01*
X11829000Y-10184000D01*
X11779000Y-10234000D01*
X11829000Y-10284000D01*
X11829000Y-12034000D02*
X11879000Y-11984000D01*
X11829000Y-11934000D01*
X11779000Y-11984000D01*
X11829000Y-12034000D01*
X11829000Y-13784000D02*
X11879000Y-13734000D01*
X11829000Y-13684000D01*
X11779000Y-13734000D01*
X11829000Y-13784000D01*
X11829000Y-15532000D02*
X11879000Y-15482000D01*
X11829000Y-15432000D01*
X11779000Y-15482000D01*
X11829000Y-15532000D01*
X11829000Y-17280000D02*
X11879000Y-17230000D01*
X11829000Y-17180000D01*
X11779000Y-17230000D01*
X11829000Y-17280000D01*
D15*
X4929500Y-12186500D02*
X5031500Y-12288500D01*
X5031500Y-12186500D02*
X4929500Y-12288500D01*
X5031500Y-12237500D02*
G75*
G03*
X5031500Y-12237500I-51000J0D01*
G01*
X4929500Y-13216500D02*
X5031500Y-13318500D01*
X5031500Y-13216500D02*
X4929500Y-13318500D01*
X5031500Y-13267500D02*
G75*
G03*
X5031500Y-13267500I-51000J0D01*
G01*
X5183500Y-12359000D02*
X5285500Y-12461000D01*
X5285500Y-12359000D02*
X5183500Y-12461000D01*
X5285500Y-12410000D02*
G75*
G03*
X5285500Y-12410000I-51000J0D01*
G01*
X5183500Y-13352500D02*
X5285500Y-13454500D01*
X5285500Y-13352500D02*
X5183500Y-13454500D01*
X5285500Y-13403500D02*
G75*
G03*
X5285500Y-13403500I-51000J0D01*
G01*
X5585451Y-7173587D02*
X5687451Y-7275587D01*
X5687451Y-7173587D02*
X5585451Y-7275587D01*
X5687451Y-7224587D02*
G75*
G03*
X5687451Y-7224587I-51000J0D01*
G01*
X6541000Y-11765000D02*
X6643000Y-11867000D01*
X6643000Y-11765000D02*
X6541000Y-11867000D01*
X6643000Y-11816000D02*
G75*
G03*
X6643000Y-11816000I-51000J0D01*
G01*
X6846000Y-11445000D02*
X6948000Y-11547000D01*
X6948000Y-11445000D02*
X6846000Y-11547000D01*
X6948000Y-11496000D02*
G75*
G03*
X6948000Y-11496000I-51000J0D01*
G01*
X6883699Y-12839781D02*
X6985699Y-12941781D01*
X6985699Y-12839781D02*
X6883699Y-12941781D01*
X6985699Y-12890781D02*
G75*
G03*
X6985699Y-12890781I-51000J0D01*
G01*
X6992000Y-17439000D02*
X7094000Y-17541000D01*
X7094000Y-17439000D02*
X6992000Y-17541000D01*
X7094000Y-17490000D02*
G75*
G03*
X7094000Y-17490000I-51000J0D01*
G01*
X6998000Y-13192000D02*
X7100000Y-13294000D01*
X7100000Y-13192000D02*
X6998000Y-13294000D01*
X7100000Y-13243000D02*
G75*
G03*
X7100000Y-13243000I-51000J0D01*
G01*
X7117096Y-9793651D02*
X7219096Y-9895651D01*
X7219096Y-9793651D02*
X7117096Y-9895651D01*
X7219096Y-9844651D02*
G75*
G03*
X7219096Y-9844651I-51000J0D01*
G01*
X7189998Y-8273020D02*
X7291998Y-8375020D01*
X7291998Y-8273020D02*
X7189998Y-8375020D01*
X7291998Y-8324020D02*
G75*
G03*
X7291998Y-8324020I-51000J0D01*
G01*
X7191000Y-14635000D02*
X7293000Y-14737000D01*
X7293000Y-14635000D02*
X7191000Y-14737000D01*
X7293000Y-14686000D02*
G75*
G03*
X7293000Y-14686000I-51000J0D01*
G01*
X7201000Y-8535000D02*
X7303000Y-8637000D01*
X7303000Y-8535000D02*
X7201000Y-8637000D01*
X7303000Y-8586000D02*
G75*
G03*
X7303000Y-8586000I-51000J0D01*
G01*
X7337020Y-10038619D02*
X7439020Y-10140619D01*
X7439020Y-10038619D02*
X7337020Y-10140619D01*
X7439020Y-10089619D02*
G75*
G03*
X7439020Y-10089619I-51000J0D01*
G01*
X8051000Y-10285000D02*
X8153000Y-10387000D01*
X8153000Y-10285000D02*
X8051000Y-10387000D01*
X8153000Y-10336000D02*
G75*
G03*
X8153000Y-10336000I-51000J0D01*
G01*
X8061000Y-16307858D02*
X8163000Y-16409858D01*
X8163000Y-16307858D02*
X8061000Y-16409858D01*
X8163000Y-16358858D02*
G75*
G03*
X8163000Y-16358858I-51000J0D01*
G01*
X8491000Y-12775000D02*
X8593000Y-12877000D01*
X8593000Y-12775000D02*
X8491000Y-12877000D01*
X8593000Y-12826000D02*
G75*
G03*
X8593000Y-12826000I-51000J0D01*
G01*
X8637020Y-10051020D02*
X8739020Y-10153020D01*
X8739020Y-10051020D02*
X8637020Y-10153020D01*
X8739020Y-10102020D02*
G75*
G03*
X8739020Y-10102020I-51000J0D01*
G01*
X8711000Y-17435000D02*
X8813000Y-17537000D01*
X8813000Y-17435000D02*
X8711000Y-17537000D01*
X8813000Y-17486000D02*
G75*
G03*
X8813000Y-17486000I-51000J0D01*
G01*
X8790346Y-8153415D02*
X8892346Y-8255415D01*
X8892346Y-8153415D02*
X8790346Y-8255415D01*
X8892346Y-8204415D02*
G75*
G03*
X8892346Y-8204415I-51000J0D01*
G01*
X9010000Y-10581000D02*
X9112000Y-10683000D01*
X9112000Y-10581000D02*
X9010000Y-10683000D01*
X9112000Y-10632000D02*
G75*
G03*
X9112000Y-10632000I-51000J0D01*
G01*
X9010000Y-13629000D02*
X9112000Y-13731000D01*
X9112000Y-13629000D02*
X9010000Y-13731000D01*
X9112000Y-13680000D02*
G75*
G03*
X9112000Y-13680000I-51000J0D01*
G01*
X9041000Y-8041000D02*
X9143000Y-8143000D01*
X9143000Y-8041000D02*
X9041000Y-8143000D01*
X9143000Y-8092000D02*
G75*
G03*
X9143000Y-8092000I-51000J0D01*
G01*
X9591171Y-16566044D02*
X9693171Y-16668044D01*
X9693171Y-16566044D02*
X9591171Y-16668044D01*
X9693171Y-16617044D02*
G75*
G03*
X9693171Y-16617044I-51000J0D01*
G01*
X9786000Y-11365000D02*
X9888000Y-11467000D01*
X9888000Y-11365000D02*
X9786000Y-11467000D01*
X9888000Y-11416000D02*
G75*
G03*
X9888000Y-11416000I-51000J0D01*
G01*
X11016000Y-12450000D02*
X11118000Y-12552000D01*
X11118000Y-12450000D02*
X11016000Y-12552000D01*
X11118000Y-12501000D02*
G75*
G03*
X11118000Y-12501000I-51000J0D01*
G01*
X11016000Y-13395000D02*
X11118000Y-13497000D01*
X11118000Y-13395000D02*
X11016000Y-13497000D01*
X11118000Y-13446000D02*
G75*
G03*
X11118000Y-13446000I-51000J0D01*
G01*
X11270000Y-12216000D02*
X11372000Y-12318000D01*
X11372000Y-12216000D02*
X11270000Y-12318000D01*
X11372000Y-12267000D02*
G75*
G03*
X11372000Y-12267000I-51000J0D01*
G01*
X11270000Y-13196000D02*
X11372000Y-13298000D01*
X11372000Y-13196000D02*
X11270000Y-13298000D01*
X11372000Y-13247000D02*
G75*
G03*
X11372000Y-13247000I-51000J0D01*
G01*
X6837480Y-7511020D02*
X6939480Y-7613020D01*
X6939480Y-7511020D02*
X6837480Y-7613020D01*
X6888480Y-7511020D02*
X6888480Y-7613020D01*
X6837480Y-7562020D02*
X6939480Y-7562020D01*
X6837480Y-7765020D02*
X6939480Y-7867020D01*
X6939480Y-7765020D02*
X6837480Y-7867020D01*
X6888480Y-7765020D02*
X6888480Y-7867020D01*
X6837480Y-7816020D02*
X6939480Y-7816020D01*
X6837480Y-8019020D02*
X6939480Y-8121020D01*
X6939480Y-8019020D02*
X6837480Y-8121020D01*
X6888480Y-8019020D02*
X6888480Y-8121020D01*
X6837480Y-8070020D02*
X6939480Y-8070020D01*
X6837480Y-8273020D02*
X6939480Y-8375020D01*
X6939480Y-8273020D02*
X6837480Y-8375020D01*
X6888480Y-8273020D02*
X6888480Y-8375020D01*
X6837480Y-8324020D02*
X6939480Y-8324020D01*
X6837480Y-8527020D02*
X6939480Y-8629020D01*
X6939480Y-8527020D02*
X6837480Y-8629020D01*
X6888480Y-8527020D02*
X6888480Y-8629020D01*
X6837480Y-8578020D02*
X6939480Y-8578020D01*
X6837480Y-8781020D02*
X6939480Y-8883020D01*
X6939480Y-8781020D02*
X6837480Y-8883020D01*
X6888480Y-8781020D02*
X6888480Y-8883020D01*
X6837480Y-8832020D02*
X6939480Y-8832020D01*
X6837480Y-9035020D02*
X6939480Y-9137020D01*
X6939480Y-9035020D02*
X6837480Y-9137020D01*
X6888480Y-9035020D02*
X6888480Y-9137020D01*
X6837480Y-9086020D02*
X6939480Y-9086020D01*
X6837480Y-9289020D02*
X6939480Y-9391020D01*
X6939480Y-9289020D02*
X6837480Y-9391020D01*
X6888480Y-9289020D02*
X6888480Y-9391020D01*
X6837480Y-9340020D02*
X6939480Y-9340020D01*
X6837480Y-9543020D02*
X6939480Y-9645020D01*
X6939480Y-9543020D02*
X6837480Y-9645020D01*
X6888480Y-9543020D02*
X6888480Y-9645020D01*
X6837480Y-9594020D02*
X6939480Y-9594020D01*
X6837480Y-9797020D02*
X6939480Y-9899020D01*
X6939480Y-9797020D02*
X6837480Y-9899020D01*
X6888480Y-9797020D02*
X6888480Y-9899020D01*
X6837480Y-9848020D02*
X6939480Y-9848020D01*
X6837480Y-10051020D02*
X6939480Y-10153020D01*
X6939480Y-10051020D02*
X6837480Y-10153020D01*
X6888480Y-10051020D02*
X6888480Y-10153020D01*
X6837480Y-10102020D02*
X6939480Y-10102020D01*
X6837480Y-10305020D02*
X6939480Y-10407020D01*
X6939480Y-10305020D02*
X6837480Y-10407020D01*
X6888480Y-10305020D02*
X6888480Y-10407020D01*
X6837480Y-10356020D02*
X6939480Y-10356020D01*
X6837480Y-10559020D02*
X6939480Y-10661020D01*
X6939480Y-10559020D02*
X6837480Y-10661020D01*
X6888480Y-10559020D02*
X6888480Y-10661020D01*
X6837480Y-10610020D02*
X6939480Y-10610020D01*
X6837480Y-10813020D02*
X6939480Y-10915020D01*
X6939480Y-10813020D02*
X6837480Y-10915020D01*
X6888480Y-10813020D02*
X6888480Y-10915020D01*
X6837480Y-10864020D02*
X6939480Y-10864020D01*
X6837480Y-11067020D02*
X6939480Y-11169020D01*
X6939480Y-11067020D02*
X6837480Y-11169020D01*
X6888480Y-11067020D02*
X6888480Y-11169020D01*
X6837480Y-11118020D02*
X6939480Y-11118020D01*
X7533054Y-12219300D02*
X7635054Y-12321300D01*
X7635054Y-12219300D02*
X7533054Y-12321300D01*
X7584054Y-12219300D02*
X7584054Y-12321300D01*
X7533054Y-12270300D02*
X7635054Y-12270300D01*
X7533054Y-16169000D02*
X7635054Y-16271000D01*
X7635054Y-16169000D02*
X7533054Y-16271000D01*
X7584054Y-16169000D02*
X7584054Y-16271000D01*
X7533054Y-16220000D02*
X7635054Y-16220000D01*
X9247554Y-12219300D02*
X9349554Y-12321300D01*
X9349554Y-12219300D02*
X9247554Y-12321300D01*
X9298554Y-12219300D02*
X9298554Y-12321300D01*
X9247554Y-12270300D02*
X9349554Y-12270300D01*
X9247554Y-16169000D02*
X9349554Y-16271000D01*
X9349554Y-16169000D02*
X9247554Y-16271000D01*
X9298554Y-16169000D02*
X9298554Y-16271000D01*
X9247554Y-16220000D02*
X9349554Y-16220000D01*
X9377480Y-7511020D02*
X9479480Y-7613020D01*
X9479480Y-7511020D02*
X9377480Y-7613020D01*
X9428480Y-7511020D02*
X9428480Y-7613020D01*
X9377480Y-7562020D02*
X9479480Y-7562020D01*
X9377480Y-7765020D02*
X9479480Y-7867020D01*
X9479480Y-7765020D02*
X9377480Y-7867020D01*
X9428480Y-7765020D02*
X9428480Y-7867020D01*
X9377480Y-7816020D02*
X9479480Y-7816020D01*
X9377480Y-8019020D02*
X9479480Y-8121020D01*
X9479480Y-8019020D02*
X9377480Y-8121020D01*
X9428480Y-8019020D02*
X9428480Y-8121020D01*
X9377480Y-8070020D02*
X9479480Y-8070020D01*
X9377480Y-8273020D02*
X9479480Y-8375020D01*
X9479480Y-8273020D02*
X9377480Y-8375020D01*
X9428480Y-8273020D02*
X9428480Y-8375020D01*
X9377480Y-8324020D02*
X9479480Y-8324020D01*
X9377480Y-8527020D02*
X9479480Y-8629020D01*
X9479480Y-8527020D02*
X9377480Y-8629020D01*
X9428480Y-8527020D02*
X9428480Y-8629020D01*
X9377480Y-8578020D02*
X9479480Y-8578020D01*
X9377480Y-8781020D02*
X9479480Y-8883020D01*
X9479480Y-8781020D02*
X9377480Y-8883020D01*
X9428480Y-8781020D02*
X9428480Y-8883020D01*
X9377480Y-8832020D02*
X9479480Y-8832020D01*
X9377480Y-9035020D02*
X9479480Y-9137020D01*
X9479480Y-9035020D02*
X9377480Y-9137020D01*
X9428480Y-9035020D02*
X9428480Y-9137020D01*
X9377480Y-9086020D02*
X9479480Y-9086020D01*
X9377480Y-9289020D02*
X9479480Y-9391020D01*
X9479480Y-9289020D02*
X9377480Y-9391020D01*
X9428480Y-9289020D02*
X9428480Y-9391020D01*
X9377480Y-9340020D02*
X9479480Y-9340020D01*
X9377480Y-9543020D02*
X9479480Y-9645020D01*
X9479480Y-9543020D02*
X9377480Y-9645020D01*
X9428480Y-9543020D02*
X9428480Y-9645020D01*
X9377480Y-9594020D02*
X9479480Y-9594020D01*
X9377480Y-9797020D02*
X9479480Y-9899020D01*
X9479480Y-9797020D02*
X9377480Y-9899020D01*
X9428480Y-9797020D02*
X9428480Y-9899020D01*
X9377480Y-9848020D02*
X9479480Y-9848020D01*
X9377480Y-10051020D02*
X9479480Y-10153020D01*
X9479480Y-10051020D02*
X9377480Y-10153020D01*
X9428480Y-10051020D02*
X9428480Y-10153020D01*
X9377480Y-10102020D02*
X9479480Y-10102020D01*
X9377480Y-10305020D02*
X9479480Y-10407020D01*
X9479480Y-10305020D02*
X9377480Y-10407020D01*
X9428480Y-10305020D02*
X9428480Y-10407020D01*
X9377480Y-10356020D02*
X9479480Y-10356020D01*
X9377480Y-10559020D02*
X9479480Y-10661020D01*
X9479480Y-10559020D02*
X9377480Y-10661020D01*
X9428480Y-10559020D02*
X9428480Y-10661020D01*
X9377480Y-10610020D02*
X9479480Y-10610020D01*
X9377480Y-10813020D02*
X9479480Y-10915020D01*
X9479480Y-10813020D02*
X9377480Y-10915020D01*
X9428480Y-10813020D02*
X9428480Y-10915020D01*
X9377480Y-10864020D02*
X9479480Y-10864020D01*
X9377480Y-11067020D02*
X9479480Y-11169020D01*
X9479480Y-11067020D02*
X9377480Y-11169020D01*
X9428480Y-11067020D02*
X9428480Y-11169020D01*
X9377480Y-11118020D02*
X9479480Y-11118020D01*
D16*
X4619000Y-16602000D02*
X4729000Y-16712000D01*
X4729000Y-16602000D02*
X4619000Y-16712000D01*
X4712891Y-16695891D02*
X4712891Y-16618109D01*
X4635109Y-16618109D01*
X4635109Y-16695891D01*
X4712891Y-16695891D01*
X4619000Y-17252000D02*
X4729000Y-17362000D01*
X4729000Y-17252000D02*
X4619000Y-17362000D01*
X4712891Y-17345891D02*
X4712891Y-17268109D01*
X4635109Y-17268109D01*
X4635109Y-17345891D01*
X4712891Y-17345891D01*
X5069000Y-16602000D02*
X5179000Y-16712000D01*
X5179000Y-16602000D02*
X5069000Y-16712000D01*
X5162891Y-16695891D02*
X5162891Y-16618109D01*
X5085109Y-16618109D01*
X5085109Y-16695891D01*
X5162891Y-16695891D01*
X5069000Y-17252000D02*
X5179000Y-17362000D01*
X5179000Y-17252000D02*
X5069000Y-17362000D01*
X5162891Y-17345891D02*
X5162891Y-17268109D01*
X5085109Y-17268109D01*
X5085109Y-17345891D01*
X5162891Y-17345891D01*
D10*
X4368777Y-18571484D02*
X4368777Y-18371484D01*
X4368777Y-18371484D02*
X4416396Y-18371484D01*
X4416396Y-18371484D02*
X4444967Y-18381008D01*
X4444967Y-18381008D02*
X4464015Y-18400055D01*
X4464015Y-18400055D02*
X4473539Y-18419103D01*
X4473539Y-18419103D02*
X4483063Y-18457198D01*
X4483063Y-18457198D02*
X4483063Y-18485770D01*
X4483063Y-18485770D02*
X4473539Y-18523865D01*
X4473539Y-18523865D02*
X4464015Y-18542912D01*
X4464015Y-18542912D02*
X4444967Y-18561960D01*
X4444967Y-18561960D02*
X4416396Y-18571484D01*
X4416396Y-18571484D02*
X4368777Y-18571484D01*
X4568777Y-18571484D02*
X4568777Y-18438150D01*
X4568777Y-18476246D02*
X4578301Y-18457198D01*
X4578301Y-18457198D02*
X4587824Y-18447674D01*
X4587824Y-18447674D02*
X4606872Y-18438150D01*
X4606872Y-18438150D02*
X4625920Y-18438150D01*
X4692586Y-18571484D02*
X4692586Y-18438150D01*
X4692586Y-18371484D02*
X4683063Y-18381008D01*
X4683063Y-18381008D02*
X4692586Y-18390531D01*
X4692586Y-18390531D02*
X4702110Y-18381008D01*
X4702110Y-18381008D02*
X4692586Y-18371484D01*
X4692586Y-18371484D02*
X4692586Y-18390531D01*
X4816396Y-18571484D02*
X4797348Y-18561960D01*
X4797348Y-18561960D02*
X4787824Y-18542912D01*
X4787824Y-18542912D02*
X4787824Y-18371484D01*
X4921158Y-18571484D02*
X4902110Y-18561960D01*
X4902110Y-18561960D02*
X4892586Y-18542912D01*
X4892586Y-18542912D02*
X4892586Y-18371484D01*
X5149729Y-18571484D02*
X5149729Y-18371484D01*
X5149729Y-18371484D02*
X5216396Y-18514341D01*
X5216396Y-18514341D02*
X5283063Y-18371484D01*
X5283063Y-18371484D02*
X5283063Y-18571484D01*
X5464015Y-18571484D02*
X5464015Y-18466722D01*
X5464015Y-18466722D02*
X5454491Y-18447674D01*
X5454491Y-18447674D02*
X5435444Y-18438150D01*
X5435444Y-18438150D02*
X5397348Y-18438150D01*
X5397348Y-18438150D02*
X5378301Y-18447674D01*
X5464015Y-18561960D02*
X5444967Y-18571484D01*
X5444967Y-18571484D02*
X5397348Y-18571484D01*
X5397348Y-18571484D02*
X5378301Y-18561960D01*
X5378301Y-18561960D02*
X5368777Y-18542912D01*
X5368777Y-18542912D02*
X5368777Y-18523865D01*
X5368777Y-18523865D02*
X5378301Y-18504817D01*
X5378301Y-18504817D02*
X5397348Y-18495293D01*
X5397348Y-18495293D02*
X5444967Y-18495293D01*
X5444967Y-18495293D02*
X5464015Y-18485770D01*
X5559253Y-18438150D02*
X5559253Y-18638150D01*
X5559253Y-18447674D02*
X5578301Y-18438150D01*
X5578301Y-18438150D02*
X5616396Y-18438150D01*
X5616396Y-18438150D02*
X5635443Y-18447674D01*
X5635443Y-18447674D02*
X5644967Y-18457198D01*
X5644967Y-18457198D02*
X5654491Y-18476246D01*
X5654491Y-18476246D02*
X5654491Y-18533389D01*
X5654491Y-18533389D02*
X5644967Y-18552436D01*
X5644967Y-18552436D02*
X5635443Y-18561960D01*
X5635443Y-18561960D02*
X5616396Y-18571484D01*
X5616396Y-18571484D02*
X5578301Y-18571484D01*
X5578301Y-18571484D02*
X5559253Y-18561960D01*
X5740205Y-18552436D02*
X5749729Y-18561960D01*
X5749729Y-18561960D02*
X5740205Y-18571484D01*
X5740205Y-18571484D02*
X5730682Y-18561960D01*
X5730682Y-18561960D02*
X5740205Y-18552436D01*
X5740205Y-18552436D02*
X5740205Y-18571484D01*
X5740205Y-18447674D02*
X5749729Y-18457198D01*
X5749729Y-18457198D02*
X5740205Y-18466722D01*
X5740205Y-18466722D02*
X5730682Y-18457198D01*
X5730682Y-18457198D02*
X5740205Y-18447674D01*
X5740205Y-18447674D02*
X5740205Y-18466722D01*
D11*
X4058000Y-18875000D02*
X4108000Y-18925000D01*
X4108000Y-18875000D02*
X4058000Y-18925000D01*
D10*
X4406872Y-18791484D02*
X4425920Y-18791484D01*
X4425920Y-18791484D02*
X4444967Y-18801008D01*
X4444967Y-18801008D02*
X4454491Y-18810531D01*
X4454491Y-18810531D02*
X4464015Y-18829579D01*
X4464015Y-18829579D02*
X4473539Y-18867674D01*
X4473539Y-18867674D02*
X4473539Y-18915293D01*
X4473539Y-18915293D02*
X4464015Y-18953389D01*
X4464015Y-18953389D02*
X4454491Y-18972436D01*
X4454491Y-18972436D02*
X4444967Y-18981960D01*
X4444967Y-18981960D02*
X4425920Y-18991484D01*
X4425920Y-18991484D02*
X4406872Y-18991484D01*
X4406872Y-18991484D02*
X4387824Y-18981960D01*
X4387824Y-18981960D02*
X4378301Y-18972436D01*
X4378301Y-18972436D02*
X4368777Y-18953389D01*
X4368777Y-18953389D02*
X4359253Y-18915293D01*
X4359253Y-18915293D02*
X4359253Y-18867674D01*
X4359253Y-18867674D02*
X4368777Y-18829579D01*
X4368777Y-18829579D02*
X4378301Y-18810531D01*
X4378301Y-18810531D02*
X4387824Y-18801008D01*
X4387824Y-18801008D02*
X4406872Y-18791484D01*
X4559253Y-18972436D02*
X4568777Y-18981960D01*
X4568777Y-18981960D02*
X4559253Y-18991484D01*
X4559253Y-18991484D02*
X4549729Y-18981960D01*
X4549729Y-18981960D02*
X4559253Y-18972436D01*
X4559253Y-18972436D02*
X4559253Y-18991484D01*
X4749729Y-18791484D02*
X4654491Y-18791484D01*
X4654491Y-18791484D02*
X4644967Y-18886722D01*
X4644967Y-18886722D02*
X4654491Y-18877198D01*
X4654491Y-18877198D02*
X4673539Y-18867674D01*
X4673539Y-18867674D02*
X4721158Y-18867674D01*
X4721158Y-18867674D02*
X4740205Y-18877198D01*
X4740205Y-18877198D02*
X4749729Y-18886722D01*
X4749729Y-18886722D02*
X4759253Y-18905770D01*
X4759253Y-18905770D02*
X4759253Y-18953389D01*
X4759253Y-18953389D02*
X4749729Y-18972436D01*
X4749729Y-18972436D02*
X4740205Y-18981960D01*
X4740205Y-18981960D02*
X4721158Y-18991484D01*
X4721158Y-18991484D02*
X4673539Y-18991484D01*
X4673539Y-18991484D02*
X4654491Y-18981960D01*
X4654491Y-18981960D02*
X4644967Y-18972436D01*
X4883063Y-18791484D02*
X4902110Y-18791484D01*
X4902110Y-18791484D02*
X4921158Y-18801008D01*
X4921158Y-18801008D02*
X4930682Y-18810531D01*
X4930682Y-18810531D02*
X4940205Y-18829579D01*
X4940205Y-18829579D02*
X4949729Y-18867674D01*
X4949729Y-18867674D02*
X4949729Y-18915293D01*
X4949729Y-18915293D02*
X4940205Y-18953389D01*
X4940205Y-18953389D02*
X4930682Y-18972436D01*
X4930682Y-18972436D02*
X4921158Y-18981960D01*
X4921158Y-18981960D02*
X4902110Y-18991484D01*
X4902110Y-18991484D02*
X4883063Y-18991484D01*
X4883063Y-18991484D02*
X4864015Y-18981960D01*
X4864015Y-18981960D02*
X4854491Y-18972436D01*
X4854491Y-18972436D02*
X4844967Y-18953389D01*
X4844967Y-18953389D02*
X4835444Y-18915293D01*
X4835444Y-18915293D02*
X4835444Y-18867674D01*
X4835444Y-18867674D02*
X4844967Y-18829579D01*
X4844967Y-18829579D02*
X4854491Y-18810531D01*
X4854491Y-18810531D02*
X4864015Y-18801008D01*
X4864015Y-18801008D02*
X4883063Y-18791484D01*
X5073539Y-18791484D02*
X5092586Y-18791484D01*
X5092586Y-18791484D02*
X5111634Y-18801008D01*
X5111634Y-18801008D02*
X5121158Y-18810531D01*
X5121158Y-18810531D02*
X5130682Y-18829579D01*
X5130682Y-18829579D02*
X5140205Y-18867674D01*
X5140205Y-18867674D02*
X5140205Y-18915293D01*
X5140205Y-18915293D02*
X5130682Y-18953389D01*
X5130682Y-18953389D02*
X5121158Y-18972436D01*
X5121158Y-18972436D02*
X5111634Y-18981960D01*
X5111634Y-18981960D02*
X5092586Y-18991484D01*
X5092586Y-18991484D02*
X5073539Y-18991484D01*
X5073539Y-18991484D02*
X5054491Y-18981960D01*
X5054491Y-18981960D02*
X5044967Y-18972436D01*
X5044967Y-18972436D02*
X5035444Y-18953389D01*
X5035444Y-18953389D02*
X5025920Y-18915293D01*
X5025920Y-18915293D02*
X5025920Y-18867674D01*
X5025920Y-18867674D02*
X5035444Y-18829579D01*
X5035444Y-18829579D02*
X5044967Y-18810531D01*
X5044967Y-18810531D02*
X5054491Y-18801008D01*
X5054491Y-18801008D02*
X5073539Y-18791484D01*
X5225920Y-18991484D02*
X5225920Y-18858150D01*
X5225920Y-18877198D02*
X5235444Y-18867674D01*
X5235444Y-18867674D02*
X5254491Y-18858150D01*
X5254491Y-18858150D02*
X5283063Y-18858150D01*
X5283063Y-18858150D02*
X5302110Y-18867674D01*
X5302110Y-18867674D02*
X5311634Y-18886722D01*
X5311634Y-18886722D02*
X5311634Y-18991484D01*
X5311634Y-18886722D02*
X5321158Y-18867674D01*
X5321158Y-18867674D02*
X5340205Y-18858150D01*
X5340205Y-18858150D02*
X5368777Y-18858150D01*
X5368777Y-18858150D02*
X5387825Y-18867674D01*
X5387825Y-18867674D02*
X5397348Y-18886722D01*
X5397348Y-18886722D02*
X5397348Y-18991484D01*
X5492586Y-18991484D02*
X5492586Y-18858150D01*
X5492586Y-18877198D02*
X5502110Y-18867674D01*
X5502110Y-18867674D02*
X5521158Y-18858150D01*
X5521158Y-18858150D02*
X5549729Y-18858150D01*
X5549729Y-18858150D02*
X5568777Y-18867674D01*
X5568777Y-18867674D02*
X5578301Y-18886722D01*
X5578301Y-18886722D02*
X5578301Y-18991484D01*
X5578301Y-18886722D02*
X5587825Y-18867674D01*
X5587825Y-18867674D02*
X5606872Y-18858150D01*
X5606872Y-18858150D02*
X5635443Y-18858150D01*
X5635443Y-18858150D02*
X5654491Y-18867674D01*
X5654491Y-18867674D02*
X5664015Y-18886722D01*
X5664015Y-18886722D02*
X5664015Y-18991484D01*
X6054491Y-18781960D02*
X5883063Y-19039103D01*
X6311634Y-18791484D02*
X6330682Y-18791484D01*
X6330682Y-18791484D02*
X6349729Y-18801008D01*
X6349729Y-18801008D02*
X6359253Y-18810531D01*
X6359253Y-18810531D02*
X6368777Y-18829579D01*
X6368777Y-18829579D02*
X6378301Y-18867674D01*
X6378301Y-18867674D02*
X6378301Y-18915293D01*
X6378301Y-18915293D02*
X6368777Y-18953389D01*
X6368777Y-18953389D02*
X6359253Y-18972436D01*
X6359253Y-18972436D02*
X6349729Y-18981960D01*
X6349729Y-18981960D02*
X6330682Y-18991484D01*
X6330682Y-18991484D02*
X6311634Y-18991484D01*
X6311634Y-18991484D02*
X6292586Y-18981960D01*
X6292586Y-18981960D02*
X6283063Y-18972436D01*
X6283063Y-18972436D02*
X6273539Y-18953389D01*
X6273539Y-18953389D02*
X6264015Y-18915293D01*
X6264015Y-18915293D02*
X6264015Y-18867674D01*
X6264015Y-18867674D02*
X6273539Y-18829579D01*
X6273539Y-18829579D02*
X6283063Y-18810531D01*
X6283063Y-18810531D02*
X6292586Y-18801008D01*
X6292586Y-18801008D02*
X6311634Y-18791484D01*
X6464015Y-18972436D02*
X6473539Y-18981960D01*
X6473539Y-18981960D02*
X6464015Y-18991484D01*
X6464015Y-18991484D02*
X6454491Y-18981960D01*
X6454491Y-18981960D02*
X6464015Y-18972436D01*
X6464015Y-18972436D02*
X6464015Y-18991484D01*
X6597348Y-18791484D02*
X6616396Y-18791484D01*
X6616396Y-18791484D02*
X6635444Y-18801008D01*
X6635444Y-18801008D02*
X6644967Y-18810531D01*
X6644967Y-18810531D02*
X6654491Y-18829579D01*
X6654491Y-18829579D02*
X6664015Y-18867674D01*
X6664015Y-18867674D02*
X6664015Y-18915293D01*
X6664015Y-18915293D02*
X6654491Y-18953389D01*
X6654491Y-18953389D02*
X6644967Y-18972436D01*
X6644967Y-18972436D02*
X6635444Y-18981960D01*
X6635444Y-18981960D02*
X6616396Y-18991484D01*
X6616396Y-18991484D02*
X6597348Y-18991484D01*
X6597348Y-18991484D02*
X6578301Y-18981960D01*
X6578301Y-18981960D02*
X6568777Y-18972436D01*
X6568777Y-18972436D02*
X6559253Y-18953389D01*
X6559253Y-18953389D02*
X6549729Y-18915293D01*
X6549729Y-18915293D02*
X6549729Y-18867674D01*
X6549729Y-18867674D02*
X6559253Y-18829579D01*
X6559253Y-18829579D02*
X6568777Y-18810531D01*
X6568777Y-18810531D02*
X6578301Y-18801008D01*
X6578301Y-18801008D02*
X6597348Y-18791484D01*
X6854491Y-18991484D02*
X6740206Y-18991484D01*
X6797348Y-18991484D02*
X6797348Y-18791484D01*
X6797348Y-18791484D02*
X6778301Y-18820055D01*
X6778301Y-18820055D02*
X6759253Y-18839103D01*
X6759253Y-18839103D02*
X6740206Y-18848627D01*
X6949729Y-18991484D02*
X6987825Y-18991484D01*
X6987825Y-18991484D02*
X7006872Y-18981960D01*
X7006872Y-18981960D02*
X7016396Y-18972436D01*
X7016396Y-18972436D02*
X7035444Y-18943865D01*
X7035444Y-18943865D02*
X7044967Y-18905770D01*
X7044967Y-18905770D02*
X7044967Y-18829579D01*
X7044967Y-18829579D02*
X7035444Y-18810531D01*
X7035444Y-18810531D02*
X7025920Y-18801008D01*
X7025920Y-18801008D02*
X7006872Y-18791484D01*
X7006872Y-18791484D02*
X6968777Y-18791484D01*
X6968777Y-18791484D02*
X6949729Y-18801008D01*
X6949729Y-18801008D02*
X6940206Y-18810531D01*
X6940206Y-18810531D02*
X6930682Y-18829579D01*
X6930682Y-18829579D02*
X6930682Y-18877198D01*
X6930682Y-18877198D02*
X6940206Y-18896246D01*
X6940206Y-18896246D02*
X6949729Y-18905770D01*
X6949729Y-18905770D02*
X6968777Y-18915293D01*
X6968777Y-18915293D02*
X7006872Y-18915293D01*
X7006872Y-18915293D02*
X7025920Y-18905770D01*
X7025920Y-18905770D02*
X7035444Y-18896246D01*
X7035444Y-18896246D02*
X7044967Y-18877198D01*
X7111634Y-18791484D02*
X7244967Y-18791484D01*
X7244967Y-18791484D02*
X7159253Y-18991484D01*
X7311634Y-18791484D02*
X7311634Y-18829579D01*
X7387825Y-18791484D02*
X7387825Y-18829579D01*
X7683063Y-19067674D02*
X7673539Y-19058150D01*
X7673539Y-19058150D02*
X7654491Y-19029579D01*
X7654491Y-19029579D02*
X7644968Y-19010531D01*
X7644968Y-19010531D02*
X7635444Y-18981960D01*
X7635444Y-18981960D02*
X7625920Y-18934341D01*
X7625920Y-18934341D02*
X7625920Y-18896246D01*
X7625920Y-18896246D02*
X7635444Y-18848627D01*
X7635444Y-18848627D02*
X7644968Y-18820055D01*
X7644968Y-18820055D02*
X7654491Y-18801008D01*
X7654491Y-18801008D02*
X7673539Y-18772436D01*
X7673539Y-18772436D02*
X7683063Y-18762912D01*
X7797348Y-18791484D02*
X7816396Y-18791484D01*
X7816396Y-18791484D02*
X7835444Y-18801008D01*
X7835444Y-18801008D02*
X7844968Y-18810531D01*
X7844968Y-18810531D02*
X7854491Y-18829579D01*
X7854491Y-18829579D02*
X7864015Y-18867674D01*
X7864015Y-18867674D02*
X7864015Y-18915293D01*
X7864015Y-18915293D02*
X7854491Y-18953389D01*
X7854491Y-18953389D02*
X7844968Y-18972436D01*
X7844968Y-18972436D02*
X7835444Y-18981960D01*
X7835444Y-18981960D02*
X7816396Y-18991484D01*
X7816396Y-18991484D02*
X7797348Y-18991484D01*
X7797348Y-18991484D02*
X7778301Y-18981960D01*
X7778301Y-18981960D02*
X7768777Y-18972436D01*
X7768777Y-18972436D02*
X7759253Y-18953389D01*
X7759253Y-18953389D02*
X7749729Y-18915293D01*
X7749729Y-18915293D02*
X7749729Y-18867674D01*
X7749729Y-18867674D02*
X7759253Y-18829579D01*
X7759253Y-18829579D02*
X7768777Y-18810531D01*
X7768777Y-18810531D02*
X7778301Y-18801008D01*
X7778301Y-18801008D02*
X7797348Y-18791484D01*
X8102110Y-18991484D02*
X8102110Y-18791484D01*
X8187825Y-18991484D02*
X8187825Y-18886722D01*
X8187825Y-18886722D02*
X8178301Y-18867674D01*
X8178301Y-18867674D02*
X8159253Y-18858150D01*
X8159253Y-18858150D02*
X8130682Y-18858150D01*
X8130682Y-18858150D02*
X8111634Y-18867674D01*
X8111634Y-18867674D02*
X8102110Y-18877198D01*
X8311634Y-18991484D02*
X8292587Y-18981960D01*
X8292587Y-18981960D02*
X8283063Y-18972436D01*
X8283063Y-18972436D02*
X8273539Y-18953389D01*
X8273539Y-18953389D02*
X8273539Y-18896246D01*
X8273539Y-18896246D02*
X8283063Y-18877198D01*
X8283063Y-18877198D02*
X8292587Y-18867674D01*
X8292587Y-18867674D02*
X8311634Y-18858150D01*
X8311634Y-18858150D02*
X8340206Y-18858150D01*
X8340206Y-18858150D02*
X8359253Y-18867674D01*
X8359253Y-18867674D02*
X8368777Y-18877198D01*
X8368777Y-18877198D02*
X8378301Y-18896246D01*
X8378301Y-18896246D02*
X8378301Y-18953389D01*
X8378301Y-18953389D02*
X8368777Y-18972436D01*
X8368777Y-18972436D02*
X8359253Y-18981960D01*
X8359253Y-18981960D02*
X8340206Y-18991484D01*
X8340206Y-18991484D02*
X8311634Y-18991484D01*
X8492587Y-18991484D02*
X8473539Y-18981960D01*
X8473539Y-18981960D02*
X8464015Y-18962912D01*
X8464015Y-18962912D02*
X8464015Y-18791484D01*
X8644968Y-18981960D02*
X8625920Y-18991484D01*
X8625920Y-18991484D02*
X8587825Y-18991484D01*
X8587825Y-18991484D02*
X8568777Y-18981960D01*
X8568777Y-18981960D02*
X8559253Y-18962912D01*
X8559253Y-18962912D02*
X8559253Y-18886722D01*
X8559253Y-18886722D02*
X8568777Y-18867674D01*
X8568777Y-18867674D02*
X8587825Y-18858150D01*
X8587825Y-18858150D02*
X8625920Y-18858150D01*
X8625920Y-18858150D02*
X8644968Y-18867674D01*
X8644968Y-18867674D02*
X8654492Y-18886722D01*
X8654492Y-18886722D02*
X8654492Y-18905770D01*
X8654492Y-18905770D02*
X8559253Y-18924817D01*
X8730682Y-18981960D02*
X8749730Y-18991484D01*
X8749730Y-18991484D02*
X8787825Y-18991484D01*
X8787825Y-18991484D02*
X8806873Y-18981960D01*
X8806873Y-18981960D02*
X8816396Y-18962912D01*
X8816396Y-18962912D02*
X8816396Y-18953389D01*
X8816396Y-18953389D02*
X8806873Y-18934341D01*
X8806873Y-18934341D02*
X8787825Y-18924817D01*
X8787825Y-18924817D02*
X8759253Y-18924817D01*
X8759253Y-18924817D02*
X8740206Y-18915293D01*
X8740206Y-18915293D02*
X8730682Y-18896246D01*
X8730682Y-18896246D02*
X8730682Y-18886722D01*
X8730682Y-18886722D02*
X8740206Y-18867674D01*
X8740206Y-18867674D02*
X8759253Y-18858150D01*
X8759253Y-18858150D02*
X8787825Y-18858150D01*
X8787825Y-18858150D02*
X8806873Y-18867674D01*
X9054492Y-18915293D02*
X9206873Y-18915293D01*
X9130682Y-18991484D02*
X9130682Y-18839103D01*
X9444968Y-18810531D02*
X9454492Y-18801008D01*
X9454492Y-18801008D02*
X9473539Y-18791484D01*
X9473539Y-18791484D02*
X9521158Y-18791484D01*
X9521158Y-18791484D02*
X9540206Y-18801008D01*
X9540206Y-18801008D02*
X9549730Y-18810531D01*
X9549730Y-18810531D02*
X9559254Y-18829579D01*
X9559254Y-18829579D02*
X9559254Y-18848627D01*
X9559254Y-18848627D02*
X9549730Y-18877198D01*
X9549730Y-18877198D02*
X9435444Y-18991484D01*
X9435444Y-18991484D02*
X9559254Y-18991484D01*
X9787825Y-18981960D02*
X9806873Y-18991484D01*
X9806873Y-18991484D02*
X9844968Y-18991484D01*
X9844968Y-18991484D02*
X9864016Y-18981960D01*
X9864016Y-18981960D02*
X9873539Y-18962912D01*
X9873539Y-18962912D02*
X9873539Y-18953389D01*
X9873539Y-18953389D02*
X9864016Y-18934341D01*
X9864016Y-18934341D02*
X9844968Y-18924817D01*
X9844968Y-18924817D02*
X9816396Y-18924817D01*
X9816396Y-18924817D02*
X9797349Y-18915293D01*
X9797349Y-18915293D02*
X9787825Y-18896246D01*
X9787825Y-18896246D02*
X9787825Y-18886722D01*
X9787825Y-18886722D02*
X9797349Y-18867674D01*
X9797349Y-18867674D02*
X9816396Y-18858150D01*
X9816396Y-18858150D02*
X9844968Y-18858150D01*
X9844968Y-18858150D02*
X9864016Y-18867674D01*
X9987825Y-18991484D02*
X9968777Y-18981960D01*
X9968777Y-18981960D02*
X9959254Y-18962912D01*
X9959254Y-18962912D02*
X9959254Y-18791484D01*
X10092587Y-18991484D02*
X10073539Y-18981960D01*
X10073539Y-18981960D02*
X10064016Y-18972436D01*
X10064016Y-18972436D02*
X10054492Y-18953389D01*
X10054492Y-18953389D02*
X10054492Y-18896246D01*
X10054492Y-18896246D02*
X10064016Y-18877198D01*
X10064016Y-18877198D02*
X10073539Y-18867674D01*
X10073539Y-18867674D02*
X10092587Y-18858150D01*
X10092587Y-18858150D02*
X10121158Y-18858150D01*
X10121158Y-18858150D02*
X10140206Y-18867674D01*
X10140206Y-18867674D02*
X10149730Y-18877198D01*
X10149730Y-18877198D02*
X10159254Y-18896246D01*
X10159254Y-18896246D02*
X10159254Y-18953389D01*
X10159254Y-18953389D02*
X10149730Y-18972436D01*
X10149730Y-18972436D02*
X10140206Y-18981960D01*
X10140206Y-18981960D02*
X10121158Y-18991484D01*
X10121158Y-18991484D02*
X10092587Y-18991484D01*
X10216397Y-18858150D02*
X10292587Y-18858150D01*
X10244968Y-18791484D02*
X10244968Y-18962912D01*
X10244968Y-18962912D02*
X10254492Y-18981960D01*
X10254492Y-18981960D02*
X10273539Y-18991484D01*
X10273539Y-18991484D02*
X10292587Y-18991484D01*
X10349730Y-18981960D02*
X10368777Y-18991484D01*
X10368777Y-18991484D02*
X10406873Y-18991484D01*
X10406873Y-18991484D02*
X10425920Y-18981960D01*
X10425920Y-18981960D02*
X10435444Y-18962912D01*
X10435444Y-18962912D02*
X10435444Y-18953389D01*
X10435444Y-18953389D02*
X10425920Y-18934341D01*
X10425920Y-18934341D02*
X10406873Y-18924817D01*
X10406873Y-18924817D02*
X10378301Y-18924817D01*
X10378301Y-18924817D02*
X10359254Y-18915293D01*
X10359254Y-18915293D02*
X10349730Y-18896246D01*
X10349730Y-18896246D02*
X10349730Y-18886722D01*
X10349730Y-18886722D02*
X10359254Y-18867674D01*
X10359254Y-18867674D02*
X10378301Y-18858150D01*
X10378301Y-18858150D02*
X10406873Y-18858150D01*
X10406873Y-18858150D02*
X10425920Y-18867674D01*
X10502111Y-19067674D02*
X10511635Y-19058150D01*
X10511635Y-19058150D02*
X10530682Y-19029579D01*
X10530682Y-19029579D02*
X10540206Y-19010531D01*
X10540206Y-19010531D02*
X10549730Y-18981960D01*
X10549730Y-18981960D02*
X10559254Y-18934341D01*
X10559254Y-18934341D02*
X10559254Y-18896246D01*
X10559254Y-18896246D02*
X10549730Y-18848627D01*
X10549730Y-18848627D02*
X10540206Y-18820055D01*
X10540206Y-18820055D02*
X10530682Y-18801008D01*
X10530682Y-18801008D02*
X10511635Y-18772436D01*
X10511635Y-18772436D02*
X10502111Y-18762912D01*
D12*
X4108000Y-19164000D02*
G75*
G03*
X4108000Y-19164000I-35000J0D01*
G01*
D10*
X4406872Y-19055484D02*
X4425920Y-19055484D01*
X4425920Y-19055484D02*
X4444967Y-19065008D01*
X4444967Y-19065008D02*
X4454491Y-19074531D01*
X4454491Y-19074531D02*
X4464015Y-19093579D01*
X4464015Y-19093579D02*
X4473539Y-19131674D01*
X4473539Y-19131674D02*
X4473539Y-19179293D01*
X4473539Y-19179293D02*
X4464015Y-19217389D01*
X4464015Y-19217389D02*
X4454491Y-19236436D01*
X4454491Y-19236436D02*
X4444967Y-19245960D01*
X4444967Y-19245960D02*
X4425920Y-19255484D01*
X4425920Y-19255484D02*
X4406872Y-19255484D01*
X4406872Y-19255484D02*
X4387824Y-19245960D01*
X4387824Y-19245960D02*
X4378301Y-19236436D01*
X4378301Y-19236436D02*
X4368777Y-19217389D01*
X4368777Y-19217389D02*
X4359253Y-19179293D01*
X4359253Y-19179293D02*
X4359253Y-19131674D01*
X4359253Y-19131674D02*
X4368777Y-19093579D01*
X4368777Y-19093579D02*
X4378301Y-19074531D01*
X4378301Y-19074531D02*
X4387824Y-19065008D01*
X4387824Y-19065008D02*
X4406872Y-19055484D01*
X4559253Y-19236436D02*
X4568777Y-19245960D01*
X4568777Y-19245960D02*
X4559253Y-19255484D01*
X4559253Y-19255484D02*
X4549729Y-19245960D01*
X4549729Y-19245960D02*
X4559253Y-19236436D01*
X4559253Y-19236436D02*
X4559253Y-19255484D01*
X4635444Y-19055484D02*
X4768777Y-19055484D01*
X4768777Y-19055484D02*
X4683063Y-19255484D01*
X4883063Y-19055484D02*
X4902110Y-19055484D01*
X4902110Y-19055484D02*
X4921158Y-19065008D01*
X4921158Y-19065008D02*
X4930682Y-19074531D01*
X4930682Y-19074531D02*
X4940205Y-19093579D01*
X4940205Y-19093579D02*
X4949729Y-19131674D01*
X4949729Y-19131674D02*
X4949729Y-19179293D01*
X4949729Y-19179293D02*
X4940205Y-19217389D01*
X4940205Y-19217389D02*
X4930682Y-19236436D01*
X4930682Y-19236436D02*
X4921158Y-19245960D01*
X4921158Y-19245960D02*
X4902110Y-19255484D01*
X4902110Y-19255484D02*
X4883063Y-19255484D01*
X4883063Y-19255484D02*
X4864015Y-19245960D01*
X4864015Y-19245960D02*
X4854491Y-19236436D01*
X4854491Y-19236436D02*
X4844967Y-19217389D01*
X4844967Y-19217389D02*
X4835444Y-19179293D01*
X4835444Y-19179293D02*
X4835444Y-19131674D01*
X4835444Y-19131674D02*
X4844967Y-19093579D01*
X4844967Y-19093579D02*
X4854491Y-19074531D01*
X4854491Y-19074531D02*
X4864015Y-19065008D01*
X4864015Y-19065008D02*
X4883063Y-19055484D01*
X5073539Y-19055484D02*
X5092586Y-19055484D01*
X5092586Y-19055484D02*
X5111634Y-19065008D01*
X5111634Y-19065008D02*
X5121158Y-19074531D01*
X5121158Y-19074531D02*
X5130682Y-19093579D01*
X5130682Y-19093579D02*
X5140205Y-19131674D01*
X5140205Y-19131674D02*
X5140205Y-19179293D01*
X5140205Y-19179293D02*
X5130682Y-19217389D01*
X5130682Y-19217389D02*
X5121158Y-19236436D01*
X5121158Y-19236436D02*
X5111634Y-19245960D01*
X5111634Y-19245960D02*
X5092586Y-19255484D01*
X5092586Y-19255484D02*
X5073539Y-19255484D01*
X5073539Y-19255484D02*
X5054491Y-19245960D01*
X5054491Y-19245960D02*
X5044967Y-19236436D01*
X5044967Y-19236436D02*
X5035444Y-19217389D01*
X5035444Y-19217389D02*
X5025920Y-19179293D01*
X5025920Y-19179293D02*
X5025920Y-19131674D01*
X5025920Y-19131674D02*
X5035444Y-19093579D01*
X5035444Y-19093579D02*
X5044967Y-19074531D01*
X5044967Y-19074531D02*
X5054491Y-19065008D01*
X5054491Y-19065008D02*
X5073539Y-19055484D01*
X5225920Y-19255484D02*
X5225920Y-19122150D01*
X5225920Y-19141198D02*
X5235444Y-19131674D01*
X5235444Y-19131674D02*
X5254491Y-19122150D01*
X5254491Y-19122150D02*
X5283063Y-19122150D01*
X5283063Y-19122150D02*
X5302110Y-19131674D01*
X5302110Y-19131674D02*
X5311634Y-19150722D01*
X5311634Y-19150722D02*
X5311634Y-19255484D01*
X5311634Y-19150722D02*
X5321158Y-19131674D01*
X5321158Y-19131674D02*
X5340205Y-19122150D01*
X5340205Y-19122150D02*
X5368777Y-19122150D01*
X5368777Y-19122150D02*
X5387825Y-19131674D01*
X5387825Y-19131674D02*
X5397348Y-19150722D01*
X5397348Y-19150722D02*
X5397348Y-19255484D01*
X5492586Y-19255484D02*
X5492586Y-19122150D01*
X5492586Y-19141198D02*
X5502110Y-19131674D01*
X5502110Y-19131674D02*
X5521158Y-19122150D01*
X5521158Y-19122150D02*
X5549729Y-19122150D01*
X5549729Y-19122150D02*
X5568777Y-19131674D01*
X5568777Y-19131674D02*
X5578301Y-19150722D01*
X5578301Y-19150722D02*
X5578301Y-19255484D01*
X5578301Y-19150722D02*
X5587825Y-19131674D01*
X5587825Y-19131674D02*
X5606872Y-19122150D01*
X5606872Y-19122150D02*
X5635443Y-19122150D01*
X5635443Y-19122150D02*
X5654491Y-19131674D01*
X5654491Y-19131674D02*
X5664015Y-19150722D01*
X5664015Y-19150722D02*
X5664015Y-19255484D01*
X6054491Y-19045960D02*
X5883063Y-19303103D01*
X6311634Y-19055484D02*
X6330682Y-19055484D01*
X6330682Y-19055484D02*
X6349729Y-19065008D01*
X6349729Y-19065008D02*
X6359253Y-19074531D01*
X6359253Y-19074531D02*
X6368777Y-19093579D01*
X6368777Y-19093579D02*
X6378301Y-19131674D01*
X6378301Y-19131674D02*
X6378301Y-19179293D01*
X6378301Y-19179293D02*
X6368777Y-19217389D01*
X6368777Y-19217389D02*
X6359253Y-19236436D01*
X6359253Y-19236436D02*
X6349729Y-19245960D01*
X6349729Y-19245960D02*
X6330682Y-19255484D01*
X6330682Y-19255484D02*
X6311634Y-19255484D01*
X6311634Y-19255484D02*
X6292586Y-19245960D01*
X6292586Y-19245960D02*
X6283063Y-19236436D01*
X6283063Y-19236436D02*
X6273539Y-19217389D01*
X6273539Y-19217389D02*
X6264015Y-19179293D01*
X6264015Y-19179293D02*
X6264015Y-19131674D01*
X6264015Y-19131674D02*
X6273539Y-19093579D01*
X6273539Y-19093579D02*
X6283063Y-19074531D01*
X6283063Y-19074531D02*
X6292586Y-19065008D01*
X6292586Y-19065008D02*
X6311634Y-19055484D01*
X6464015Y-19236436D02*
X6473539Y-19245960D01*
X6473539Y-19245960D02*
X6464015Y-19255484D01*
X6464015Y-19255484D02*
X6454491Y-19245960D01*
X6454491Y-19245960D02*
X6464015Y-19236436D01*
X6464015Y-19236436D02*
X6464015Y-19255484D01*
X6597348Y-19055484D02*
X6616396Y-19055484D01*
X6616396Y-19055484D02*
X6635444Y-19065008D01*
X6635444Y-19065008D02*
X6644967Y-19074531D01*
X6644967Y-19074531D02*
X6654491Y-19093579D01*
X6654491Y-19093579D02*
X6664015Y-19131674D01*
X6664015Y-19131674D02*
X6664015Y-19179293D01*
X6664015Y-19179293D02*
X6654491Y-19217389D01*
X6654491Y-19217389D02*
X6644967Y-19236436D01*
X6644967Y-19236436D02*
X6635444Y-19245960D01*
X6635444Y-19245960D02*
X6616396Y-19255484D01*
X6616396Y-19255484D02*
X6597348Y-19255484D01*
X6597348Y-19255484D02*
X6578301Y-19245960D01*
X6578301Y-19245960D02*
X6568777Y-19236436D01*
X6568777Y-19236436D02*
X6559253Y-19217389D01*
X6559253Y-19217389D02*
X6549729Y-19179293D01*
X6549729Y-19179293D02*
X6549729Y-19131674D01*
X6549729Y-19131674D02*
X6559253Y-19093579D01*
X6559253Y-19093579D02*
X6568777Y-19074531D01*
X6568777Y-19074531D02*
X6578301Y-19065008D01*
X6578301Y-19065008D02*
X6597348Y-19055484D01*
X6740206Y-19074531D02*
X6749729Y-19065008D01*
X6749729Y-19065008D02*
X6768777Y-19055484D01*
X6768777Y-19055484D02*
X6816396Y-19055484D01*
X6816396Y-19055484D02*
X6835444Y-19065008D01*
X6835444Y-19065008D02*
X6844967Y-19074531D01*
X6844967Y-19074531D02*
X6854491Y-19093579D01*
X6854491Y-19093579D02*
X6854491Y-19112627D01*
X6854491Y-19112627D02*
X6844967Y-19141198D01*
X6844967Y-19141198D02*
X6730682Y-19255484D01*
X6730682Y-19255484D02*
X6854491Y-19255484D01*
X6921158Y-19055484D02*
X7054491Y-19055484D01*
X7054491Y-19055484D02*
X6968777Y-19255484D01*
X7216396Y-19055484D02*
X7178301Y-19055484D01*
X7178301Y-19055484D02*
X7159253Y-19065008D01*
X7159253Y-19065008D02*
X7149729Y-19074531D01*
X7149729Y-19074531D02*
X7130682Y-19103103D01*
X7130682Y-19103103D02*
X7121158Y-19141198D01*
X7121158Y-19141198D02*
X7121158Y-19217389D01*
X7121158Y-19217389D02*
X7130682Y-19236436D01*
X7130682Y-19236436D02*
X7140206Y-19245960D01*
X7140206Y-19245960D02*
X7159253Y-19255484D01*
X7159253Y-19255484D02*
X7197348Y-19255484D01*
X7197348Y-19255484D02*
X7216396Y-19245960D01*
X7216396Y-19245960D02*
X7225920Y-19236436D01*
X7225920Y-19236436D02*
X7235444Y-19217389D01*
X7235444Y-19217389D02*
X7235444Y-19169770D01*
X7235444Y-19169770D02*
X7225920Y-19150722D01*
X7225920Y-19150722D02*
X7216396Y-19141198D01*
X7216396Y-19141198D02*
X7197348Y-19131674D01*
X7197348Y-19131674D02*
X7159253Y-19131674D01*
X7159253Y-19131674D02*
X7140206Y-19141198D01*
X7140206Y-19141198D02*
X7130682Y-19150722D01*
X7130682Y-19150722D02*
X7121158Y-19169770D01*
X7311634Y-19055484D02*
X7311634Y-19093579D01*
X7387825Y-19055484D02*
X7387825Y-19093579D01*
X7683063Y-19331674D02*
X7673539Y-19322150D01*
X7673539Y-19322150D02*
X7654491Y-19293579D01*
X7654491Y-19293579D02*
X7644968Y-19274531D01*
X7644968Y-19274531D02*
X7635444Y-19245960D01*
X7635444Y-19245960D02*
X7625920Y-19198341D01*
X7625920Y-19198341D02*
X7625920Y-19160246D01*
X7625920Y-19160246D02*
X7635444Y-19112627D01*
X7635444Y-19112627D02*
X7644968Y-19084055D01*
X7644968Y-19084055D02*
X7654491Y-19065008D01*
X7654491Y-19065008D02*
X7673539Y-19036436D01*
X7673539Y-19036436D02*
X7683063Y-19026912D01*
X7844968Y-19122150D02*
X7844968Y-19255484D01*
X7797348Y-19045960D02*
X7749729Y-19188817D01*
X7749729Y-19188817D02*
X7873539Y-19188817D01*
X8102110Y-19255484D02*
X8102110Y-19055484D01*
X8187825Y-19255484D02*
X8187825Y-19150722D01*
X8187825Y-19150722D02*
X8178301Y-19131674D01*
X8178301Y-19131674D02*
X8159253Y-19122150D01*
X8159253Y-19122150D02*
X8130682Y-19122150D01*
X8130682Y-19122150D02*
X8111634Y-19131674D01*
X8111634Y-19131674D02*
X8102110Y-19141198D01*
X8311634Y-19255484D02*
X8292587Y-19245960D01*
X8292587Y-19245960D02*
X8283063Y-19236436D01*
X8283063Y-19236436D02*
X8273539Y-19217389D01*
X8273539Y-19217389D02*
X8273539Y-19160246D01*
X8273539Y-19160246D02*
X8283063Y-19141198D01*
X8283063Y-19141198D02*
X8292587Y-19131674D01*
X8292587Y-19131674D02*
X8311634Y-19122150D01*
X8311634Y-19122150D02*
X8340206Y-19122150D01*
X8340206Y-19122150D02*
X8359253Y-19131674D01*
X8359253Y-19131674D02*
X8368777Y-19141198D01*
X8368777Y-19141198D02*
X8378301Y-19160246D01*
X8378301Y-19160246D02*
X8378301Y-19217389D01*
X8378301Y-19217389D02*
X8368777Y-19236436D01*
X8368777Y-19236436D02*
X8359253Y-19245960D01*
X8359253Y-19245960D02*
X8340206Y-19255484D01*
X8340206Y-19255484D02*
X8311634Y-19255484D01*
X8492587Y-19255484D02*
X8473539Y-19245960D01*
X8473539Y-19245960D02*
X8464015Y-19226912D01*
X8464015Y-19226912D02*
X8464015Y-19055484D01*
X8644968Y-19245960D02*
X8625920Y-19255484D01*
X8625920Y-19255484D02*
X8587825Y-19255484D01*
X8587825Y-19255484D02*
X8568777Y-19245960D01*
X8568777Y-19245960D02*
X8559253Y-19226912D01*
X8559253Y-19226912D02*
X8559253Y-19150722D01*
X8559253Y-19150722D02*
X8568777Y-19131674D01*
X8568777Y-19131674D02*
X8587825Y-19122150D01*
X8587825Y-19122150D02*
X8625920Y-19122150D01*
X8625920Y-19122150D02*
X8644968Y-19131674D01*
X8644968Y-19131674D02*
X8654492Y-19150722D01*
X8654492Y-19150722D02*
X8654492Y-19169770D01*
X8654492Y-19169770D02*
X8559253Y-19188817D01*
X8730682Y-19245960D02*
X8749730Y-19255484D01*
X8749730Y-19255484D02*
X8787825Y-19255484D01*
X8787825Y-19255484D02*
X8806873Y-19245960D01*
X8806873Y-19245960D02*
X8816396Y-19226912D01*
X8816396Y-19226912D02*
X8816396Y-19217389D01*
X8816396Y-19217389D02*
X8806873Y-19198341D01*
X8806873Y-19198341D02*
X8787825Y-19188817D01*
X8787825Y-19188817D02*
X8759253Y-19188817D01*
X8759253Y-19188817D02*
X8740206Y-19179293D01*
X8740206Y-19179293D02*
X8730682Y-19160246D01*
X8730682Y-19160246D02*
X8730682Y-19150722D01*
X8730682Y-19150722D02*
X8740206Y-19131674D01*
X8740206Y-19131674D02*
X8759253Y-19122150D01*
X8759253Y-19122150D02*
X8787825Y-19122150D01*
X8787825Y-19122150D02*
X8806873Y-19131674D01*
X8883063Y-19331674D02*
X8892587Y-19322150D01*
X8892587Y-19322150D02*
X8911634Y-19293579D01*
X8911634Y-19293579D02*
X8921158Y-19274531D01*
X8921158Y-19274531D02*
X8930682Y-19245960D01*
X8930682Y-19245960D02*
X8940206Y-19198341D01*
X8940206Y-19198341D02*
X8940206Y-19160246D01*
X8940206Y-19160246D02*
X8930682Y-19112627D01*
X8930682Y-19112627D02*
X8921158Y-19084055D01*
X8921158Y-19084055D02*
X8911634Y-19065008D01*
X8911634Y-19065008D02*
X8892587Y-19036436D01*
X8892587Y-19036436D02*
X8883063Y-19026912D01*
D13*
X4068000Y-19388000D02*
X4068000Y-19468000D01*
X4028000Y-19428000D02*
X4108000Y-19428000D01*
D10*
X4406872Y-19319484D02*
X4425920Y-19319484D01*
X4425920Y-19319484D02*
X4444967Y-19329008D01*
X4444967Y-19329008D02*
X4454491Y-19338531D01*
X4454491Y-19338531D02*
X4464015Y-19357579D01*
X4464015Y-19357579D02*
X4473539Y-19395674D01*
X4473539Y-19395674D02*
X4473539Y-19443293D01*
X4473539Y-19443293D02*
X4464015Y-19481389D01*
X4464015Y-19481389D02*
X4454491Y-19500436D01*
X4454491Y-19500436D02*
X4444967Y-19509960D01*
X4444967Y-19509960D02*
X4425920Y-19519484D01*
X4425920Y-19519484D02*
X4406872Y-19519484D01*
X4406872Y-19519484D02*
X4387824Y-19509960D01*
X4387824Y-19509960D02*
X4378301Y-19500436D01*
X4378301Y-19500436D02*
X4368777Y-19481389D01*
X4368777Y-19481389D02*
X4359253Y-19443293D01*
X4359253Y-19443293D02*
X4359253Y-19395674D01*
X4359253Y-19395674D02*
X4368777Y-19357579D01*
X4368777Y-19357579D02*
X4378301Y-19338531D01*
X4378301Y-19338531D02*
X4387824Y-19329008D01*
X4387824Y-19329008D02*
X4406872Y-19319484D01*
X4559253Y-19500436D02*
X4568777Y-19509960D01*
X4568777Y-19509960D02*
X4559253Y-19519484D01*
X4559253Y-19519484D02*
X4549729Y-19509960D01*
X4549729Y-19509960D02*
X4559253Y-19500436D01*
X4559253Y-19500436D02*
X4559253Y-19519484D01*
X4683063Y-19405198D02*
X4664015Y-19395674D01*
X4664015Y-19395674D02*
X4654491Y-19386150D01*
X4654491Y-19386150D02*
X4644967Y-19367103D01*
X4644967Y-19367103D02*
X4644967Y-19357579D01*
X4644967Y-19357579D02*
X4654491Y-19338531D01*
X4654491Y-19338531D02*
X4664015Y-19329008D01*
X4664015Y-19329008D02*
X4683063Y-19319484D01*
X4683063Y-19319484D02*
X4721158Y-19319484D01*
X4721158Y-19319484D02*
X4740205Y-19329008D01*
X4740205Y-19329008D02*
X4749729Y-19338531D01*
X4749729Y-19338531D02*
X4759253Y-19357579D01*
X4759253Y-19357579D02*
X4759253Y-19367103D01*
X4759253Y-19367103D02*
X4749729Y-19386150D01*
X4749729Y-19386150D02*
X4740205Y-19395674D01*
X4740205Y-19395674D02*
X4721158Y-19405198D01*
X4721158Y-19405198D02*
X4683063Y-19405198D01*
X4683063Y-19405198D02*
X4664015Y-19414722D01*
X4664015Y-19414722D02*
X4654491Y-19424246D01*
X4654491Y-19424246D02*
X4644967Y-19443293D01*
X4644967Y-19443293D02*
X4644967Y-19481389D01*
X4644967Y-19481389D02*
X4654491Y-19500436D01*
X4654491Y-19500436D02*
X4664015Y-19509960D01*
X4664015Y-19509960D02*
X4683063Y-19519484D01*
X4683063Y-19519484D02*
X4721158Y-19519484D01*
X4721158Y-19519484D02*
X4740205Y-19509960D01*
X4740205Y-19509960D02*
X4749729Y-19500436D01*
X4749729Y-19500436D02*
X4759253Y-19481389D01*
X4759253Y-19481389D02*
X4759253Y-19443293D01*
X4759253Y-19443293D02*
X4749729Y-19424246D01*
X4749729Y-19424246D02*
X4740205Y-19414722D01*
X4740205Y-19414722D02*
X4721158Y-19405198D01*
X4883063Y-19319484D02*
X4902110Y-19319484D01*
X4902110Y-19319484D02*
X4921158Y-19329008D01*
X4921158Y-19329008D02*
X4930682Y-19338531D01*
X4930682Y-19338531D02*
X4940205Y-19357579D01*
X4940205Y-19357579D02*
X4949729Y-19395674D01*
X4949729Y-19395674D02*
X4949729Y-19443293D01*
X4949729Y-19443293D02*
X4940205Y-19481389D01*
X4940205Y-19481389D02*
X4930682Y-19500436D01*
X4930682Y-19500436D02*
X4921158Y-19509960D01*
X4921158Y-19509960D02*
X4902110Y-19519484D01*
X4902110Y-19519484D02*
X4883063Y-19519484D01*
X4883063Y-19519484D02*
X4864015Y-19509960D01*
X4864015Y-19509960D02*
X4854491Y-19500436D01*
X4854491Y-19500436D02*
X4844967Y-19481389D01*
X4844967Y-19481389D02*
X4835444Y-19443293D01*
X4835444Y-19443293D02*
X4835444Y-19395674D01*
X4835444Y-19395674D02*
X4844967Y-19357579D01*
X4844967Y-19357579D02*
X4854491Y-19338531D01*
X4854491Y-19338531D02*
X4864015Y-19329008D01*
X4864015Y-19329008D02*
X4883063Y-19319484D01*
X5073539Y-19319484D02*
X5092586Y-19319484D01*
X5092586Y-19319484D02*
X5111634Y-19329008D01*
X5111634Y-19329008D02*
X5121158Y-19338531D01*
X5121158Y-19338531D02*
X5130682Y-19357579D01*
X5130682Y-19357579D02*
X5140205Y-19395674D01*
X5140205Y-19395674D02*
X5140205Y-19443293D01*
X5140205Y-19443293D02*
X5130682Y-19481389D01*
X5130682Y-19481389D02*
X5121158Y-19500436D01*
X5121158Y-19500436D02*
X5111634Y-19509960D01*
X5111634Y-19509960D02*
X5092586Y-19519484D01*
X5092586Y-19519484D02*
X5073539Y-19519484D01*
X5073539Y-19519484D02*
X5054491Y-19509960D01*
X5054491Y-19509960D02*
X5044967Y-19500436D01*
X5044967Y-19500436D02*
X5035444Y-19481389D01*
X5035444Y-19481389D02*
X5025920Y-19443293D01*
X5025920Y-19443293D02*
X5025920Y-19395674D01*
X5025920Y-19395674D02*
X5035444Y-19357579D01*
X5035444Y-19357579D02*
X5044967Y-19338531D01*
X5044967Y-19338531D02*
X5054491Y-19329008D01*
X5054491Y-19329008D02*
X5073539Y-19319484D01*
X5225920Y-19519484D02*
X5225920Y-19386150D01*
X5225920Y-19405198D02*
X5235444Y-19395674D01*
X5235444Y-19395674D02*
X5254491Y-19386150D01*
X5254491Y-19386150D02*
X5283063Y-19386150D01*
X5283063Y-19386150D02*
X5302110Y-19395674D01*
X5302110Y-19395674D02*
X5311634Y-19414722D01*
X5311634Y-19414722D02*
X5311634Y-19519484D01*
X5311634Y-19414722D02*
X5321158Y-19395674D01*
X5321158Y-19395674D02*
X5340205Y-19386150D01*
X5340205Y-19386150D02*
X5368777Y-19386150D01*
X5368777Y-19386150D02*
X5387825Y-19395674D01*
X5387825Y-19395674D02*
X5397348Y-19414722D01*
X5397348Y-19414722D02*
X5397348Y-19519484D01*
X5492586Y-19519484D02*
X5492586Y-19386150D01*
X5492586Y-19405198D02*
X5502110Y-19395674D01*
X5502110Y-19395674D02*
X5521158Y-19386150D01*
X5521158Y-19386150D02*
X5549729Y-19386150D01*
X5549729Y-19386150D02*
X5568777Y-19395674D01*
X5568777Y-19395674D02*
X5578301Y-19414722D01*
X5578301Y-19414722D02*
X5578301Y-19519484D01*
X5578301Y-19414722D02*
X5587825Y-19395674D01*
X5587825Y-19395674D02*
X5606872Y-19386150D01*
X5606872Y-19386150D02*
X5635443Y-19386150D01*
X5635443Y-19386150D02*
X5654491Y-19395674D01*
X5654491Y-19395674D02*
X5664015Y-19414722D01*
X5664015Y-19414722D02*
X5664015Y-19519484D01*
X6054491Y-19309960D02*
X5883063Y-19567103D01*
X6311634Y-19319484D02*
X6330682Y-19319484D01*
X6330682Y-19319484D02*
X6349729Y-19329008D01*
X6349729Y-19329008D02*
X6359253Y-19338531D01*
X6359253Y-19338531D02*
X6368777Y-19357579D01*
X6368777Y-19357579D02*
X6378301Y-19395674D01*
X6378301Y-19395674D02*
X6378301Y-19443293D01*
X6378301Y-19443293D02*
X6368777Y-19481389D01*
X6368777Y-19481389D02*
X6359253Y-19500436D01*
X6359253Y-19500436D02*
X6349729Y-19509960D01*
X6349729Y-19509960D02*
X6330682Y-19519484D01*
X6330682Y-19519484D02*
X6311634Y-19519484D01*
X6311634Y-19519484D02*
X6292586Y-19509960D01*
X6292586Y-19509960D02*
X6283063Y-19500436D01*
X6283063Y-19500436D02*
X6273539Y-19481389D01*
X6273539Y-19481389D02*
X6264015Y-19443293D01*
X6264015Y-19443293D02*
X6264015Y-19395674D01*
X6264015Y-19395674D02*
X6273539Y-19357579D01*
X6273539Y-19357579D02*
X6283063Y-19338531D01*
X6283063Y-19338531D02*
X6292586Y-19329008D01*
X6292586Y-19329008D02*
X6311634Y-19319484D01*
X6464015Y-19500436D02*
X6473539Y-19509960D01*
X6473539Y-19509960D02*
X6464015Y-19519484D01*
X6464015Y-19519484D02*
X6454491Y-19509960D01*
X6454491Y-19509960D02*
X6464015Y-19500436D01*
X6464015Y-19500436D02*
X6464015Y-19519484D01*
X6597348Y-19319484D02*
X6616396Y-19319484D01*
X6616396Y-19319484D02*
X6635444Y-19329008D01*
X6635444Y-19329008D02*
X6644967Y-19338531D01*
X6644967Y-19338531D02*
X6654491Y-19357579D01*
X6654491Y-19357579D02*
X6664015Y-19395674D01*
X6664015Y-19395674D02*
X6664015Y-19443293D01*
X6664015Y-19443293D02*
X6654491Y-19481389D01*
X6654491Y-19481389D02*
X6644967Y-19500436D01*
X6644967Y-19500436D02*
X6635444Y-19509960D01*
X6635444Y-19509960D02*
X6616396Y-19519484D01*
X6616396Y-19519484D02*
X6597348Y-19519484D01*
X6597348Y-19519484D02*
X6578301Y-19509960D01*
X6578301Y-19509960D02*
X6568777Y-19500436D01*
X6568777Y-19500436D02*
X6559253Y-19481389D01*
X6559253Y-19481389D02*
X6549729Y-19443293D01*
X6549729Y-19443293D02*
X6549729Y-19395674D01*
X6549729Y-19395674D02*
X6559253Y-19357579D01*
X6559253Y-19357579D02*
X6568777Y-19338531D01*
X6568777Y-19338531D02*
X6578301Y-19329008D01*
X6578301Y-19329008D02*
X6597348Y-19319484D01*
X6730682Y-19319484D02*
X6854491Y-19319484D01*
X6854491Y-19319484D02*
X6787825Y-19395674D01*
X6787825Y-19395674D02*
X6816396Y-19395674D01*
X6816396Y-19395674D02*
X6835444Y-19405198D01*
X6835444Y-19405198D02*
X6844967Y-19414722D01*
X6844967Y-19414722D02*
X6854491Y-19433770D01*
X6854491Y-19433770D02*
X6854491Y-19481389D01*
X6854491Y-19481389D02*
X6844967Y-19500436D01*
X6844967Y-19500436D02*
X6835444Y-19509960D01*
X6835444Y-19509960D02*
X6816396Y-19519484D01*
X6816396Y-19519484D02*
X6759253Y-19519484D01*
X6759253Y-19519484D02*
X6740206Y-19509960D01*
X6740206Y-19509960D02*
X6730682Y-19500436D01*
X7044967Y-19519484D02*
X6930682Y-19519484D01*
X6987825Y-19519484D02*
X6987825Y-19319484D01*
X6987825Y-19319484D02*
X6968777Y-19348055D01*
X6968777Y-19348055D02*
X6949729Y-19367103D01*
X6949729Y-19367103D02*
X6930682Y-19376627D01*
X7225920Y-19319484D02*
X7130682Y-19319484D01*
X7130682Y-19319484D02*
X7121158Y-19414722D01*
X7121158Y-19414722D02*
X7130682Y-19405198D01*
X7130682Y-19405198D02*
X7149729Y-19395674D01*
X7149729Y-19395674D02*
X7197348Y-19395674D01*
X7197348Y-19395674D02*
X7216396Y-19405198D01*
X7216396Y-19405198D02*
X7225920Y-19414722D01*
X7225920Y-19414722D02*
X7235444Y-19433770D01*
X7235444Y-19433770D02*
X7235444Y-19481389D01*
X7235444Y-19481389D02*
X7225920Y-19500436D01*
X7225920Y-19500436D02*
X7216396Y-19509960D01*
X7216396Y-19509960D02*
X7197348Y-19519484D01*
X7197348Y-19519484D02*
X7149729Y-19519484D01*
X7149729Y-19519484D02*
X7130682Y-19509960D01*
X7130682Y-19509960D02*
X7121158Y-19500436D01*
X7311634Y-19319484D02*
X7311634Y-19357579D01*
X7387825Y-19319484D02*
X7387825Y-19357579D01*
X7683063Y-19595674D02*
X7673539Y-19586150D01*
X7673539Y-19586150D02*
X7654491Y-19557579D01*
X7654491Y-19557579D02*
X7644968Y-19538531D01*
X7644968Y-19538531D02*
X7635444Y-19509960D01*
X7635444Y-19509960D02*
X7625920Y-19462341D01*
X7625920Y-19462341D02*
X7625920Y-19424246D01*
X7625920Y-19424246D02*
X7635444Y-19376627D01*
X7635444Y-19376627D02*
X7644968Y-19348055D01*
X7644968Y-19348055D02*
X7654491Y-19329008D01*
X7654491Y-19329008D02*
X7673539Y-19300436D01*
X7673539Y-19300436D02*
X7683063Y-19290912D01*
X7864015Y-19519484D02*
X7749729Y-19519484D01*
X7806872Y-19519484D02*
X7806872Y-19319484D01*
X7806872Y-19319484D02*
X7787825Y-19348055D01*
X7787825Y-19348055D02*
X7768777Y-19367103D01*
X7768777Y-19367103D02*
X7749729Y-19376627D01*
X7987825Y-19319484D02*
X8006872Y-19319484D01*
X8006872Y-19319484D02*
X8025920Y-19329008D01*
X8025920Y-19329008D02*
X8035444Y-19338531D01*
X8035444Y-19338531D02*
X8044968Y-19357579D01*
X8044968Y-19357579D02*
X8054491Y-19395674D01*
X8054491Y-19395674D02*
X8054491Y-19443293D01*
X8054491Y-19443293D02*
X8044968Y-19481389D01*
X8044968Y-19481389D02*
X8035444Y-19500436D01*
X8035444Y-19500436D02*
X8025920Y-19509960D01*
X8025920Y-19509960D02*
X8006872Y-19519484D01*
X8006872Y-19519484D02*
X7987825Y-19519484D01*
X7987825Y-19519484D02*
X7968777Y-19509960D01*
X7968777Y-19509960D02*
X7959253Y-19500436D01*
X7959253Y-19500436D02*
X7949729Y-19481389D01*
X7949729Y-19481389D02*
X7940206Y-19443293D01*
X7940206Y-19443293D02*
X7940206Y-19395674D01*
X7940206Y-19395674D02*
X7949729Y-19357579D01*
X7949729Y-19357579D02*
X7959253Y-19338531D01*
X7959253Y-19338531D02*
X7968777Y-19329008D01*
X7968777Y-19329008D02*
X7987825Y-19319484D01*
X8292587Y-19519484D02*
X8292587Y-19319484D01*
X8378301Y-19519484D02*
X8378301Y-19414722D01*
X8378301Y-19414722D02*
X8368777Y-19395674D01*
X8368777Y-19395674D02*
X8349730Y-19386150D01*
X8349730Y-19386150D02*
X8321158Y-19386150D01*
X8321158Y-19386150D02*
X8302110Y-19395674D01*
X8302110Y-19395674D02*
X8292587Y-19405198D01*
X8502111Y-19519484D02*
X8483063Y-19509960D01*
X8483063Y-19509960D02*
X8473539Y-19500436D01*
X8473539Y-19500436D02*
X8464015Y-19481389D01*
X8464015Y-19481389D02*
X8464015Y-19424246D01*
X8464015Y-19424246D02*
X8473539Y-19405198D01*
X8473539Y-19405198D02*
X8483063Y-19395674D01*
X8483063Y-19395674D02*
X8502111Y-19386150D01*
X8502111Y-19386150D02*
X8530682Y-19386150D01*
X8530682Y-19386150D02*
X8549730Y-19395674D01*
X8549730Y-19395674D02*
X8559253Y-19405198D01*
X8559253Y-19405198D02*
X8568777Y-19424246D01*
X8568777Y-19424246D02*
X8568777Y-19481389D01*
X8568777Y-19481389D02*
X8559253Y-19500436D01*
X8559253Y-19500436D02*
X8549730Y-19509960D01*
X8549730Y-19509960D02*
X8530682Y-19519484D01*
X8530682Y-19519484D02*
X8502111Y-19519484D01*
X8683063Y-19519484D02*
X8664015Y-19509960D01*
X8664015Y-19509960D02*
X8654492Y-19490912D01*
X8654492Y-19490912D02*
X8654492Y-19319484D01*
X8835444Y-19509960D02*
X8816396Y-19519484D01*
X8816396Y-19519484D02*
X8778301Y-19519484D01*
X8778301Y-19519484D02*
X8759253Y-19509960D01*
X8759253Y-19509960D02*
X8749730Y-19490912D01*
X8749730Y-19490912D02*
X8749730Y-19414722D01*
X8749730Y-19414722D02*
X8759253Y-19395674D01*
X8759253Y-19395674D02*
X8778301Y-19386150D01*
X8778301Y-19386150D02*
X8816396Y-19386150D01*
X8816396Y-19386150D02*
X8835444Y-19395674D01*
X8835444Y-19395674D02*
X8844968Y-19414722D01*
X8844968Y-19414722D02*
X8844968Y-19433770D01*
X8844968Y-19433770D02*
X8749730Y-19452817D01*
X8921158Y-19509960D02*
X8940206Y-19519484D01*
X8940206Y-19519484D02*
X8978301Y-19519484D01*
X8978301Y-19519484D02*
X8997349Y-19509960D01*
X8997349Y-19509960D02*
X9006873Y-19490912D01*
X9006873Y-19490912D02*
X9006873Y-19481389D01*
X9006873Y-19481389D02*
X8997349Y-19462341D01*
X8997349Y-19462341D02*
X8978301Y-19452817D01*
X8978301Y-19452817D02*
X8949730Y-19452817D01*
X8949730Y-19452817D02*
X8930682Y-19443293D01*
X8930682Y-19443293D02*
X8921158Y-19424246D01*
X8921158Y-19424246D02*
X8921158Y-19414722D01*
X8921158Y-19414722D02*
X8930682Y-19395674D01*
X8930682Y-19395674D02*
X8949730Y-19386150D01*
X8949730Y-19386150D02*
X8978301Y-19386150D01*
X8978301Y-19386150D02*
X8997349Y-19395674D01*
X9073539Y-19595674D02*
X9083063Y-19586150D01*
X9083063Y-19586150D02*
X9102111Y-19557579D01*
X9102111Y-19557579D02*
X9111634Y-19538531D01*
X9111634Y-19538531D02*
X9121158Y-19509960D01*
X9121158Y-19509960D02*
X9130682Y-19462341D01*
X9130682Y-19462341D02*
X9130682Y-19424246D01*
X9130682Y-19424246D02*
X9121158Y-19376627D01*
X9121158Y-19376627D02*
X9111634Y-19348055D01*
X9111634Y-19348055D02*
X9102111Y-19329008D01*
X9102111Y-19329008D02*
X9083063Y-19300436D01*
X9083063Y-19300436D02*
X9073539Y-19290912D01*
D14*
X4093356Y-19727356D02*
X4093356Y-19656644D01*
X4022644Y-19656644D01*
X4022644Y-19727356D01*
X4093356Y-19727356D01*
D10*
X4473539Y-19783484D02*
X4359253Y-19783484D01*
X4416396Y-19783484D02*
X4416396Y-19583484D01*
X4416396Y-19583484D02*
X4397348Y-19612055D01*
X4397348Y-19612055D02*
X4378301Y-19631103D01*
X4378301Y-19631103D02*
X4359253Y-19640627D01*
X4559253Y-19764436D02*
X4568777Y-19773960D01*
X4568777Y-19773960D02*
X4559253Y-19783484D01*
X4559253Y-19783484D02*
X4549729Y-19773960D01*
X4549729Y-19773960D02*
X4559253Y-19764436D01*
X4559253Y-19764436D02*
X4559253Y-19783484D01*
X4692586Y-19583484D02*
X4711634Y-19583484D01*
X4711634Y-19583484D02*
X4730682Y-19593008D01*
X4730682Y-19593008D02*
X4740205Y-19602531D01*
X4740205Y-19602531D02*
X4749729Y-19621579D01*
X4749729Y-19621579D02*
X4759253Y-19659674D01*
X4759253Y-19659674D02*
X4759253Y-19707293D01*
X4759253Y-19707293D02*
X4749729Y-19745389D01*
X4749729Y-19745389D02*
X4740205Y-19764436D01*
X4740205Y-19764436D02*
X4730682Y-19773960D01*
X4730682Y-19773960D02*
X4711634Y-19783484D01*
X4711634Y-19783484D02*
X4692586Y-19783484D01*
X4692586Y-19783484D02*
X4673539Y-19773960D01*
X4673539Y-19773960D02*
X4664015Y-19764436D01*
X4664015Y-19764436D02*
X4654491Y-19745389D01*
X4654491Y-19745389D02*
X4644967Y-19707293D01*
X4644967Y-19707293D02*
X4644967Y-19659674D01*
X4644967Y-19659674D02*
X4654491Y-19621579D01*
X4654491Y-19621579D02*
X4664015Y-19602531D01*
X4664015Y-19602531D02*
X4673539Y-19593008D01*
X4673539Y-19593008D02*
X4692586Y-19583484D01*
X4883063Y-19583484D02*
X4902110Y-19583484D01*
X4902110Y-19583484D02*
X4921158Y-19593008D01*
X4921158Y-19593008D02*
X4930682Y-19602531D01*
X4930682Y-19602531D02*
X4940205Y-19621579D01*
X4940205Y-19621579D02*
X4949729Y-19659674D01*
X4949729Y-19659674D02*
X4949729Y-19707293D01*
X4949729Y-19707293D02*
X4940205Y-19745389D01*
X4940205Y-19745389D02*
X4930682Y-19764436D01*
X4930682Y-19764436D02*
X4921158Y-19773960D01*
X4921158Y-19773960D02*
X4902110Y-19783484D01*
X4902110Y-19783484D02*
X4883063Y-19783484D01*
X4883063Y-19783484D02*
X4864015Y-19773960D01*
X4864015Y-19773960D02*
X4854491Y-19764436D01*
X4854491Y-19764436D02*
X4844967Y-19745389D01*
X4844967Y-19745389D02*
X4835444Y-19707293D01*
X4835444Y-19707293D02*
X4835444Y-19659674D01*
X4835444Y-19659674D02*
X4844967Y-19621579D01*
X4844967Y-19621579D02*
X4854491Y-19602531D01*
X4854491Y-19602531D02*
X4864015Y-19593008D01*
X4864015Y-19593008D02*
X4883063Y-19583484D01*
X5073539Y-19583484D02*
X5092586Y-19583484D01*
X5092586Y-19583484D02*
X5111634Y-19593008D01*
X5111634Y-19593008D02*
X5121158Y-19602531D01*
X5121158Y-19602531D02*
X5130682Y-19621579D01*
X5130682Y-19621579D02*
X5140205Y-19659674D01*
X5140205Y-19659674D02*
X5140205Y-19707293D01*
X5140205Y-19707293D02*
X5130682Y-19745389D01*
X5130682Y-19745389D02*
X5121158Y-19764436D01*
X5121158Y-19764436D02*
X5111634Y-19773960D01*
X5111634Y-19773960D02*
X5092586Y-19783484D01*
X5092586Y-19783484D02*
X5073539Y-19783484D01*
X5073539Y-19783484D02*
X5054491Y-19773960D01*
X5054491Y-19773960D02*
X5044967Y-19764436D01*
X5044967Y-19764436D02*
X5035444Y-19745389D01*
X5035444Y-19745389D02*
X5025920Y-19707293D01*
X5025920Y-19707293D02*
X5025920Y-19659674D01*
X5025920Y-19659674D02*
X5035444Y-19621579D01*
X5035444Y-19621579D02*
X5044967Y-19602531D01*
X5044967Y-19602531D02*
X5054491Y-19593008D01*
X5054491Y-19593008D02*
X5073539Y-19583484D01*
X5225920Y-19783484D02*
X5225920Y-19650150D01*
X5225920Y-19669198D02*
X5235444Y-19659674D01*
X5235444Y-19659674D02*
X5254491Y-19650150D01*
X5254491Y-19650150D02*
X5283063Y-19650150D01*
X5283063Y-19650150D02*
X5302110Y-19659674D01*
X5302110Y-19659674D02*
X5311634Y-19678722D01*
X5311634Y-19678722D02*
X5311634Y-19783484D01*
X5311634Y-19678722D02*
X5321158Y-19659674D01*
X5321158Y-19659674D02*
X5340205Y-19650150D01*
X5340205Y-19650150D02*
X5368777Y-19650150D01*
X5368777Y-19650150D02*
X5387825Y-19659674D01*
X5387825Y-19659674D02*
X5397348Y-19678722D01*
X5397348Y-19678722D02*
X5397348Y-19783484D01*
X5492586Y-19783484D02*
X5492586Y-19650150D01*
X5492586Y-19669198D02*
X5502110Y-19659674D01*
X5502110Y-19659674D02*
X5521158Y-19650150D01*
X5521158Y-19650150D02*
X5549729Y-19650150D01*
X5549729Y-19650150D02*
X5568777Y-19659674D01*
X5568777Y-19659674D02*
X5578301Y-19678722D01*
X5578301Y-19678722D02*
X5578301Y-19783484D01*
X5578301Y-19678722D02*
X5587825Y-19659674D01*
X5587825Y-19659674D02*
X5606872Y-19650150D01*
X5606872Y-19650150D02*
X5635443Y-19650150D01*
X5635443Y-19650150D02*
X5654491Y-19659674D01*
X5654491Y-19659674D02*
X5664015Y-19678722D01*
X5664015Y-19678722D02*
X5664015Y-19783484D01*
X6054491Y-19573960D02*
X5883063Y-19831103D01*
X6311634Y-19583484D02*
X6330682Y-19583484D01*
X6330682Y-19583484D02*
X6349729Y-19593008D01*
X6349729Y-19593008D02*
X6359253Y-19602531D01*
X6359253Y-19602531D02*
X6368777Y-19621579D01*
X6368777Y-19621579D02*
X6378301Y-19659674D01*
X6378301Y-19659674D02*
X6378301Y-19707293D01*
X6378301Y-19707293D02*
X6368777Y-19745389D01*
X6368777Y-19745389D02*
X6359253Y-19764436D01*
X6359253Y-19764436D02*
X6349729Y-19773960D01*
X6349729Y-19773960D02*
X6330682Y-19783484D01*
X6330682Y-19783484D02*
X6311634Y-19783484D01*
X6311634Y-19783484D02*
X6292586Y-19773960D01*
X6292586Y-19773960D02*
X6283063Y-19764436D01*
X6283063Y-19764436D02*
X6273539Y-19745389D01*
X6273539Y-19745389D02*
X6264015Y-19707293D01*
X6264015Y-19707293D02*
X6264015Y-19659674D01*
X6264015Y-19659674D02*
X6273539Y-19621579D01*
X6273539Y-19621579D02*
X6283063Y-19602531D01*
X6283063Y-19602531D02*
X6292586Y-19593008D01*
X6292586Y-19593008D02*
X6311634Y-19583484D01*
X6464015Y-19764436D02*
X6473539Y-19773960D01*
X6473539Y-19773960D02*
X6464015Y-19783484D01*
X6464015Y-19783484D02*
X6454491Y-19773960D01*
X6454491Y-19773960D02*
X6464015Y-19764436D01*
X6464015Y-19764436D02*
X6464015Y-19783484D01*
X6597348Y-19583484D02*
X6616396Y-19583484D01*
X6616396Y-19583484D02*
X6635444Y-19593008D01*
X6635444Y-19593008D02*
X6644967Y-19602531D01*
X6644967Y-19602531D02*
X6654491Y-19621579D01*
X6654491Y-19621579D02*
X6664015Y-19659674D01*
X6664015Y-19659674D02*
X6664015Y-19707293D01*
X6664015Y-19707293D02*
X6654491Y-19745389D01*
X6654491Y-19745389D02*
X6644967Y-19764436D01*
X6644967Y-19764436D02*
X6635444Y-19773960D01*
X6635444Y-19773960D02*
X6616396Y-19783484D01*
X6616396Y-19783484D02*
X6597348Y-19783484D01*
X6597348Y-19783484D02*
X6578301Y-19773960D01*
X6578301Y-19773960D02*
X6568777Y-19764436D01*
X6568777Y-19764436D02*
X6559253Y-19745389D01*
X6559253Y-19745389D02*
X6549729Y-19707293D01*
X6549729Y-19707293D02*
X6549729Y-19659674D01*
X6549729Y-19659674D02*
X6559253Y-19621579D01*
X6559253Y-19621579D02*
X6568777Y-19602531D01*
X6568777Y-19602531D02*
X6578301Y-19593008D01*
X6578301Y-19593008D02*
X6597348Y-19583484D01*
X6730682Y-19583484D02*
X6854491Y-19583484D01*
X6854491Y-19583484D02*
X6787825Y-19659674D01*
X6787825Y-19659674D02*
X6816396Y-19659674D01*
X6816396Y-19659674D02*
X6835444Y-19669198D01*
X6835444Y-19669198D02*
X6844967Y-19678722D01*
X6844967Y-19678722D02*
X6854491Y-19697770D01*
X6854491Y-19697770D02*
X6854491Y-19745389D01*
X6854491Y-19745389D02*
X6844967Y-19764436D01*
X6844967Y-19764436D02*
X6835444Y-19773960D01*
X6835444Y-19773960D02*
X6816396Y-19783484D01*
X6816396Y-19783484D02*
X6759253Y-19783484D01*
X6759253Y-19783484D02*
X6740206Y-19773960D01*
X6740206Y-19773960D02*
X6730682Y-19764436D01*
X6949729Y-19783484D02*
X6987825Y-19783484D01*
X6987825Y-19783484D02*
X7006872Y-19773960D01*
X7006872Y-19773960D02*
X7016396Y-19764436D01*
X7016396Y-19764436D02*
X7035444Y-19735865D01*
X7035444Y-19735865D02*
X7044967Y-19697770D01*
X7044967Y-19697770D02*
X7044967Y-19621579D01*
X7044967Y-19621579D02*
X7035444Y-19602531D01*
X7035444Y-19602531D02*
X7025920Y-19593008D01*
X7025920Y-19593008D02*
X7006872Y-19583484D01*
X7006872Y-19583484D02*
X6968777Y-19583484D01*
X6968777Y-19583484D02*
X6949729Y-19593008D01*
X6949729Y-19593008D02*
X6940206Y-19602531D01*
X6940206Y-19602531D02*
X6930682Y-19621579D01*
X6930682Y-19621579D02*
X6930682Y-19669198D01*
X6930682Y-19669198D02*
X6940206Y-19688246D01*
X6940206Y-19688246D02*
X6949729Y-19697770D01*
X6949729Y-19697770D02*
X6968777Y-19707293D01*
X6968777Y-19707293D02*
X7006872Y-19707293D01*
X7006872Y-19707293D02*
X7025920Y-19697770D01*
X7025920Y-19697770D02*
X7035444Y-19688246D01*
X7035444Y-19688246D02*
X7044967Y-19669198D01*
X7216396Y-19650150D02*
X7216396Y-19783484D01*
X7168777Y-19573960D02*
X7121158Y-19716817D01*
X7121158Y-19716817D02*
X7244967Y-19716817D01*
X7311634Y-19583484D02*
X7311634Y-19621579D01*
X7387825Y-19583484D02*
X7387825Y-19621579D01*
X7683063Y-19859674D02*
X7673539Y-19850150D01*
X7673539Y-19850150D02*
X7654491Y-19821579D01*
X7654491Y-19821579D02*
X7644968Y-19802531D01*
X7644968Y-19802531D02*
X7635444Y-19773960D01*
X7635444Y-19773960D02*
X7625920Y-19726341D01*
X7625920Y-19726341D02*
X7625920Y-19688246D01*
X7625920Y-19688246D02*
X7635444Y-19640627D01*
X7635444Y-19640627D02*
X7644968Y-19612055D01*
X7644968Y-19612055D02*
X7654491Y-19593008D01*
X7654491Y-19593008D02*
X7673539Y-19564436D01*
X7673539Y-19564436D02*
X7683063Y-19554912D01*
X7740206Y-19583484D02*
X7864015Y-19583484D01*
X7864015Y-19583484D02*
X7797348Y-19659674D01*
X7797348Y-19659674D02*
X7825920Y-19659674D01*
X7825920Y-19659674D02*
X7844968Y-19669198D01*
X7844968Y-19669198D02*
X7854491Y-19678722D01*
X7854491Y-19678722D02*
X7864015Y-19697770D01*
X7864015Y-19697770D02*
X7864015Y-19745389D01*
X7864015Y-19745389D02*
X7854491Y-19764436D01*
X7854491Y-19764436D02*
X7844968Y-19773960D01*
X7844968Y-19773960D02*
X7825920Y-19783484D01*
X7825920Y-19783484D02*
X7768777Y-19783484D01*
X7768777Y-19783484D02*
X7749729Y-19773960D01*
X7749729Y-19773960D02*
X7740206Y-19764436D01*
X8102110Y-19783484D02*
X8102110Y-19583484D01*
X8187825Y-19783484D02*
X8187825Y-19678722D01*
X8187825Y-19678722D02*
X8178301Y-19659674D01*
X8178301Y-19659674D02*
X8159253Y-19650150D01*
X8159253Y-19650150D02*
X8130682Y-19650150D01*
X8130682Y-19650150D02*
X8111634Y-19659674D01*
X8111634Y-19659674D02*
X8102110Y-19669198D01*
X8311634Y-19783484D02*
X8292587Y-19773960D01*
X8292587Y-19773960D02*
X8283063Y-19764436D01*
X8283063Y-19764436D02*
X8273539Y-19745389D01*
X8273539Y-19745389D02*
X8273539Y-19688246D01*
X8273539Y-19688246D02*
X8283063Y-19669198D01*
X8283063Y-19669198D02*
X8292587Y-19659674D01*
X8292587Y-19659674D02*
X8311634Y-19650150D01*
X8311634Y-19650150D02*
X8340206Y-19650150D01*
X8340206Y-19650150D02*
X8359253Y-19659674D01*
X8359253Y-19659674D02*
X8368777Y-19669198D01*
X8368777Y-19669198D02*
X8378301Y-19688246D01*
X8378301Y-19688246D02*
X8378301Y-19745389D01*
X8378301Y-19745389D02*
X8368777Y-19764436D01*
X8368777Y-19764436D02*
X8359253Y-19773960D01*
X8359253Y-19773960D02*
X8340206Y-19783484D01*
X8340206Y-19783484D02*
X8311634Y-19783484D01*
X8492587Y-19783484D02*
X8473539Y-19773960D01*
X8473539Y-19773960D02*
X8464015Y-19754912D01*
X8464015Y-19754912D02*
X8464015Y-19583484D01*
X8644968Y-19773960D02*
X8625920Y-19783484D01*
X8625920Y-19783484D02*
X8587825Y-19783484D01*
X8587825Y-19783484D02*
X8568777Y-19773960D01*
X8568777Y-19773960D02*
X8559253Y-19754912D01*
X8559253Y-19754912D02*
X8559253Y-19678722D01*
X8559253Y-19678722D02*
X8568777Y-19659674D01*
X8568777Y-19659674D02*
X8587825Y-19650150D01*
X8587825Y-19650150D02*
X8625920Y-19650150D01*
X8625920Y-19650150D02*
X8644968Y-19659674D01*
X8644968Y-19659674D02*
X8654492Y-19678722D01*
X8654492Y-19678722D02*
X8654492Y-19697770D01*
X8654492Y-19697770D02*
X8559253Y-19716817D01*
X8730682Y-19773960D02*
X8749730Y-19783484D01*
X8749730Y-19783484D02*
X8787825Y-19783484D01*
X8787825Y-19783484D02*
X8806873Y-19773960D01*
X8806873Y-19773960D02*
X8816396Y-19754912D01*
X8816396Y-19754912D02*
X8816396Y-19745389D01*
X8816396Y-19745389D02*
X8806873Y-19726341D01*
X8806873Y-19726341D02*
X8787825Y-19716817D01*
X8787825Y-19716817D02*
X8759253Y-19716817D01*
X8759253Y-19716817D02*
X8740206Y-19707293D01*
X8740206Y-19707293D02*
X8730682Y-19688246D01*
X8730682Y-19688246D02*
X8730682Y-19678722D01*
X8730682Y-19678722D02*
X8740206Y-19659674D01*
X8740206Y-19659674D02*
X8759253Y-19650150D01*
X8759253Y-19650150D02*
X8787825Y-19650150D01*
X8787825Y-19650150D02*
X8806873Y-19659674D01*
X8883063Y-19859674D02*
X8892587Y-19850150D01*
X8892587Y-19850150D02*
X8911634Y-19821579D01*
X8911634Y-19821579D02*
X8921158Y-19802531D01*
X8921158Y-19802531D02*
X8930682Y-19773960D01*
X8930682Y-19773960D02*
X8940206Y-19726341D01*
X8940206Y-19726341D02*
X8940206Y-19688246D01*
X8940206Y-19688246D02*
X8930682Y-19640627D01*
X8930682Y-19640627D02*
X8921158Y-19612055D01*
X8921158Y-19612055D02*
X8911634Y-19593008D01*
X8911634Y-19593008D02*
X8892587Y-19564436D01*
X8892587Y-19564436D02*
X8883063Y-19554912D01*
D14*
X4058000Y-20006000D02*
X4108000Y-19956000D01*
X4058000Y-19906000D01*
X4008000Y-19956000D01*
X4058000Y-20006000D01*
D10*
X4473539Y-20047484D02*
X4359253Y-20047484D01*
X4416396Y-20047484D02*
X4416396Y-19847484D01*
X4416396Y-19847484D02*
X4397348Y-19876055D01*
X4397348Y-19876055D02*
X4378301Y-19895103D01*
X4378301Y-19895103D02*
X4359253Y-19904627D01*
X4559253Y-20028436D02*
X4568777Y-20037960D01*
X4568777Y-20037960D02*
X4559253Y-20047484D01*
X4559253Y-20047484D02*
X4549729Y-20037960D01*
X4549729Y-20037960D02*
X4559253Y-20028436D01*
X4559253Y-20028436D02*
X4559253Y-20047484D01*
X4692586Y-19847484D02*
X4711634Y-19847484D01*
X4711634Y-19847484D02*
X4730682Y-19857008D01*
X4730682Y-19857008D02*
X4740205Y-19866531D01*
X4740205Y-19866531D02*
X4749729Y-19885579D01*
X4749729Y-19885579D02*
X4759253Y-19923674D01*
X4759253Y-19923674D02*
X4759253Y-19971293D01*
X4759253Y-19971293D02*
X4749729Y-20009389D01*
X4749729Y-20009389D02*
X4740205Y-20028436D01*
X4740205Y-20028436D02*
X4730682Y-20037960D01*
X4730682Y-20037960D02*
X4711634Y-20047484D01*
X4711634Y-20047484D02*
X4692586Y-20047484D01*
X4692586Y-20047484D02*
X4673539Y-20037960D01*
X4673539Y-20037960D02*
X4664015Y-20028436D01*
X4664015Y-20028436D02*
X4654491Y-20009389D01*
X4654491Y-20009389D02*
X4644967Y-19971293D01*
X4644967Y-19971293D02*
X4644967Y-19923674D01*
X4644967Y-19923674D02*
X4654491Y-19885579D01*
X4654491Y-19885579D02*
X4664015Y-19866531D01*
X4664015Y-19866531D02*
X4673539Y-19857008D01*
X4673539Y-19857008D02*
X4692586Y-19847484D01*
X4883063Y-19847484D02*
X4902110Y-19847484D01*
X4902110Y-19847484D02*
X4921158Y-19857008D01*
X4921158Y-19857008D02*
X4930682Y-19866531D01*
X4930682Y-19866531D02*
X4940205Y-19885579D01*
X4940205Y-19885579D02*
X4949729Y-19923674D01*
X4949729Y-19923674D02*
X4949729Y-19971293D01*
X4949729Y-19971293D02*
X4940205Y-20009389D01*
X4940205Y-20009389D02*
X4930682Y-20028436D01*
X4930682Y-20028436D02*
X4921158Y-20037960D01*
X4921158Y-20037960D02*
X4902110Y-20047484D01*
X4902110Y-20047484D02*
X4883063Y-20047484D01*
X4883063Y-20047484D02*
X4864015Y-20037960D01*
X4864015Y-20037960D02*
X4854491Y-20028436D01*
X4854491Y-20028436D02*
X4844967Y-20009389D01*
X4844967Y-20009389D02*
X4835444Y-19971293D01*
X4835444Y-19971293D02*
X4835444Y-19923674D01*
X4835444Y-19923674D02*
X4844967Y-19885579D01*
X4844967Y-19885579D02*
X4854491Y-19866531D01*
X4854491Y-19866531D02*
X4864015Y-19857008D01*
X4864015Y-19857008D02*
X4883063Y-19847484D01*
X5073539Y-19847484D02*
X5092586Y-19847484D01*
X5092586Y-19847484D02*
X5111634Y-19857008D01*
X5111634Y-19857008D02*
X5121158Y-19866531D01*
X5121158Y-19866531D02*
X5130682Y-19885579D01*
X5130682Y-19885579D02*
X5140205Y-19923674D01*
X5140205Y-19923674D02*
X5140205Y-19971293D01*
X5140205Y-19971293D02*
X5130682Y-20009389D01*
X5130682Y-20009389D02*
X5121158Y-20028436D01*
X5121158Y-20028436D02*
X5111634Y-20037960D01*
X5111634Y-20037960D02*
X5092586Y-20047484D01*
X5092586Y-20047484D02*
X5073539Y-20047484D01*
X5073539Y-20047484D02*
X5054491Y-20037960D01*
X5054491Y-20037960D02*
X5044967Y-20028436D01*
X5044967Y-20028436D02*
X5035444Y-20009389D01*
X5035444Y-20009389D02*
X5025920Y-19971293D01*
X5025920Y-19971293D02*
X5025920Y-19923674D01*
X5025920Y-19923674D02*
X5035444Y-19885579D01*
X5035444Y-19885579D02*
X5044967Y-19866531D01*
X5044967Y-19866531D02*
X5054491Y-19857008D01*
X5054491Y-19857008D02*
X5073539Y-19847484D01*
X5225920Y-20047484D02*
X5225920Y-19914150D01*
X5225920Y-19933198D02*
X5235444Y-19923674D01*
X5235444Y-19923674D02*
X5254491Y-19914150D01*
X5254491Y-19914150D02*
X5283063Y-19914150D01*
X5283063Y-19914150D02*
X5302110Y-19923674D01*
X5302110Y-19923674D02*
X5311634Y-19942722D01*
X5311634Y-19942722D02*
X5311634Y-20047484D01*
X5311634Y-19942722D02*
X5321158Y-19923674D01*
X5321158Y-19923674D02*
X5340205Y-19914150D01*
X5340205Y-19914150D02*
X5368777Y-19914150D01*
X5368777Y-19914150D02*
X5387825Y-19923674D01*
X5387825Y-19923674D02*
X5397348Y-19942722D01*
X5397348Y-19942722D02*
X5397348Y-20047484D01*
X5492586Y-20047484D02*
X5492586Y-19914150D01*
X5492586Y-19933198D02*
X5502110Y-19923674D01*
X5502110Y-19923674D02*
X5521158Y-19914150D01*
X5521158Y-19914150D02*
X5549729Y-19914150D01*
X5549729Y-19914150D02*
X5568777Y-19923674D01*
X5568777Y-19923674D02*
X5578301Y-19942722D01*
X5578301Y-19942722D02*
X5578301Y-20047484D01*
X5578301Y-19942722D02*
X5587825Y-19923674D01*
X5587825Y-19923674D02*
X5606872Y-19914150D01*
X5606872Y-19914150D02*
X5635443Y-19914150D01*
X5635443Y-19914150D02*
X5654491Y-19923674D01*
X5654491Y-19923674D02*
X5664015Y-19942722D01*
X5664015Y-19942722D02*
X5664015Y-20047484D01*
X6054491Y-19837960D02*
X5883063Y-20095103D01*
X6311634Y-19847484D02*
X6330682Y-19847484D01*
X6330682Y-19847484D02*
X6349729Y-19857008D01*
X6349729Y-19857008D02*
X6359253Y-19866531D01*
X6359253Y-19866531D02*
X6368777Y-19885579D01*
X6368777Y-19885579D02*
X6378301Y-19923674D01*
X6378301Y-19923674D02*
X6378301Y-19971293D01*
X6378301Y-19971293D02*
X6368777Y-20009389D01*
X6368777Y-20009389D02*
X6359253Y-20028436D01*
X6359253Y-20028436D02*
X6349729Y-20037960D01*
X6349729Y-20037960D02*
X6330682Y-20047484D01*
X6330682Y-20047484D02*
X6311634Y-20047484D01*
X6311634Y-20047484D02*
X6292586Y-20037960D01*
X6292586Y-20037960D02*
X6283063Y-20028436D01*
X6283063Y-20028436D02*
X6273539Y-20009389D01*
X6273539Y-20009389D02*
X6264015Y-19971293D01*
X6264015Y-19971293D02*
X6264015Y-19923674D01*
X6264015Y-19923674D02*
X6273539Y-19885579D01*
X6273539Y-19885579D02*
X6283063Y-19866531D01*
X6283063Y-19866531D02*
X6292586Y-19857008D01*
X6292586Y-19857008D02*
X6311634Y-19847484D01*
X6464015Y-20028436D02*
X6473539Y-20037960D01*
X6473539Y-20037960D02*
X6464015Y-20047484D01*
X6464015Y-20047484D02*
X6454491Y-20037960D01*
X6454491Y-20037960D02*
X6464015Y-20028436D01*
X6464015Y-20028436D02*
X6464015Y-20047484D01*
X6597348Y-19847484D02*
X6616396Y-19847484D01*
X6616396Y-19847484D02*
X6635444Y-19857008D01*
X6635444Y-19857008D02*
X6644967Y-19866531D01*
X6644967Y-19866531D02*
X6654491Y-19885579D01*
X6654491Y-19885579D02*
X6664015Y-19923674D01*
X6664015Y-19923674D02*
X6664015Y-19971293D01*
X6664015Y-19971293D02*
X6654491Y-20009389D01*
X6654491Y-20009389D02*
X6644967Y-20028436D01*
X6644967Y-20028436D02*
X6635444Y-20037960D01*
X6635444Y-20037960D02*
X6616396Y-20047484D01*
X6616396Y-20047484D02*
X6597348Y-20047484D01*
X6597348Y-20047484D02*
X6578301Y-20037960D01*
X6578301Y-20037960D02*
X6568777Y-20028436D01*
X6568777Y-20028436D02*
X6559253Y-20009389D01*
X6559253Y-20009389D02*
X6549729Y-19971293D01*
X6549729Y-19971293D02*
X6549729Y-19923674D01*
X6549729Y-19923674D02*
X6559253Y-19885579D01*
X6559253Y-19885579D02*
X6568777Y-19866531D01*
X6568777Y-19866531D02*
X6578301Y-19857008D01*
X6578301Y-19857008D02*
X6597348Y-19847484D01*
X6730682Y-19847484D02*
X6854491Y-19847484D01*
X6854491Y-19847484D02*
X6787825Y-19923674D01*
X6787825Y-19923674D02*
X6816396Y-19923674D01*
X6816396Y-19923674D02*
X6835444Y-19933198D01*
X6835444Y-19933198D02*
X6844967Y-19942722D01*
X6844967Y-19942722D02*
X6854491Y-19961770D01*
X6854491Y-19961770D02*
X6854491Y-20009389D01*
X6854491Y-20009389D02*
X6844967Y-20028436D01*
X6844967Y-20028436D02*
X6835444Y-20037960D01*
X6835444Y-20037960D02*
X6816396Y-20047484D01*
X6816396Y-20047484D02*
X6759253Y-20047484D01*
X6759253Y-20047484D02*
X6740206Y-20037960D01*
X6740206Y-20037960D02*
X6730682Y-20028436D01*
X6949729Y-20047484D02*
X6987825Y-20047484D01*
X6987825Y-20047484D02*
X7006872Y-20037960D01*
X7006872Y-20037960D02*
X7016396Y-20028436D01*
X7016396Y-20028436D02*
X7035444Y-19999865D01*
X7035444Y-19999865D02*
X7044967Y-19961770D01*
X7044967Y-19961770D02*
X7044967Y-19885579D01*
X7044967Y-19885579D02*
X7035444Y-19866531D01*
X7035444Y-19866531D02*
X7025920Y-19857008D01*
X7025920Y-19857008D02*
X7006872Y-19847484D01*
X7006872Y-19847484D02*
X6968777Y-19847484D01*
X6968777Y-19847484D02*
X6949729Y-19857008D01*
X6949729Y-19857008D02*
X6940206Y-19866531D01*
X6940206Y-19866531D02*
X6930682Y-19885579D01*
X6930682Y-19885579D02*
X6930682Y-19933198D01*
X6930682Y-19933198D02*
X6940206Y-19952246D01*
X6940206Y-19952246D02*
X6949729Y-19961770D01*
X6949729Y-19961770D02*
X6968777Y-19971293D01*
X6968777Y-19971293D02*
X7006872Y-19971293D01*
X7006872Y-19971293D02*
X7025920Y-19961770D01*
X7025920Y-19961770D02*
X7035444Y-19952246D01*
X7035444Y-19952246D02*
X7044967Y-19933198D01*
X7216396Y-19914150D02*
X7216396Y-20047484D01*
X7168777Y-19837960D02*
X7121158Y-19980817D01*
X7121158Y-19980817D02*
X7244967Y-19980817D01*
X7311634Y-19847484D02*
X7311634Y-19885579D01*
X7387825Y-19847484D02*
X7387825Y-19885579D01*
X7683063Y-20123674D02*
X7673539Y-20114150D01*
X7673539Y-20114150D02*
X7654491Y-20085579D01*
X7654491Y-20085579D02*
X7644968Y-20066531D01*
X7644968Y-20066531D02*
X7635444Y-20037960D01*
X7635444Y-20037960D02*
X7625920Y-19990341D01*
X7625920Y-19990341D02*
X7625920Y-19952246D01*
X7625920Y-19952246D02*
X7635444Y-19904627D01*
X7635444Y-19904627D02*
X7644968Y-19876055D01*
X7644968Y-19876055D02*
X7654491Y-19857008D01*
X7654491Y-19857008D02*
X7673539Y-19828436D01*
X7673539Y-19828436D02*
X7683063Y-19818912D01*
X7864015Y-20047484D02*
X7749729Y-20047484D01*
X7806872Y-20047484D02*
X7806872Y-19847484D01*
X7806872Y-19847484D02*
X7787825Y-19876055D01*
X7787825Y-19876055D02*
X7768777Y-19895103D01*
X7768777Y-19895103D02*
X7749729Y-19904627D01*
X8054491Y-20047484D02*
X7940206Y-20047484D01*
X7997348Y-20047484D02*
X7997348Y-19847484D01*
X7997348Y-19847484D02*
X7978301Y-19876055D01*
X7978301Y-19876055D02*
X7959253Y-19895103D01*
X7959253Y-19895103D02*
X7940206Y-19904627D01*
X8130682Y-19866531D02*
X8140206Y-19857008D01*
X8140206Y-19857008D02*
X8159253Y-19847484D01*
X8159253Y-19847484D02*
X8206872Y-19847484D01*
X8206872Y-19847484D02*
X8225920Y-19857008D01*
X8225920Y-19857008D02*
X8235444Y-19866531D01*
X8235444Y-19866531D02*
X8244968Y-19885579D01*
X8244968Y-19885579D02*
X8244968Y-19904627D01*
X8244968Y-19904627D02*
X8235444Y-19933198D01*
X8235444Y-19933198D02*
X8121158Y-20047484D01*
X8121158Y-20047484D02*
X8244968Y-20047484D01*
X8483063Y-20047484D02*
X8483063Y-19847484D01*
X8568777Y-20047484D02*
X8568777Y-19942722D01*
X8568777Y-19942722D02*
X8559253Y-19923674D01*
X8559253Y-19923674D02*
X8540206Y-19914150D01*
X8540206Y-19914150D02*
X8511634Y-19914150D01*
X8511634Y-19914150D02*
X8492587Y-19923674D01*
X8492587Y-19923674D02*
X8483063Y-19933198D01*
X8692587Y-20047484D02*
X8673539Y-20037960D01*
X8673539Y-20037960D02*
X8664015Y-20028436D01*
X8664015Y-20028436D02*
X8654492Y-20009389D01*
X8654492Y-20009389D02*
X8654492Y-19952246D01*
X8654492Y-19952246D02*
X8664015Y-19933198D01*
X8664015Y-19933198D02*
X8673539Y-19923674D01*
X8673539Y-19923674D02*
X8692587Y-19914150D01*
X8692587Y-19914150D02*
X8721158Y-19914150D01*
X8721158Y-19914150D02*
X8740206Y-19923674D01*
X8740206Y-19923674D02*
X8749730Y-19933198D01*
X8749730Y-19933198D02*
X8759253Y-19952246D01*
X8759253Y-19952246D02*
X8759253Y-20009389D01*
X8759253Y-20009389D02*
X8749730Y-20028436D01*
X8749730Y-20028436D02*
X8740206Y-20037960D01*
X8740206Y-20037960D02*
X8721158Y-20047484D01*
X8721158Y-20047484D02*
X8692587Y-20047484D01*
X8873539Y-20047484D02*
X8854492Y-20037960D01*
X8854492Y-20037960D02*
X8844968Y-20018912D01*
X8844968Y-20018912D02*
X8844968Y-19847484D01*
X9025920Y-20037960D02*
X9006873Y-20047484D01*
X9006873Y-20047484D02*
X8968777Y-20047484D01*
X8968777Y-20047484D02*
X8949730Y-20037960D01*
X8949730Y-20037960D02*
X8940206Y-20018912D01*
X8940206Y-20018912D02*
X8940206Y-19942722D01*
X8940206Y-19942722D02*
X8949730Y-19923674D01*
X8949730Y-19923674D02*
X8968777Y-19914150D01*
X8968777Y-19914150D02*
X9006873Y-19914150D01*
X9006873Y-19914150D02*
X9025920Y-19923674D01*
X9025920Y-19923674D02*
X9035444Y-19942722D01*
X9035444Y-19942722D02*
X9035444Y-19961770D01*
X9035444Y-19961770D02*
X8940206Y-19980817D01*
X9111634Y-20037960D02*
X9130682Y-20047484D01*
X9130682Y-20047484D02*
X9168777Y-20047484D01*
X9168777Y-20047484D02*
X9187825Y-20037960D01*
X9187825Y-20037960D02*
X9197349Y-20018912D01*
X9197349Y-20018912D02*
X9197349Y-20009389D01*
X9197349Y-20009389D02*
X9187825Y-19990341D01*
X9187825Y-19990341D02*
X9168777Y-19980817D01*
X9168777Y-19980817D02*
X9140206Y-19980817D01*
X9140206Y-19980817D02*
X9121158Y-19971293D01*
X9121158Y-19971293D02*
X9111634Y-19952246D01*
X9111634Y-19952246D02*
X9111634Y-19942722D01*
X9111634Y-19942722D02*
X9121158Y-19923674D01*
X9121158Y-19923674D02*
X9140206Y-19914150D01*
X9140206Y-19914150D02*
X9168777Y-19914150D01*
X9168777Y-19914150D02*
X9187825Y-19923674D01*
X9264015Y-20123674D02*
X9273539Y-20114150D01*
X9273539Y-20114150D02*
X9292587Y-20085579D01*
X9292587Y-20085579D02*
X9302111Y-20066531D01*
X9302111Y-20066531D02*
X9311634Y-20037960D01*
X9311634Y-20037960D02*
X9321158Y-19990341D01*
X9321158Y-19990341D02*
X9321158Y-19952246D01*
X9321158Y-19952246D02*
X9311634Y-19904627D01*
X9311634Y-19904627D02*
X9302111Y-19876055D01*
X9302111Y-19876055D02*
X9292587Y-19857008D01*
X9292587Y-19857008D02*
X9273539Y-19828436D01*
X9273539Y-19828436D02*
X9264015Y-19818912D01*
D15*
X4006000Y-20169000D02*
X4108000Y-20271000D01*
X4108000Y-20169000D02*
X4006000Y-20271000D01*
X4108000Y-20220000D02*
G75*
G03*
X4108000Y-20220000I-51000J0D01*
G01*
D10*
X4473539Y-20311484D02*
X4359253Y-20311484D01*
X4416396Y-20311484D02*
X4416396Y-20111484D01*
X4416396Y-20111484D02*
X4397348Y-20140055D01*
X4397348Y-20140055D02*
X4378301Y-20159103D01*
X4378301Y-20159103D02*
X4359253Y-20168627D01*
X4559253Y-20292436D02*
X4568777Y-20301960D01*
X4568777Y-20301960D02*
X4559253Y-20311484D01*
X4559253Y-20311484D02*
X4549729Y-20301960D01*
X4549729Y-20301960D02*
X4559253Y-20292436D01*
X4559253Y-20292436D02*
X4559253Y-20311484D01*
X4692586Y-20111484D02*
X4711634Y-20111484D01*
X4711634Y-20111484D02*
X4730682Y-20121008D01*
X4730682Y-20121008D02*
X4740205Y-20130531D01*
X4740205Y-20130531D02*
X4749729Y-20149579D01*
X4749729Y-20149579D02*
X4759253Y-20187674D01*
X4759253Y-20187674D02*
X4759253Y-20235293D01*
X4759253Y-20235293D02*
X4749729Y-20273389D01*
X4749729Y-20273389D02*
X4740205Y-20292436D01*
X4740205Y-20292436D02*
X4730682Y-20301960D01*
X4730682Y-20301960D02*
X4711634Y-20311484D01*
X4711634Y-20311484D02*
X4692586Y-20311484D01*
X4692586Y-20311484D02*
X4673539Y-20301960D01*
X4673539Y-20301960D02*
X4664015Y-20292436D01*
X4664015Y-20292436D02*
X4654491Y-20273389D01*
X4654491Y-20273389D02*
X4644967Y-20235293D01*
X4644967Y-20235293D02*
X4644967Y-20187674D01*
X4644967Y-20187674D02*
X4654491Y-20149579D01*
X4654491Y-20149579D02*
X4664015Y-20130531D01*
X4664015Y-20130531D02*
X4673539Y-20121008D01*
X4673539Y-20121008D02*
X4692586Y-20111484D01*
X4835444Y-20130531D02*
X4844967Y-20121008D01*
X4844967Y-20121008D02*
X4864015Y-20111484D01*
X4864015Y-20111484D02*
X4911634Y-20111484D01*
X4911634Y-20111484D02*
X4930682Y-20121008D01*
X4930682Y-20121008D02*
X4940205Y-20130531D01*
X4940205Y-20130531D02*
X4949729Y-20149579D01*
X4949729Y-20149579D02*
X4949729Y-20168627D01*
X4949729Y-20168627D02*
X4940205Y-20197198D01*
X4940205Y-20197198D02*
X4825920Y-20311484D01*
X4825920Y-20311484D02*
X4949729Y-20311484D01*
X5073539Y-20111484D02*
X5092586Y-20111484D01*
X5092586Y-20111484D02*
X5111634Y-20121008D01*
X5111634Y-20121008D02*
X5121158Y-20130531D01*
X5121158Y-20130531D02*
X5130682Y-20149579D01*
X5130682Y-20149579D02*
X5140205Y-20187674D01*
X5140205Y-20187674D02*
X5140205Y-20235293D01*
X5140205Y-20235293D02*
X5130682Y-20273389D01*
X5130682Y-20273389D02*
X5121158Y-20292436D01*
X5121158Y-20292436D02*
X5111634Y-20301960D01*
X5111634Y-20301960D02*
X5092586Y-20311484D01*
X5092586Y-20311484D02*
X5073539Y-20311484D01*
X5073539Y-20311484D02*
X5054491Y-20301960D01*
X5054491Y-20301960D02*
X5044967Y-20292436D01*
X5044967Y-20292436D02*
X5035444Y-20273389D01*
X5035444Y-20273389D02*
X5025920Y-20235293D01*
X5025920Y-20235293D02*
X5025920Y-20187674D01*
X5025920Y-20187674D02*
X5035444Y-20149579D01*
X5035444Y-20149579D02*
X5044967Y-20130531D01*
X5044967Y-20130531D02*
X5054491Y-20121008D01*
X5054491Y-20121008D02*
X5073539Y-20111484D01*
X5225920Y-20311484D02*
X5225920Y-20178150D01*
X5225920Y-20197198D02*
X5235444Y-20187674D01*
X5235444Y-20187674D02*
X5254491Y-20178150D01*
X5254491Y-20178150D02*
X5283063Y-20178150D01*
X5283063Y-20178150D02*
X5302110Y-20187674D01*
X5302110Y-20187674D02*
X5311634Y-20206722D01*
X5311634Y-20206722D02*
X5311634Y-20311484D01*
X5311634Y-20206722D02*
X5321158Y-20187674D01*
X5321158Y-20187674D02*
X5340205Y-20178150D01*
X5340205Y-20178150D02*
X5368777Y-20178150D01*
X5368777Y-20178150D02*
X5387825Y-20187674D01*
X5387825Y-20187674D02*
X5397348Y-20206722D01*
X5397348Y-20206722D02*
X5397348Y-20311484D01*
X5492586Y-20311484D02*
X5492586Y-20178150D01*
X5492586Y-20197198D02*
X5502110Y-20187674D01*
X5502110Y-20187674D02*
X5521158Y-20178150D01*
X5521158Y-20178150D02*
X5549729Y-20178150D01*
X5549729Y-20178150D02*
X5568777Y-20187674D01*
X5568777Y-20187674D02*
X5578301Y-20206722D01*
X5578301Y-20206722D02*
X5578301Y-20311484D01*
X5578301Y-20206722D02*
X5587825Y-20187674D01*
X5587825Y-20187674D02*
X5606872Y-20178150D01*
X5606872Y-20178150D02*
X5635443Y-20178150D01*
X5635443Y-20178150D02*
X5654491Y-20187674D01*
X5654491Y-20187674D02*
X5664015Y-20206722D01*
X5664015Y-20206722D02*
X5664015Y-20311484D01*
X6054491Y-20101960D02*
X5883063Y-20359103D01*
X6311634Y-20111484D02*
X6330682Y-20111484D01*
X6330682Y-20111484D02*
X6349729Y-20121008D01*
X6349729Y-20121008D02*
X6359253Y-20130531D01*
X6359253Y-20130531D02*
X6368777Y-20149579D01*
X6368777Y-20149579D02*
X6378301Y-20187674D01*
X6378301Y-20187674D02*
X6378301Y-20235293D01*
X6378301Y-20235293D02*
X6368777Y-20273389D01*
X6368777Y-20273389D02*
X6359253Y-20292436D01*
X6359253Y-20292436D02*
X6349729Y-20301960D01*
X6349729Y-20301960D02*
X6330682Y-20311484D01*
X6330682Y-20311484D02*
X6311634Y-20311484D01*
X6311634Y-20311484D02*
X6292586Y-20301960D01*
X6292586Y-20301960D02*
X6283063Y-20292436D01*
X6283063Y-20292436D02*
X6273539Y-20273389D01*
X6273539Y-20273389D02*
X6264015Y-20235293D01*
X6264015Y-20235293D02*
X6264015Y-20187674D01*
X6264015Y-20187674D02*
X6273539Y-20149579D01*
X6273539Y-20149579D02*
X6283063Y-20130531D01*
X6283063Y-20130531D02*
X6292586Y-20121008D01*
X6292586Y-20121008D02*
X6311634Y-20111484D01*
X6464015Y-20292436D02*
X6473539Y-20301960D01*
X6473539Y-20301960D02*
X6464015Y-20311484D01*
X6464015Y-20311484D02*
X6454491Y-20301960D01*
X6454491Y-20301960D02*
X6464015Y-20292436D01*
X6464015Y-20292436D02*
X6464015Y-20311484D01*
X6597348Y-20111484D02*
X6616396Y-20111484D01*
X6616396Y-20111484D02*
X6635444Y-20121008D01*
X6635444Y-20121008D02*
X6644967Y-20130531D01*
X6644967Y-20130531D02*
X6654491Y-20149579D01*
X6654491Y-20149579D02*
X6664015Y-20187674D01*
X6664015Y-20187674D02*
X6664015Y-20235293D01*
X6664015Y-20235293D02*
X6654491Y-20273389D01*
X6654491Y-20273389D02*
X6644967Y-20292436D01*
X6644967Y-20292436D02*
X6635444Y-20301960D01*
X6635444Y-20301960D02*
X6616396Y-20311484D01*
X6616396Y-20311484D02*
X6597348Y-20311484D01*
X6597348Y-20311484D02*
X6578301Y-20301960D01*
X6578301Y-20301960D02*
X6568777Y-20292436D01*
X6568777Y-20292436D02*
X6559253Y-20273389D01*
X6559253Y-20273389D02*
X6549729Y-20235293D01*
X6549729Y-20235293D02*
X6549729Y-20187674D01*
X6549729Y-20187674D02*
X6559253Y-20149579D01*
X6559253Y-20149579D02*
X6568777Y-20130531D01*
X6568777Y-20130531D02*
X6578301Y-20121008D01*
X6578301Y-20121008D02*
X6597348Y-20111484D01*
X6835444Y-20178150D02*
X6835444Y-20311484D01*
X6787825Y-20101960D02*
X6740206Y-20244817D01*
X6740206Y-20244817D02*
X6864015Y-20244817D01*
X6978301Y-20111484D02*
X6997348Y-20111484D01*
X6997348Y-20111484D02*
X7016396Y-20121008D01*
X7016396Y-20121008D02*
X7025920Y-20130531D01*
X7025920Y-20130531D02*
X7035444Y-20149579D01*
X7035444Y-20149579D02*
X7044967Y-20187674D01*
X7044967Y-20187674D02*
X7044967Y-20235293D01*
X7044967Y-20235293D02*
X7035444Y-20273389D01*
X7035444Y-20273389D02*
X7025920Y-20292436D01*
X7025920Y-20292436D02*
X7016396Y-20301960D01*
X7016396Y-20301960D02*
X6997348Y-20311484D01*
X6997348Y-20311484D02*
X6978301Y-20311484D01*
X6978301Y-20311484D02*
X6959253Y-20301960D01*
X6959253Y-20301960D02*
X6949729Y-20292436D01*
X6949729Y-20292436D02*
X6940206Y-20273389D01*
X6940206Y-20273389D02*
X6930682Y-20235293D01*
X6930682Y-20235293D02*
X6930682Y-20187674D01*
X6930682Y-20187674D02*
X6940206Y-20149579D01*
X6940206Y-20149579D02*
X6949729Y-20130531D01*
X6949729Y-20130531D02*
X6959253Y-20121008D01*
X6959253Y-20121008D02*
X6978301Y-20111484D01*
X7121158Y-20130531D02*
X7130682Y-20121008D01*
X7130682Y-20121008D02*
X7149729Y-20111484D01*
X7149729Y-20111484D02*
X7197348Y-20111484D01*
X7197348Y-20111484D02*
X7216396Y-20121008D01*
X7216396Y-20121008D02*
X7225920Y-20130531D01*
X7225920Y-20130531D02*
X7235444Y-20149579D01*
X7235444Y-20149579D02*
X7235444Y-20168627D01*
X7235444Y-20168627D02*
X7225920Y-20197198D01*
X7225920Y-20197198D02*
X7111634Y-20311484D01*
X7111634Y-20311484D02*
X7235444Y-20311484D01*
X7311634Y-20111484D02*
X7311634Y-20149579D01*
X7387825Y-20111484D02*
X7387825Y-20149579D01*
X7683063Y-20387674D02*
X7673539Y-20378150D01*
X7673539Y-20378150D02*
X7654491Y-20349579D01*
X7654491Y-20349579D02*
X7644968Y-20330531D01*
X7644968Y-20330531D02*
X7635444Y-20301960D01*
X7635444Y-20301960D02*
X7625920Y-20254341D01*
X7625920Y-20254341D02*
X7625920Y-20216246D01*
X7625920Y-20216246D02*
X7635444Y-20168627D01*
X7635444Y-20168627D02*
X7644968Y-20140055D01*
X7644968Y-20140055D02*
X7654491Y-20121008D01*
X7654491Y-20121008D02*
X7673539Y-20092436D01*
X7673539Y-20092436D02*
X7683063Y-20082912D01*
X7740206Y-20111484D02*
X7864015Y-20111484D01*
X7864015Y-20111484D02*
X7797348Y-20187674D01*
X7797348Y-20187674D02*
X7825920Y-20187674D01*
X7825920Y-20187674D02*
X7844968Y-20197198D01*
X7844968Y-20197198D02*
X7854491Y-20206722D01*
X7854491Y-20206722D02*
X7864015Y-20225770D01*
X7864015Y-20225770D02*
X7864015Y-20273389D01*
X7864015Y-20273389D02*
X7854491Y-20292436D01*
X7854491Y-20292436D02*
X7844968Y-20301960D01*
X7844968Y-20301960D02*
X7825920Y-20311484D01*
X7825920Y-20311484D02*
X7768777Y-20311484D01*
X7768777Y-20311484D02*
X7749729Y-20301960D01*
X7749729Y-20301960D02*
X7740206Y-20292436D01*
X7987825Y-20111484D02*
X8006872Y-20111484D01*
X8006872Y-20111484D02*
X8025920Y-20121008D01*
X8025920Y-20121008D02*
X8035444Y-20130531D01*
X8035444Y-20130531D02*
X8044968Y-20149579D01*
X8044968Y-20149579D02*
X8054491Y-20187674D01*
X8054491Y-20187674D02*
X8054491Y-20235293D01*
X8054491Y-20235293D02*
X8044968Y-20273389D01*
X8044968Y-20273389D02*
X8035444Y-20292436D01*
X8035444Y-20292436D02*
X8025920Y-20301960D01*
X8025920Y-20301960D02*
X8006872Y-20311484D01*
X8006872Y-20311484D02*
X7987825Y-20311484D01*
X7987825Y-20311484D02*
X7968777Y-20301960D01*
X7968777Y-20301960D02*
X7959253Y-20292436D01*
X7959253Y-20292436D02*
X7949729Y-20273389D01*
X7949729Y-20273389D02*
X7940206Y-20235293D01*
X7940206Y-20235293D02*
X7940206Y-20187674D01*
X7940206Y-20187674D02*
X7949729Y-20149579D01*
X7949729Y-20149579D02*
X7959253Y-20130531D01*
X7959253Y-20130531D02*
X7968777Y-20121008D01*
X7968777Y-20121008D02*
X7987825Y-20111484D01*
X8292587Y-20311484D02*
X8292587Y-20111484D01*
X8378301Y-20311484D02*
X8378301Y-20206722D01*
X8378301Y-20206722D02*
X8368777Y-20187674D01*
X8368777Y-20187674D02*
X8349730Y-20178150D01*
X8349730Y-20178150D02*
X8321158Y-20178150D01*
X8321158Y-20178150D02*
X8302110Y-20187674D01*
X8302110Y-20187674D02*
X8292587Y-20197198D01*
X8502111Y-20311484D02*
X8483063Y-20301960D01*
X8483063Y-20301960D02*
X8473539Y-20292436D01*
X8473539Y-20292436D02*
X8464015Y-20273389D01*
X8464015Y-20273389D02*
X8464015Y-20216246D01*
X8464015Y-20216246D02*
X8473539Y-20197198D01*
X8473539Y-20197198D02*
X8483063Y-20187674D01*
X8483063Y-20187674D02*
X8502111Y-20178150D01*
X8502111Y-20178150D02*
X8530682Y-20178150D01*
X8530682Y-20178150D02*
X8549730Y-20187674D01*
X8549730Y-20187674D02*
X8559253Y-20197198D01*
X8559253Y-20197198D02*
X8568777Y-20216246D01*
X8568777Y-20216246D02*
X8568777Y-20273389D01*
X8568777Y-20273389D02*
X8559253Y-20292436D01*
X8559253Y-20292436D02*
X8549730Y-20301960D01*
X8549730Y-20301960D02*
X8530682Y-20311484D01*
X8530682Y-20311484D02*
X8502111Y-20311484D01*
X8683063Y-20311484D02*
X8664015Y-20301960D01*
X8664015Y-20301960D02*
X8654492Y-20282912D01*
X8654492Y-20282912D02*
X8654492Y-20111484D01*
X8835444Y-20301960D02*
X8816396Y-20311484D01*
X8816396Y-20311484D02*
X8778301Y-20311484D01*
X8778301Y-20311484D02*
X8759253Y-20301960D01*
X8759253Y-20301960D02*
X8749730Y-20282912D01*
X8749730Y-20282912D02*
X8749730Y-20206722D01*
X8749730Y-20206722D02*
X8759253Y-20187674D01*
X8759253Y-20187674D02*
X8778301Y-20178150D01*
X8778301Y-20178150D02*
X8816396Y-20178150D01*
X8816396Y-20178150D02*
X8835444Y-20187674D01*
X8835444Y-20187674D02*
X8844968Y-20206722D01*
X8844968Y-20206722D02*
X8844968Y-20225770D01*
X8844968Y-20225770D02*
X8749730Y-20244817D01*
X8921158Y-20301960D02*
X8940206Y-20311484D01*
X8940206Y-20311484D02*
X8978301Y-20311484D01*
X8978301Y-20311484D02*
X8997349Y-20301960D01*
X8997349Y-20301960D02*
X9006873Y-20282912D01*
X9006873Y-20282912D02*
X9006873Y-20273389D01*
X9006873Y-20273389D02*
X8997349Y-20254341D01*
X8997349Y-20254341D02*
X8978301Y-20244817D01*
X8978301Y-20244817D02*
X8949730Y-20244817D01*
X8949730Y-20244817D02*
X8930682Y-20235293D01*
X8930682Y-20235293D02*
X8921158Y-20216246D01*
X8921158Y-20216246D02*
X8921158Y-20206722D01*
X8921158Y-20206722D02*
X8930682Y-20187674D01*
X8930682Y-20187674D02*
X8949730Y-20178150D01*
X8949730Y-20178150D02*
X8978301Y-20178150D01*
X8978301Y-20178150D02*
X8997349Y-20187674D01*
X9073539Y-20387674D02*
X9083063Y-20378150D01*
X9083063Y-20378150D02*
X9102111Y-20349579D01*
X9102111Y-20349579D02*
X9111634Y-20330531D01*
X9111634Y-20330531D02*
X9121158Y-20301960D01*
X9121158Y-20301960D02*
X9130682Y-20254341D01*
X9130682Y-20254341D02*
X9130682Y-20216246D01*
X9130682Y-20216246D02*
X9121158Y-20168627D01*
X9121158Y-20168627D02*
X9111634Y-20140055D01*
X9111634Y-20140055D02*
X9102111Y-20121008D01*
X9102111Y-20121008D02*
X9083063Y-20092436D01*
X9083063Y-20092436D02*
X9073539Y-20082912D01*
D15*
X4006000Y-20433000D02*
X4108000Y-20535000D01*
X4108000Y-20433000D02*
X4006000Y-20535000D01*
X4057000Y-20433000D02*
X4057000Y-20535000D01*
X4006000Y-20484000D02*
X4108000Y-20484000D01*
D10*
X4473539Y-20575484D02*
X4359253Y-20575484D01*
X4416396Y-20575484D02*
X4416396Y-20375484D01*
X4416396Y-20375484D02*
X4397348Y-20404055D01*
X4397348Y-20404055D02*
X4378301Y-20423103D01*
X4378301Y-20423103D02*
X4359253Y-20432627D01*
X4559253Y-20556436D02*
X4568777Y-20565960D01*
X4568777Y-20565960D02*
X4559253Y-20575484D01*
X4559253Y-20575484D02*
X4549729Y-20565960D01*
X4549729Y-20565960D02*
X4559253Y-20556436D01*
X4559253Y-20556436D02*
X4559253Y-20575484D01*
X4692586Y-20375484D02*
X4711634Y-20375484D01*
X4711634Y-20375484D02*
X4730682Y-20385008D01*
X4730682Y-20385008D02*
X4740205Y-20394531D01*
X4740205Y-20394531D02*
X4749729Y-20413579D01*
X4749729Y-20413579D02*
X4759253Y-20451674D01*
X4759253Y-20451674D02*
X4759253Y-20499293D01*
X4759253Y-20499293D02*
X4749729Y-20537389D01*
X4749729Y-20537389D02*
X4740205Y-20556436D01*
X4740205Y-20556436D02*
X4730682Y-20565960D01*
X4730682Y-20565960D02*
X4711634Y-20575484D01*
X4711634Y-20575484D02*
X4692586Y-20575484D01*
X4692586Y-20575484D02*
X4673539Y-20565960D01*
X4673539Y-20565960D02*
X4664015Y-20556436D01*
X4664015Y-20556436D02*
X4654491Y-20537389D01*
X4654491Y-20537389D02*
X4644967Y-20499293D01*
X4644967Y-20499293D02*
X4644967Y-20451674D01*
X4644967Y-20451674D02*
X4654491Y-20413579D01*
X4654491Y-20413579D02*
X4664015Y-20394531D01*
X4664015Y-20394531D02*
X4673539Y-20385008D01*
X4673539Y-20385008D02*
X4692586Y-20375484D01*
X4835444Y-20394531D02*
X4844967Y-20385008D01*
X4844967Y-20385008D02*
X4864015Y-20375484D01*
X4864015Y-20375484D02*
X4911634Y-20375484D01*
X4911634Y-20375484D02*
X4930682Y-20385008D01*
X4930682Y-20385008D02*
X4940205Y-20394531D01*
X4940205Y-20394531D02*
X4949729Y-20413579D01*
X4949729Y-20413579D02*
X4949729Y-20432627D01*
X4949729Y-20432627D02*
X4940205Y-20461198D01*
X4940205Y-20461198D02*
X4825920Y-20575484D01*
X4825920Y-20575484D02*
X4949729Y-20575484D01*
X5073539Y-20375484D02*
X5092586Y-20375484D01*
X5092586Y-20375484D02*
X5111634Y-20385008D01*
X5111634Y-20385008D02*
X5121158Y-20394531D01*
X5121158Y-20394531D02*
X5130682Y-20413579D01*
X5130682Y-20413579D02*
X5140205Y-20451674D01*
X5140205Y-20451674D02*
X5140205Y-20499293D01*
X5140205Y-20499293D02*
X5130682Y-20537389D01*
X5130682Y-20537389D02*
X5121158Y-20556436D01*
X5121158Y-20556436D02*
X5111634Y-20565960D01*
X5111634Y-20565960D02*
X5092586Y-20575484D01*
X5092586Y-20575484D02*
X5073539Y-20575484D01*
X5073539Y-20575484D02*
X5054491Y-20565960D01*
X5054491Y-20565960D02*
X5044967Y-20556436D01*
X5044967Y-20556436D02*
X5035444Y-20537389D01*
X5035444Y-20537389D02*
X5025920Y-20499293D01*
X5025920Y-20499293D02*
X5025920Y-20451674D01*
X5025920Y-20451674D02*
X5035444Y-20413579D01*
X5035444Y-20413579D02*
X5044967Y-20394531D01*
X5044967Y-20394531D02*
X5054491Y-20385008D01*
X5054491Y-20385008D02*
X5073539Y-20375484D01*
X5225920Y-20575484D02*
X5225920Y-20442150D01*
X5225920Y-20461198D02*
X5235444Y-20451674D01*
X5235444Y-20451674D02*
X5254491Y-20442150D01*
X5254491Y-20442150D02*
X5283063Y-20442150D01*
X5283063Y-20442150D02*
X5302110Y-20451674D01*
X5302110Y-20451674D02*
X5311634Y-20470722D01*
X5311634Y-20470722D02*
X5311634Y-20575484D01*
X5311634Y-20470722D02*
X5321158Y-20451674D01*
X5321158Y-20451674D02*
X5340205Y-20442150D01*
X5340205Y-20442150D02*
X5368777Y-20442150D01*
X5368777Y-20442150D02*
X5387825Y-20451674D01*
X5387825Y-20451674D02*
X5397348Y-20470722D01*
X5397348Y-20470722D02*
X5397348Y-20575484D01*
X5492586Y-20575484D02*
X5492586Y-20442150D01*
X5492586Y-20461198D02*
X5502110Y-20451674D01*
X5502110Y-20451674D02*
X5521158Y-20442150D01*
X5521158Y-20442150D02*
X5549729Y-20442150D01*
X5549729Y-20442150D02*
X5568777Y-20451674D01*
X5568777Y-20451674D02*
X5578301Y-20470722D01*
X5578301Y-20470722D02*
X5578301Y-20575484D01*
X5578301Y-20470722D02*
X5587825Y-20451674D01*
X5587825Y-20451674D02*
X5606872Y-20442150D01*
X5606872Y-20442150D02*
X5635443Y-20442150D01*
X5635443Y-20442150D02*
X5654491Y-20451674D01*
X5654491Y-20451674D02*
X5664015Y-20470722D01*
X5664015Y-20470722D02*
X5664015Y-20575484D01*
X6054491Y-20365960D02*
X5883063Y-20623103D01*
X6311634Y-20375484D02*
X6330682Y-20375484D01*
X6330682Y-20375484D02*
X6349729Y-20385008D01*
X6349729Y-20385008D02*
X6359253Y-20394531D01*
X6359253Y-20394531D02*
X6368777Y-20413579D01*
X6368777Y-20413579D02*
X6378301Y-20451674D01*
X6378301Y-20451674D02*
X6378301Y-20499293D01*
X6378301Y-20499293D02*
X6368777Y-20537389D01*
X6368777Y-20537389D02*
X6359253Y-20556436D01*
X6359253Y-20556436D02*
X6349729Y-20565960D01*
X6349729Y-20565960D02*
X6330682Y-20575484D01*
X6330682Y-20575484D02*
X6311634Y-20575484D01*
X6311634Y-20575484D02*
X6292586Y-20565960D01*
X6292586Y-20565960D02*
X6283063Y-20556436D01*
X6283063Y-20556436D02*
X6273539Y-20537389D01*
X6273539Y-20537389D02*
X6264015Y-20499293D01*
X6264015Y-20499293D02*
X6264015Y-20451674D01*
X6264015Y-20451674D02*
X6273539Y-20413579D01*
X6273539Y-20413579D02*
X6283063Y-20394531D01*
X6283063Y-20394531D02*
X6292586Y-20385008D01*
X6292586Y-20385008D02*
X6311634Y-20375484D01*
X6464015Y-20556436D02*
X6473539Y-20565960D01*
X6473539Y-20565960D02*
X6464015Y-20575484D01*
X6464015Y-20575484D02*
X6454491Y-20565960D01*
X6454491Y-20565960D02*
X6464015Y-20556436D01*
X6464015Y-20556436D02*
X6464015Y-20575484D01*
X6597348Y-20375484D02*
X6616396Y-20375484D01*
X6616396Y-20375484D02*
X6635444Y-20385008D01*
X6635444Y-20385008D02*
X6644967Y-20394531D01*
X6644967Y-20394531D02*
X6654491Y-20413579D01*
X6654491Y-20413579D02*
X6664015Y-20451674D01*
X6664015Y-20451674D02*
X6664015Y-20499293D01*
X6664015Y-20499293D02*
X6654491Y-20537389D01*
X6654491Y-20537389D02*
X6644967Y-20556436D01*
X6644967Y-20556436D02*
X6635444Y-20565960D01*
X6635444Y-20565960D02*
X6616396Y-20575484D01*
X6616396Y-20575484D02*
X6597348Y-20575484D01*
X6597348Y-20575484D02*
X6578301Y-20565960D01*
X6578301Y-20565960D02*
X6568777Y-20556436D01*
X6568777Y-20556436D02*
X6559253Y-20537389D01*
X6559253Y-20537389D02*
X6549729Y-20499293D01*
X6549729Y-20499293D02*
X6549729Y-20451674D01*
X6549729Y-20451674D02*
X6559253Y-20413579D01*
X6559253Y-20413579D02*
X6568777Y-20394531D01*
X6568777Y-20394531D02*
X6578301Y-20385008D01*
X6578301Y-20385008D02*
X6597348Y-20375484D01*
X6835444Y-20442150D02*
X6835444Y-20575484D01*
X6787825Y-20365960D02*
X6740206Y-20508817D01*
X6740206Y-20508817D02*
X6864015Y-20508817D01*
X6978301Y-20375484D02*
X6997348Y-20375484D01*
X6997348Y-20375484D02*
X7016396Y-20385008D01*
X7016396Y-20385008D02*
X7025920Y-20394531D01*
X7025920Y-20394531D02*
X7035444Y-20413579D01*
X7035444Y-20413579D02*
X7044967Y-20451674D01*
X7044967Y-20451674D02*
X7044967Y-20499293D01*
X7044967Y-20499293D02*
X7035444Y-20537389D01*
X7035444Y-20537389D02*
X7025920Y-20556436D01*
X7025920Y-20556436D02*
X7016396Y-20565960D01*
X7016396Y-20565960D02*
X6997348Y-20575484D01*
X6997348Y-20575484D02*
X6978301Y-20575484D01*
X6978301Y-20575484D02*
X6959253Y-20565960D01*
X6959253Y-20565960D02*
X6949729Y-20556436D01*
X6949729Y-20556436D02*
X6940206Y-20537389D01*
X6940206Y-20537389D02*
X6930682Y-20499293D01*
X6930682Y-20499293D02*
X6930682Y-20451674D01*
X6930682Y-20451674D02*
X6940206Y-20413579D01*
X6940206Y-20413579D02*
X6949729Y-20394531D01*
X6949729Y-20394531D02*
X6959253Y-20385008D01*
X6959253Y-20385008D02*
X6978301Y-20375484D01*
X7121158Y-20394531D02*
X7130682Y-20385008D01*
X7130682Y-20385008D02*
X7149729Y-20375484D01*
X7149729Y-20375484D02*
X7197348Y-20375484D01*
X7197348Y-20375484D02*
X7216396Y-20385008D01*
X7216396Y-20385008D02*
X7225920Y-20394531D01*
X7225920Y-20394531D02*
X7235444Y-20413579D01*
X7235444Y-20413579D02*
X7235444Y-20432627D01*
X7235444Y-20432627D02*
X7225920Y-20461198D01*
X7225920Y-20461198D02*
X7111634Y-20575484D01*
X7111634Y-20575484D02*
X7235444Y-20575484D01*
X7311634Y-20375484D02*
X7311634Y-20413579D01*
X7387825Y-20375484D02*
X7387825Y-20413579D01*
X7683063Y-20651674D02*
X7673539Y-20642150D01*
X7673539Y-20642150D02*
X7654491Y-20613579D01*
X7654491Y-20613579D02*
X7644968Y-20594531D01*
X7644968Y-20594531D02*
X7635444Y-20565960D01*
X7635444Y-20565960D02*
X7625920Y-20518341D01*
X7625920Y-20518341D02*
X7625920Y-20480246D01*
X7625920Y-20480246D02*
X7635444Y-20432627D01*
X7635444Y-20432627D02*
X7644968Y-20404055D01*
X7644968Y-20404055D02*
X7654491Y-20385008D01*
X7654491Y-20385008D02*
X7673539Y-20356436D01*
X7673539Y-20356436D02*
X7683063Y-20346912D01*
X7740206Y-20375484D02*
X7864015Y-20375484D01*
X7864015Y-20375484D02*
X7797348Y-20451674D01*
X7797348Y-20451674D02*
X7825920Y-20451674D01*
X7825920Y-20451674D02*
X7844968Y-20461198D01*
X7844968Y-20461198D02*
X7854491Y-20470722D01*
X7854491Y-20470722D02*
X7864015Y-20489770D01*
X7864015Y-20489770D02*
X7864015Y-20537389D01*
X7864015Y-20537389D02*
X7854491Y-20556436D01*
X7854491Y-20556436D02*
X7844968Y-20565960D01*
X7844968Y-20565960D02*
X7825920Y-20575484D01*
X7825920Y-20575484D02*
X7768777Y-20575484D01*
X7768777Y-20575484D02*
X7749729Y-20565960D01*
X7749729Y-20565960D02*
X7740206Y-20556436D01*
X8035444Y-20442150D02*
X8035444Y-20575484D01*
X7987825Y-20365960D02*
X7940206Y-20508817D01*
X7940206Y-20508817D02*
X8064015Y-20508817D01*
X8292587Y-20575484D02*
X8292587Y-20375484D01*
X8378301Y-20575484D02*
X8378301Y-20470722D01*
X8378301Y-20470722D02*
X8368777Y-20451674D01*
X8368777Y-20451674D02*
X8349730Y-20442150D01*
X8349730Y-20442150D02*
X8321158Y-20442150D01*
X8321158Y-20442150D02*
X8302110Y-20451674D01*
X8302110Y-20451674D02*
X8292587Y-20461198D01*
X8502111Y-20575484D02*
X8483063Y-20565960D01*
X8483063Y-20565960D02*
X8473539Y-20556436D01*
X8473539Y-20556436D02*
X8464015Y-20537389D01*
X8464015Y-20537389D02*
X8464015Y-20480246D01*
X8464015Y-20480246D02*
X8473539Y-20461198D01*
X8473539Y-20461198D02*
X8483063Y-20451674D01*
X8483063Y-20451674D02*
X8502111Y-20442150D01*
X8502111Y-20442150D02*
X8530682Y-20442150D01*
X8530682Y-20442150D02*
X8549730Y-20451674D01*
X8549730Y-20451674D02*
X8559253Y-20461198D01*
X8559253Y-20461198D02*
X8568777Y-20480246D01*
X8568777Y-20480246D02*
X8568777Y-20537389D01*
X8568777Y-20537389D02*
X8559253Y-20556436D01*
X8559253Y-20556436D02*
X8549730Y-20565960D01*
X8549730Y-20565960D02*
X8530682Y-20575484D01*
X8530682Y-20575484D02*
X8502111Y-20575484D01*
X8683063Y-20575484D02*
X8664015Y-20565960D01*
X8664015Y-20565960D02*
X8654492Y-20546912D01*
X8654492Y-20546912D02*
X8654492Y-20375484D01*
X8835444Y-20565960D02*
X8816396Y-20575484D01*
X8816396Y-20575484D02*
X8778301Y-20575484D01*
X8778301Y-20575484D02*
X8759253Y-20565960D01*
X8759253Y-20565960D02*
X8749730Y-20546912D01*
X8749730Y-20546912D02*
X8749730Y-20470722D01*
X8749730Y-20470722D02*
X8759253Y-20451674D01*
X8759253Y-20451674D02*
X8778301Y-20442150D01*
X8778301Y-20442150D02*
X8816396Y-20442150D01*
X8816396Y-20442150D02*
X8835444Y-20451674D01*
X8835444Y-20451674D02*
X8844968Y-20470722D01*
X8844968Y-20470722D02*
X8844968Y-20489770D01*
X8844968Y-20489770D02*
X8749730Y-20508817D01*
X8921158Y-20565960D02*
X8940206Y-20575484D01*
X8940206Y-20575484D02*
X8978301Y-20575484D01*
X8978301Y-20575484D02*
X8997349Y-20565960D01*
X8997349Y-20565960D02*
X9006873Y-20546912D01*
X9006873Y-20546912D02*
X9006873Y-20537389D01*
X9006873Y-20537389D02*
X8997349Y-20518341D01*
X8997349Y-20518341D02*
X8978301Y-20508817D01*
X8978301Y-20508817D02*
X8949730Y-20508817D01*
X8949730Y-20508817D02*
X8930682Y-20499293D01*
X8930682Y-20499293D02*
X8921158Y-20480246D01*
X8921158Y-20480246D02*
X8921158Y-20470722D01*
X8921158Y-20470722D02*
X8930682Y-20451674D01*
X8930682Y-20451674D02*
X8949730Y-20442150D01*
X8949730Y-20442150D02*
X8978301Y-20442150D01*
X8978301Y-20442150D02*
X8997349Y-20451674D01*
X9073539Y-20651674D02*
X9083063Y-20642150D01*
X9083063Y-20642150D02*
X9102111Y-20613579D01*
X9102111Y-20613579D02*
X9111634Y-20594531D01*
X9111634Y-20594531D02*
X9121158Y-20565960D01*
X9121158Y-20565960D02*
X9130682Y-20518341D01*
X9130682Y-20518341D02*
X9130682Y-20480246D01*
X9130682Y-20480246D02*
X9121158Y-20432627D01*
X9121158Y-20432627D02*
X9111634Y-20404055D01*
X9111634Y-20404055D02*
X9102111Y-20385008D01*
X9102111Y-20385008D02*
X9083063Y-20356436D01*
X9083063Y-20356436D02*
X9073539Y-20346912D01*
D16*
X3998000Y-20693000D02*
X4108000Y-20803000D01*
X4108000Y-20693000D02*
X3998000Y-20803000D01*
X4091891Y-20786891D02*
X4091891Y-20709109D01*
X4014109Y-20709109D01*
X4014109Y-20786891D01*
X4091891Y-20786891D01*
D10*
X4473539Y-20839484D02*
X4359253Y-20839484D01*
X4416396Y-20839484D02*
X4416396Y-20639484D01*
X4416396Y-20639484D02*
X4397348Y-20668055D01*
X4397348Y-20668055D02*
X4378301Y-20687103D01*
X4378301Y-20687103D02*
X4359253Y-20696627D01*
X4559253Y-20820436D02*
X4568777Y-20829960D01*
X4568777Y-20829960D02*
X4559253Y-20839484D01*
X4559253Y-20839484D02*
X4549729Y-20829960D01*
X4549729Y-20829960D02*
X4559253Y-20820436D01*
X4559253Y-20820436D02*
X4559253Y-20839484D01*
X4759253Y-20839484D02*
X4644967Y-20839484D01*
X4702110Y-20839484D02*
X4702110Y-20639484D01*
X4702110Y-20639484D02*
X4683063Y-20668055D01*
X4683063Y-20668055D02*
X4664015Y-20687103D01*
X4664015Y-20687103D02*
X4644967Y-20696627D01*
X4883063Y-20639484D02*
X4902110Y-20639484D01*
X4902110Y-20639484D02*
X4921158Y-20649008D01*
X4921158Y-20649008D02*
X4930682Y-20658531D01*
X4930682Y-20658531D02*
X4940205Y-20677579D01*
X4940205Y-20677579D02*
X4949729Y-20715674D01*
X4949729Y-20715674D02*
X4949729Y-20763293D01*
X4949729Y-20763293D02*
X4940205Y-20801389D01*
X4940205Y-20801389D02*
X4930682Y-20820436D01*
X4930682Y-20820436D02*
X4921158Y-20829960D01*
X4921158Y-20829960D02*
X4902110Y-20839484D01*
X4902110Y-20839484D02*
X4883063Y-20839484D01*
X4883063Y-20839484D02*
X4864015Y-20829960D01*
X4864015Y-20829960D02*
X4854491Y-20820436D01*
X4854491Y-20820436D02*
X4844967Y-20801389D01*
X4844967Y-20801389D02*
X4835444Y-20763293D01*
X4835444Y-20763293D02*
X4835444Y-20715674D01*
X4835444Y-20715674D02*
X4844967Y-20677579D01*
X4844967Y-20677579D02*
X4854491Y-20658531D01*
X4854491Y-20658531D02*
X4864015Y-20649008D01*
X4864015Y-20649008D02*
X4883063Y-20639484D01*
X5073539Y-20639484D02*
X5092586Y-20639484D01*
X5092586Y-20639484D02*
X5111634Y-20649008D01*
X5111634Y-20649008D02*
X5121158Y-20658531D01*
X5121158Y-20658531D02*
X5130682Y-20677579D01*
X5130682Y-20677579D02*
X5140205Y-20715674D01*
X5140205Y-20715674D02*
X5140205Y-20763293D01*
X5140205Y-20763293D02*
X5130682Y-20801389D01*
X5130682Y-20801389D02*
X5121158Y-20820436D01*
X5121158Y-20820436D02*
X5111634Y-20829960D01*
X5111634Y-20829960D02*
X5092586Y-20839484D01*
X5092586Y-20839484D02*
X5073539Y-20839484D01*
X5073539Y-20839484D02*
X5054491Y-20829960D01*
X5054491Y-20829960D02*
X5044967Y-20820436D01*
X5044967Y-20820436D02*
X5035444Y-20801389D01*
X5035444Y-20801389D02*
X5025920Y-20763293D01*
X5025920Y-20763293D02*
X5025920Y-20715674D01*
X5025920Y-20715674D02*
X5035444Y-20677579D01*
X5035444Y-20677579D02*
X5044967Y-20658531D01*
X5044967Y-20658531D02*
X5054491Y-20649008D01*
X5054491Y-20649008D02*
X5073539Y-20639484D01*
X5225920Y-20839484D02*
X5225920Y-20706150D01*
X5225920Y-20725198D02*
X5235444Y-20715674D01*
X5235444Y-20715674D02*
X5254491Y-20706150D01*
X5254491Y-20706150D02*
X5283063Y-20706150D01*
X5283063Y-20706150D02*
X5302110Y-20715674D01*
X5302110Y-20715674D02*
X5311634Y-20734722D01*
X5311634Y-20734722D02*
X5311634Y-20839484D01*
X5311634Y-20734722D02*
X5321158Y-20715674D01*
X5321158Y-20715674D02*
X5340205Y-20706150D01*
X5340205Y-20706150D02*
X5368777Y-20706150D01*
X5368777Y-20706150D02*
X5387825Y-20715674D01*
X5387825Y-20715674D02*
X5397348Y-20734722D01*
X5397348Y-20734722D02*
X5397348Y-20839484D01*
X5492586Y-20839484D02*
X5492586Y-20706150D01*
X5492586Y-20725198D02*
X5502110Y-20715674D01*
X5502110Y-20715674D02*
X5521158Y-20706150D01*
X5521158Y-20706150D02*
X5549729Y-20706150D01*
X5549729Y-20706150D02*
X5568777Y-20715674D01*
X5568777Y-20715674D02*
X5578301Y-20734722D01*
X5578301Y-20734722D02*
X5578301Y-20839484D01*
X5578301Y-20734722D02*
X5587825Y-20715674D01*
X5587825Y-20715674D02*
X5606872Y-20706150D01*
X5606872Y-20706150D02*
X5635443Y-20706150D01*
X5635443Y-20706150D02*
X5654491Y-20715674D01*
X5654491Y-20715674D02*
X5664015Y-20734722D01*
X5664015Y-20734722D02*
X5664015Y-20839484D01*
X6054491Y-20629960D02*
X5883063Y-20887103D01*
X6311634Y-20639484D02*
X6330682Y-20639484D01*
X6330682Y-20639484D02*
X6349729Y-20649008D01*
X6349729Y-20649008D02*
X6359253Y-20658531D01*
X6359253Y-20658531D02*
X6368777Y-20677579D01*
X6368777Y-20677579D02*
X6378301Y-20715674D01*
X6378301Y-20715674D02*
X6378301Y-20763293D01*
X6378301Y-20763293D02*
X6368777Y-20801389D01*
X6368777Y-20801389D02*
X6359253Y-20820436D01*
X6359253Y-20820436D02*
X6349729Y-20829960D01*
X6349729Y-20829960D02*
X6330682Y-20839484D01*
X6330682Y-20839484D02*
X6311634Y-20839484D01*
X6311634Y-20839484D02*
X6292586Y-20829960D01*
X6292586Y-20829960D02*
X6283063Y-20820436D01*
X6283063Y-20820436D02*
X6273539Y-20801389D01*
X6273539Y-20801389D02*
X6264015Y-20763293D01*
X6264015Y-20763293D02*
X6264015Y-20715674D01*
X6264015Y-20715674D02*
X6273539Y-20677579D01*
X6273539Y-20677579D02*
X6283063Y-20658531D01*
X6283063Y-20658531D02*
X6292586Y-20649008D01*
X6292586Y-20649008D02*
X6311634Y-20639484D01*
X6464015Y-20820436D02*
X6473539Y-20829960D01*
X6473539Y-20829960D02*
X6464015Y-20839484D01*
X6464015Y-20839484D02*
X6454491Y-20829960D01*
X6454491Y-20829960D02*
X6464015Y-20820436D01*
X6464015Y-20820436D02*
X6464015Y-20839484D01*
X6597348Y-20639484D02*
X6616396Y-20639484D01*
X6616396Y-20639484D02*
X6635444Y-20649008D01*
X6635444Y-20649008D02*
X6644967Y-20658531D01*
X6644967Y-20658531D02*
X6654491Y-20677579D01*
X6654491Y-20677579D02*
X6664015Y-20715674D01*
X6664015Y-20715674D02*
X6664015Y-20763293D01*
X6664015Y-20763293D02*
X6654491Y-20801389D01*
X6654491Y-20801389D02*
X6644967Y-20820436D01*
X6644967Y-20820436D02*
X6635444Y-20829960D01*
X6635444Y-20829960D02*
X6616396Y-20839484D01*
X6616396Y-20839484D02*
X6597348Y-20839484D01*
X6597348Y-20839484D02*
X6578301Y-20829960D01*
X6578301Y-20829960D02*
X6568777Y-20820436D01*
X6568777Y-20820436D02*
X6559253Y-20801389D01*
X6559253Y-20801389D02*
X6549729Y-20763293D01*
X6549729Y-20763293D02*
X6549729Y-20715674D01*
X6549729Y-20715674D02*
X6559253Y-20677579D01*
X6559253Y-20677579D02*
X6568777Y-20658531D01*
X6568777Y-20658531D02*
X6578301Y-20649008D01*
X6578301Y-20649008D02*
X6597348Y-20639484D01*
X6835444Y-20706150D02*
X6835444Y-20839484D01*
X6787825Y-20629960D02*
X6740206Y-20772817D01*
X6740206Y-20772817D02*
X6864015Y-20772817D01*
X6921158Y-20639484D02*
X7044967Y-20639484D01*
X7044967Y-20639484D02*
X6978301Y-20715674D01*
X6978301Y-20715674D02*
X7006872Y-20715674D01*
X7006872Y-20715674D02*
X7025920Y-20725198D01*
X7025920Y-20725198D02*
X7035444Y-20734722D01*
X7035444Y-20734722D02*
X7044967Y-20753770D01*
X7044967Y-20753770D02*
X7044967Y-20801389D01*
X7044967Y-20801389D02*
X7035444Y-20820436D01*
X7035444Y-20820436D02*
X7025920Y-20829960D01*
X7025920Y-20829960D02*
X7006872Y-20839484D01*
X7006872Y-20839484D02*
X6949729Y-20839484D01*
X6949729Y-20839484D02*
X6930682Y-20829960D01*
X6930682Y-20829960D02*
X6921158Y-20820436D01*
X7111634Y-20639484D02*
X7235444Y-20639484D01*
X7235444Y-20639484D02*
X7168777Y-20715674D01*
X7168777Y-20715674D02*
X7197348Y-20715674D01*
X7197348Y-20715674D02*
X7216396Y-20725198D01*
X7216396Y-20725198D02*
X7225920Y-20734722D01*
X7225920Y-20734722D02*
X7235444Y-20753770D01*
X7235444Y-20753770D02*
X7235444Y-20801389D01*
X7235444Y-20801389D02*
X7225920Y-20820436D01*
X7225920Y-20820436D02*
X7216396Y-20829960D01*
X7216396Y-20829960D02*
X7197348Y-20839484D01*
X7197348Y-20839484D02*
X7140206Y-20839484D01*
X7140206Y-20839484D02*
X7121158Y-20829960D01*
X7121158Y-20829960D02*
X7111634Y-20820436D01*
X7311634Y-20639484D02*
X7311634Y-20677579D01*
X7387825Y-20639484D02*
X7387825Y-20677579D01*
X7683063Y-20915674D02*
X7673539Y-20906150D01*
X7673539Y-20906150D02*
X7654491Y-20877579D01*
X7654491Y-20877579D02*
X7644968Y-20858531D01*
X7644968Y-20858531D02*
X7635444Y-20829960D01*
X7635444Y-20829960D02*
X7625920Y-20782341D01*
X7625920Y-20782341D02*
X7625920Y-20744246D01*
X7625920Y-20744246D02*
X7635444Y-20696627D01*
X7635444Y-20696627D02*
X7644968Y-20668055D01*
X7644968Y-20668055D02*
X7654491Y-20649008D01*
X7654491Y-20649008D02*
X7673539Y-20620436D01*
X7673539Y-20620436D02*
X7683063Y-20610912D01*
X7844968Y-20706150D02*
X7844968Y-20839484D01*
X7797348Y-20629960D02*
X7749729Y-20772817D01*
X7749729Y-20772817D02*
X7873539Y-20772817D01*
X8102110Y-20839484D02*
X8102110Y-20639484D01*
X8187825Y-20839484D02*
X8187825Y-20734722D01*
X8187825Y-20734722D02*
X8178301Y-20715674D01*
X8178301Y-20715674D02*
X8159253Y-20706150D01*
X8159253Y-20706150D02*
X8130682Y-20706150D01*
X8130682Y-20706150D02*
X8111634Y-20715674D01*
X8111634Y-20715674D02*
X8102110Y-20725198D01*
X8311634Y-20839484D02*
X8292587Y-20829960D01*
X8292587Y-20829960D02*
X8283063Y-20820436D01*
X8283063Y-20820436D02*
X8273539Y-20801389D01*
X8273539Y-20801389D02*
X8273539Y-20744246D01*
X8273539Y-20744246D02*
X8283063Y-20725198D01*
X8283063Y-20725198D02*
X8292587Y-20715674D01*
X8292587Y-20715674D02*
X8311634Y-20706150D01*
X8311634Y-20706150D02*
X8340206Y-20706150D01*
X8340206Y-20706150D02*
X8359253Y-20715674D01*
X8359253Y-20715674D02*
X8368777Y-20725198D01*
X8368777Y-20725198D02*
X8378301Y-20744246D01*
X8378301Y-20744246D02*
X8378301Y-20801389D01*
X8378301Y-20801389D02*
X8368777Y-20820436D01*
X8368777Y-20820436D02*
X8359253Y-20829960D01*
X8359253Y-20829960D02*
X8340206Y-20839484D01*
X8340206Y-20839484D02*
X8311634Y-20839484D01*
X8492587Y-20839484D02*
X8473539Y-20829960D01*
X8473539Y-20829960D02*
X8464015Y-20810912D01*
X8464015Y-20810912D02*
X8464015Y-20639484D01*
X8644968Y-20829960D02*
X8625920Y-20839484D01*
X8625920Y-20839484D02*
X8587825Y-20839484D01*
X8587825Y-20839484D02*
X8568777Y-20829960D01*
X8568777Y-20829960D02*
X8559253Y-20810912D01*
X8559253Y-20810912D02*
X8559253Y-20734722D01*
X8559253Y-20734722D02*
X8568777Y-20715674D01*
X8568777Y-20715674D02*
X8587825Y-20706150D01*
X8587825Y-20706150D02*
X8625920Y-20706150D01*
X8625920Y-20706150D02*
X8644968Y-20715674D01*
X8644968Y-20715674D02*
X8654492Y-20734722D01*
X8654492Y-20734722D02*
X8654492Y-20753770D01*
X8654492Y-20753770D02*
X8559253Y-20772817D01*
X8730682Y-20829960D02*
X8749730Y-20839484D01*
X8749730Y-20839484D02*
X8787825Y-20839484D01*
X8787825Y-20839484D02*
X8806873Y-20829960D01*
X8806873Y-20829960D02*
X8816396Y-20810912D01*
X8816396Y-20810912D02*
X8816396Y-20801389D01*
X8816396Y-20801389D02*
X8806873Y-20782341D01*
X8806873Y-20782341D02*
X8787825Y-20772817D01*
X8787825Y-20772817D02*
X8759253Y-20772817D01*
X8759253Y-20772817D02*
X8740206Y-20763293D01*
X8740206Y-20763293D02*
X8730682Y-20744246D01*
X8730682Y-20744246D02*
X8730682Y-20734722D01*
X8730682Y-20734722D02*
X8740206Y-20715674D01*
X8740206Y-20715674D02*
X8759253Y-20706150D01*
X8759253Y-20706150D02*
X8787825Y-20706150D01*
X8787825Y-20706150D02*
X8806873Y-20715674D01*
X8883063Y-20915674D02*
X8892587Y-20906150D01*
X8892587Y-20906150D02*
X8911634Y-20877579D01*
X8911634Y-20877579D02*
X8921158Y-20858531D01*
X8921158Y-20858531D02*
X8930682Y-20829960D01*
X8930682Y-20829960D02*
X8940206Y-20782341D01*
X8940206Y-20782341D02*
X8940206Y-20744246D01*
X8940206Y-20744246D02*
X8930682Y-20696627D01*
X8930682Y-20696627D02*
X8921158Y-20668055D01*
X8921158Y-20668055D02*
X8911634Y-20649008D01*
X8911634Y-20649008D02*
X8892587Y-20620436D01*
X8892587Y-20620436D02*
X8883063Y-20610912D01*
M02*
