%TF.GenerationSoftware,KiCad,Pcbnew,(6.0.10)*%
%TF.CreationDate,2023-10-14T21:32:39-03:00*%
%TF.ProjectId,FirstBoard,46697273-7442-46f6-9172-642e6b696361,rev?*%
%TF.SameCoordinates,Original*%
%TF.FileFunction,Drillmap*%
%TF.FilePolarity,Positive*%
%FSLAX45Y45*%
G04 Gerber Fmt 4.5, Leading zero omitted, Abs format (unit mm)*
G04 Created by KiCad (PCBNEW (6.0.10)) date 2023-10-14 21:32:39*
%MOMM*%
%LPD*%
G01*
G04 APERTURE LIST*
%ADD10C,0.200000*%
%ADD11C,0.050000*%
%ADD12C,0.070000*%
%ADD13C,0.080000*%
%ADD14C,0.100000*%
%ADD15C,0.102000*%
%ADD16C,0.110000*%
G04 APERTURE END LIST*
D10*
X12318313Y-6039262D02*
X4118000Y-6039262D01*
X4118000Y-6039262D02*
X4118000Y-18250000D01*
X4118000Y-18250000D02*
X12318313Y-18250000D01*
X12318313Y-18250000D02*
X12318313Y-6039262D01*
D11*
X6623000Y-14348300D02*
X6673000Y-14398300D01*
X6673000Y-14348300D02*
X6623000Y-14398300D01*
D10*
X6423000Y-14398300D02*
X6873000Y-14398300D01*
X6423000Y-14348300D02*
X6873000Y-14348300D01*
X6873000Y-14398300D02*
G75*
G03*
X6873000Y-14348300I0J25000D01*
G01*
X6423000Y-14348300D02*
G75*
G03*
X6423000Y-14398300I0J-25000D01*
G01*
D11*
X6623000Y-14848000D02*
X6673000Y-14898000D01*
X6673000Y-14848000D02*
X6623000Y-14898000D01*
D10*
X6423000Y-14898000D02*
X6873000Y-14898000D01*
X6423000Y-14848000D02*
X6873000Y-14848000D01*
X6873000Y-14898000D02*
G75*
G03*
X6873000Y-14848000I0J25000D01*
G01*
X6423000Y-14848000D02*
G75*
G03*
X6423000Y-14898000I0J-25000D01*
G01*
D12*
X6277000Y-17095000D02*
G75*
G03*
X6277000Y-17095000I-35000J0D01*
G01*
X6277000Y-17857000D02*
G75*
G03*
X6277000Y-17857000I-35000J0D01*
G01*
X7257000Y-17115000D02*
G75*
G03*
X7257000Y-17115000I-35000J0D01*
G01*
X7257000Y-17877000D02*
G75*
G03*
X7257000Y-17877000I-35000J0D01*
G01*
D13*
X5612000Y-16868000D02*
X5612000Y-16948000D01*
X5572000Y-16908000D02*
X5652000Y-16908000D01*
X5612000Y-17884000D02*
X5612000Y-17964000D01*
X5572000Y-17924000D02*
X5652000Y-17924000D01*
X8004000Y-16886000D02*
X8004000Y-16966000D01*
X7964000Y-16926000D02*
X8044000Y-16926000D01*
X8004000Y-17902000D02*
X8004000Y-17982000D01*
X7964000Y-17942000D02*
X8044000Y-17942000D01*
X9002000Y-16888000D02*
X9002000Y-16968000D01*
X8962000Y-16928000D02*
X9042000Y-16928000D01*
X9002000Y-17904000D02*
X9002000Y-17984000D01*
X8962000Y-17944000D02*
X9042000Y-17944000D01*
X9744000Y-17836000D02*
X9744000Y-17916000D01*
X9704000Y-17876000D02*
X9784000Y-17876000D01*
X10760000Y-17836000D02*
X10760000Y-17916000D01*
X10720000Y-17876000D02*
X10800000Y-17876000D01*
X11122000Y-17836000D02*
X11122000Y-17916000D01*
X11082000Y-17876000D02*
X11162000Y-17876000D01*
X12138000Y-17836000D02*
X12138000Y-17916000D01*
X12098000Y-17876000D02*
X12178000Y-17876000D01*
D14*
X8353739Y-12127739D02*
X8353739Y-12057028D01*
X8283028Y-12057028D01*
X8283028Y-12127739D01*
X8353739Y-12127739D01*
X8588356Y-13802356D02*
X8588356Y-13731644D01*
X8517644Y-13731644D01*
X8517644Y-13802356D01*
X8588356Y-13802356D01*
X8842356Y-10391913D02*
X8842356Y-10321201D01*
X8771644Y-10321201D01*
X8771644Y-10391913D01*
X8842356Y-10391913D01*
X10336575Y-15015137D02*
X10336575Y-14944425D01*
X10265863Y-14944425D01*
X10265863Y-15015137D01*
X10336575Y-15015137D01*
X4472500Y-6763000D02*
X4522500Y-6713000D01*
X4472500Y-6663000D01*
X4422500Y-6713000D01*
X4472500Y-6763000D01*
X4472500Y-8511000D02*
X4522500Y-8461000D01*
X4472500Y-8411000D01*
X4422500Y-8461000D01*
X4472500Y-8511000D01*
X4472500Y-10259000D02*
X4522500Y-10209000D01*
X4472500Y-10159000D01*
X4422500Y-10209000D01*
X4472500Y-10259000D01*
X4472500Y-12007000D02*
X4522500Y-11957000D01*
X4472500Y-11907000D01*
X4422500Y-11957000D01*
X4472500Y-12007000D01*
X4472500Y-13755000D02*
X4522500Y-13705000D01*
X4472500Y-13655000D01*
X4422500Y-13705000D01*
X4472500Y-13755000D01*
X4472500Y-16016000D02*
X4522500Y-15966000D01*
X4472500Y-15916000D01*
X4422500Y-15966000D01*
X4472500Y-16016000D01*
X4726500Y-6763000D02*
X4776500Y-6713000D01*
X4726500Y-6663000D01*
X4676500Y-6713000D01*
X4726500Y-6763000D01*
X4726500Y-8511000D02*
X4776500Y-8461000D01*
X4726500Y-8411000D01*
X4676500Y-8461000D01*
X4726500Y-8511000D01*
X4726500Y-10259000D02*
X4776500Y-10209000D01*
X4726500Y-10159000D01*
X4676500Y-10209000D01*
X4726500Y-10259000D01*
X4726500Y-12007000D02*
X4776500Y-11957000D01*
X4726500Y-11907000D01*
X4676500Y-11957000D01*
X4726500Y-12007000D01*
X4726500Y-13755000D02*
X4776500Y-13705000D01*
X4726500Y-13655000D01*
X4676500Y-13705000D01*
X4726500Y-13755000D01*
X4726500Y-16016000D02*
X4776500Y-15966000D01*
X4726500Y-15916000D01*
X4676500Y-15966000D01*
X4726500Y-16016000D01*
X4980500Y-6763000D02*
X5030500Y-6713000D01*
X4980500Y-6663000D01*
X4930500Y-6713000D01*
X4980500Y-6763000D01*
X4980500Y-8511000D02*
X5030500Y-8461000D01*
X4980500Y-8411000D01*
X4930500Y-8461000D01*
X4980500Y-8511000D01*
X4980500Y-10259000D02*
X5030500Y-10209000D01*
X4980500Y-10159000D01*
X4930500Y-10209000D01*
X4980500Y-10259000D01*
X4980500Y-12007000D02*
X5030500Y-11957000D01*
X4980500Y-11907000D01*
X4930500Y-11957000D01*
X4980500Y-12007000D01*
X4980500Y-13755000D02*
X5030500Y-13705000D01*
X4980500Y-13655000D01*
X4930500Y-13705000D01*
X4980500Y-13755000D01*
X4980500Y-16016000D02*
X5030500Y-15966000D01*
X4980500Y-15916000D01*
X4930500Y-15966000D01*
X4980500Y-16016000D01*
X5234500Y-6763000D02*
X5284500Y-6713000D01*
X5234500Y-6663000D01*
X5184500Y-6713000D01*
X5234500Y-6763000D01*
X5234500Y-8511000D02*
X5284500Y-8461000D01*
X5234500Y-8411000D01*
X5184500Y-8461000D01*
X5234500Y-8511000D01*
X5234500Y-10259000D02*
X5284500Y-10209000D01*
X5234500Y-10159000D01*
X5184500Y-10209000D01*
X5234500Y-10259000D01*
X5234500Y-12007000D02*
X5284500Y-11957000D01*
X5234500Y-11907000D01*
X5184500Y-11957000D01*
X5234500Y-12007000D01*
X5234500Y-13755000D02*
X5284500Y-13705000D01*
X5234500Y-13655000D01*
X5184500Y-13705000D01*
X5234500Y-13755000D01*
X5234500Y-16016000D02*
X5284500Y-15966000D01*
X5234500Y-15916000D01*
X5184500Y-15966000D01*
X5234500Y-16016000D01*
X5488500Y-6763000D02*
X5538500Y-6713000D01*
X5488500Y-6663000D01*
X5438500Y-6713000D01*
X5488500Y-6763000D01*
X5488500Y-8511000D02*
X5538500Y-8461000D01*
X5488500Y-8411000D01*
X5438500Y-8461000D01*
X5488500Y-8511000D01*
X5488500Y-10259000D02*
X5538500Y-10209000D01*
X5488500Y-10159000D01*
X5438500Y-10209000D01*
X5488500Y-10259000D01*
X5488500Y-12007000D02*
X5538500Y-11957000D01*
X5488500Y-11907000D01*
X5438500Y-11957000D01*
X5488500Y-12007000D01*
X5488500Y-13755000D02*
X5538500Y-13705000D01*
X5488500Y-13655000D01*
X5438500Y-13705000D01*
X5488500Y-13755000D01*
X5488500Y-16016000D02*
X5538500Y-15966000D01*
X5488500Y-15916000D01*
X5438500Y-15966000D01*
X5488500Y-16016000D01*
X5742500Y-6763000D02*
X5792500Y-6713000D01*
X5742500Y-6663000D01*
X5692500Y-6713000D01*
X5742500Y-6763000D01*
X5742500Y-8511000D02*
X5792500Y-8461000D01*
X5742500Y-8411000D01*
X5692500Y-8461000D01*
X5742500Y-8511000D01*
X5742500Y-10259000D02*
X5792500Y-10209000D01*
X5742500Y-10159000D01*
X5692500Y-10209000D01*
X5742500Y-10259000D01*
X5742500Y-12007000D02*
X5792500Y-11957000D01*
X5742500Y-11907000D01*
X5692500Y-11957000D01*
X5742500Y-12007000D01*
X5742500Y-13755000D02*
X5792500Y-13705000D01*
X5742500Y-13655000D01*
X5692500Y-13705000D01*
X5742500Y-13755000D01*
X5742500Y-16016000D02*
X5792500Y-15966000D01*
X5742500Y-15916000D01*
X5692500Y-15966000D01*
X5742500Y-16016000D01*
X5996500Y-6763000D02*
X6046500Y-6713000D01*
X5996500Y-6663000D01*
X5946500Y-6713000D01*
X5996500Y-6763000D01*
X5996500Y-8511000D02*
X6046500Y-8461000D01*
X5996500Y-8411000D01*
X5946500Y-8461000D01*
X5996500Y-8511000D01*
X5996500Y-10259000D02*
X6046500Y-10209000D01*
X5996500Y-10159000D01*
X5946500Y-10209000D01*
X5996500Y-10259000D01*
X5996500Y-12007000D02*
X6046500Y-11957000D01*
X5996500Y-11907000D01*
X5946500Y-11957000D01*
X5996500Y-12007000D01*
X5996500Y-13755000D02*
X6046500Y-13705000D01*
X5996500Y-13655000D01*
X5946500Y-13705000D01*
X5996500Y-13755000D01*
X5996500Y-16016000D02*
X6046500Y-15966000D01*
X5996500Y-15916000D01*
X5946500Y-15966000D01*
X5996500Y-16016000D01*
X6250500Y-6763000D02*
X6300500Y-6713000D01*
X6250500Y-6663000D01*
X6200500Y-6713000D01*
X6250500Y-6763000D01*
X6250500Y-8511000D02*
X6300500Y-8461000D01*
X6250500Y-8411000D01*
X6200500Y-8461000D01*
X6250500Y-8511000D01*
X6250500Y-10259000D02*
X6300500Y-10209000D01*
X6250500Y-10159000D01*
X6200500Y-10209000D01*
X6250500Y-10259000D01*
X6250500Y-12007000D02*
X6300500Y-11957000D01*
X6250500Y-11907000D01*
X6200500Y-11957000D01*
X6250500Y-12007000D01*
X6250500Y-13755000D02*
X6300500Y-13705000D01*
X6250500Y-13655000D01*
X6200500Y-13705000D01*
X6250500Y-13755000D01*
X6250500Y-16016000D02*
X6300500Y-15966000D01*
X6250500Y-15916000D01*
X6200500Y-15966000D01*
X6250500Y-16016000D01*
X7547822Y-8141053D02*
X7597822Y-8091053D01*
X7547822Y-8041053D01*
X7497822Y-8091053D01*
X7547822Y-8141053D01*
X7582000Y-14058500D02*
X7632000Y-14008500D01*
X7582000Y-13958500D01*
X7532000Y-14008500D01*
X7582000Y-14058500D01*
X7582000Y-14312500D02*
X7632000Y-14262500D01*
X7582000Y-14212500D01*
X7532000Y-14262500D01*
X7582000Y-14312500D01*
X7801822Y-8141053D02*
X7851822Y-8091053D01*
X7801822Y-8041053D01*
X7751822Y-8091053D01*
X7801822Y-8141053D01*
X8055822Y-8141053D02*
X8105822Y-8091053D01*
X8055822Y-8041053D01*
X8005822Y-8091053D01*
X8055822Y-8141053D01*
X8309822Y-8141053D02*
X8359822Y-8091053D01*
X8309822Y-8041053D01*
X8259822Y-8091053D01*
X8309822Y-8141053D01*
X8563822Y-8141053D02*
X8613822Y-8091053D01*
X8563822Y-8041053D01*
X8513822Y-8091053D01*
X8563822Y-8141053D01*
X8817822Y-8141053D02*
X8867822Y-8091053D01*
X8817822Y-8041053D01*
X8767822Y-8091053D01*
X8817822Y-8141053D01*
X10051000Y-6788000D02*
X10101000Y-6738000D01*
X10051000Y-6688000D01*
X10001000Y-6738000D01*
X10051000Y-6788000D01*
X10051000Y-8534000D02*
X10101000Y-8484000D01*
X10051000Y-8434000D01*
X10001000Y-8484000D01*
X10051000Y-8534000D01*
X10051000Y-10284000D02*
X10101000Y-10234000D01*
X10051000Y-10184000D01*
X10001000Y-10234000D01*
X10051000Y-10284000D01*
X10051000Y-12034000D02*
X10101000Y-11984000D01*
X10051000Y-11934000D01*
X10001000Y-11984000D01*
X10051000Y-12034000D01*
X10051000Y-13784000D02*
X10101000Y-13734000D01*
X10051000Y-13684000D01*
X10001000Y-13734000D01*
X10051000Y-13784000D01*
X10051000Y-15532000D02*
X10101000Y-15482000D01*
X10051000Y-15432000D01*
X10001000Y-15482000D01*
X10051000Y-15532000D01*
X10051000Y-17280000D02*
X10101000Y-17230000D01*
X10051000Y-17180000D01*
X10001000Y-17230000D01*
X10051000Y-17280000D01*
X10305000Y-6788000D02*
X10355000Y-6738000D01*
X10305000Y-6688000D01*
X10255000Y-6738000D01*
X10305000Y-6788000D01*
X10305000Y-8534000D02*
X10355000Y-8484000D01*
X10305000Y-8434000D01*
X10255000Y-8484000D01*
X10305000Y-8534000D01*
X10305000Y-10284000D02*
X10355000Y-10234000D01*
X10305000Y-10184000D01*
X10255000Y-10234000D01*
X10305000Y-10284000D01*
X10305000Y-12034000D02*
X10355000Y-11984000D01*
X10305000Y-11934000D01*
X10255000Y-11984000D01*
X10305000Y-12034000D01*
X10305000Y-13784000D02*
X10355000Y-13734000D01*
X10305000Y-13684000D01*
X10255000Y-13734000D01*
X10305000Y-13784000D01*
X10305000Y-15532000D02*
X10355000Y-15482000D01*
X10305000Y-15432000D01*
X10255000Y-15482000D01*
X10305000Y-15532000D01*
X10305000Y-17280000D02*
X10355000Y-17230000D01*
X10305000Y-17180000D01*
X10255000Y-17230000D01*
X10305000Y-17280000D01*
X10559000Y-6788000D02*
X10609000Y-6738000D01*
X10559000Y-6688000D01*
X10509000Y-6738000D01*
X10559000Y-6788000D01*
X10559000Y-8534000D02*
X10609000Y-8484000D01*
X10559000Y-8434000D01*
X10509000Y-8484000D01*
X10559000Y-8534000D01*
X10559000Y-10284000D02*
X10609000Y-10234000D01*
X10559000Y-10184000D01*
X10509000Y-10234000D01*
X10559000Y-10284000D01*
X10559000Y-12034000D02*
X10609000Y-11984000D01*
X10559000Y-11934000D01*
X10509000Y-11984000D01*
X10559000Y-12034000D01*
X10559000Y-13784000D02*
X10609000Y-13734000D01*
X10559000Y-13684000D01*
X10509000Y-13734000D01*
X10559000Y-13784000D01*
X10559000Y-15532000D02*
X10609000Y-15482000D01*
X10559000Y-15432000D01*
X10509000Y-15482000D01*
X10559000Y-15532000D01*
X10559000Y-17280000D02*
X10609000Y-17230000D01*
X10559000Y-17180000D01*
X10509000Y-17230000D01*
X10559000Y-17280000D01*
X10813000Y-6788000D02*
X10863000Y-6738000D01*
X10813000Y-6688000D01*
X10763000Y-6738000D01*
X10813000Y-6788000D01*
X10813000Y-8534000D02*
X10863000Y-8484000D01*
X10813000Y-8434000D01*
X10763000Y-8484000D01*
X10813000Y-8534000D01*
X10813000Y-10284000D02*
X10863000Y-10234000D01*
X10813000Y-10184000D01*
X10763000Y-10234000D01*
X10813000Y-10284000D01*
X10813000Y-12034000D02*
X10863000Y-11984000D01*
X10813000Y-11934000D01*
X10763000Y-11984000D01*
X10813000Y-12034000D01*
X10813000Y-13784000D02*
X10863000Y-13734000D01*
X10813000Y-13684000D01*
X10763000Y-13734000D01*
X10813000Y-13784000D01*
X10813000Y-15532000D02*
X10863000Y-15482000D01*
X10813000Y-15432000D01*
X10763000Y-15482000D01*
X10813000Y-15532000D01*
X10813000Y-17280000D02*
X10863000Y-17230000D01*
X10813000Y-17180000D01*
X10763000Y-17230000D01*
X10813000Y-17280000D01*
X11067000Y-6788000D02*
X11117000Y-6738000D01*
X11067000Y-6688000D01*
X11017000Y-6738000D01*
X11067000Y-6788000D01*
X11067000Y-8534000D02*
X11117000Y-8484000D01*
X11067000Y-8434000D01*
X11017000Y-8484000D01*
X11067000Y-8534000D01*
X11067000Y-10284000D02*
X11117000Y-10234000D01*
X11067000Y-10184000D01*
X11017000Y-10234000D01*
X11067000Y-10284000D01*
X11067000Y-12034000D02*
X11117000Y-11984000D01*
X11067000Y-11934000D01*
X11017000Y-11984000D01*
X11067000Y-12034000D01*
X11067000Y-13784000D02*
X11117000Y-13734000D01*
X11067000Y-13684000D01*
X11017000Y-13734000D01*
X11067000Y-13784000D01*
X11067000Y-15532000D02*
X11117000Y-15482000D01*
X11067000Y-15432000D01*
X11017000Y-15482000D01*
X11067000Y-15532000D01*
X11067000Y-17280000D02*
X11117000Y-17230000D01*
X11067000Y-17180000D01*
X11017000Y-17230000D01*
X11067000Y-17280000D01*
X11321000Y-6788000D02*
X11371000Y-6738000D01*
X11321000Y-6688000D01*
X11271000Y-6738000D01*
X11321000Y-6788000D01*
X11321000Y-8534000D02*
X11371000Y-8484000D01*
X11321000Y-8434000D01*
X11271000Y-8484000D01*
X11321000Y-8534000D01*
X11321000Y-10284000D02*
X11371000Y-10234000D01*
X11321000Y-10184000D01*
X11271000Y-10234000D01*
X11321000Y-10284000D01*
X11321000Y-12034000D02*
X11371000Y-11984000D01*
X11321000Y-11934000D01*
X11271000Y-11984000D01*
X11321000Y-12034000D01*
X11321000Y-13784000D02*
X11371000Y-13734000D01*
X11321000Y-13684000D01*
X11271000Y-13734000D01*
X11321000Y-13784000D01*
X11321000Y-15532000D02*
X11371000Y-15482000D01*
X11321000Y-15432000D01*
X11271000Y-15482000D01*
X11321000Y-15532000D01*
X11321000Y-17280000D02*
X11371000Y-17230000D01*
X11321000Y-17180000D01*
X11271000Y-17230000D01*
X11321000Y-17280000D01*
X11575000Y-6788000D02*
X11625000Y-6738000D01*
X11575000Y-6688000D01*
X11525000Y-6738000D01*
X11575000Y-6788000D01*
X11575000Y-8534000D02*
X11625000Y-8484000D01*
X11575000Y-8434000D01*
X11525000Y-8484000D01*
X11575000Y-8534000D01*
X11575000Y-10284000D02*
X11625000Y-10234000D01*
X11575000Y-10184000D01*
X11525000Y-10234000D01*
X11575000Y-10284000D01*
X11575000Y-12034000D02*
X11625000Y-11984000D01*
X11575000Y-11934000D01*
X11525000Y-11984000D01*
X11575000Y-12034000D01*
X11575000Y-13784000D02*
X11625000Y-13734000D01*
X11575000Y-13684000D01*
X11525000Y-13734000D01*
X11575000Y-13784000D01*
X11575000Y-15532000D02*
X11625000Y-15482000D01*
X11575000Y-15432000D01*
X11525000Y-15482000D01*
X11575000Y-15532000D01*
X11575000Y-17280000D02*
X11625000Y-17230000D01*
X11575000Y-17180000D01*
X11525000Y-17230000D01*
X11575000Y-17280000D01*
X11829000Y-6788000D02*
X11879000Y-6738000D01*
X11829000Y-6688000D01*
X11779000Y-6738000D01*
X11829000Y-6788000D01*
X11829000Y-8534000D02*
X11879000Y-8484000D01*
X11829000Y-8434000D01*
X11779000Y-8484000D01*
X11829000Y-8534000D01*
X11829000Y-10284000D02*
X11879000Y-10234000D01*
X11829000Y-10184000D01*
X11779000Y-10234000D01*
X11829000Y-10284000D01*
X11829000Y-12034000D02*
X11879000Y-11984000D01*
X11829000Y-11934000D01*
X11779000Y-11984000D01*
X11829000Y-12034000D01*
X11829000Y-13784000D02*
X11879000Y-13734000D01*
X11829000Y-13684000D01*
X11779000Y-13734000D01*
X11829000Y-13784000D01*
X11829000Y-15532000D02*
X11879000Y-15482000D01*
X11829000Y-15432000D01*
X11779000Y-15482000D01*
X11829000Y-15532000D01*
X11829000Y-17280000D02*
X11879000Y-17230000D01*
X11829000Y-17180000D01*
X11779000Y-17230000D01*
X11829000Y-17280000D01*
D15*
X4929500Y-12186500D02*
X5031500Y-12288500D01*
X5031500Y-12186500D02*
X4929500Y-12288500D01*
X5031500Y-12237500D02*
G75*
G03*
X5031500Y-12237500I-51000J0D01*
G01*
X4929500Y-13216500D02*
X5031500Y-13318500D01*
X5031500Y-13216500D02*
X4929500Y-13318500D01*
X5031500Y-13267500D02*
G75*
G03*
X5031500Y-13267500I-51000J0D01*
G01*
X5183500Y-12217500D02*
X5285500Y-12319500D01*
X5285500Y-12217500D02*
X5183500Y-12319500D01*
X5285500Y-12268500D02*
G75*
G03*
X5285500Y-12268500I-51000J0D01*
G01*
X5183500Y-13352500D02*
X5285500Y-13454500D01*
X5285500Y-13352500D02*
X5183500Y-13454500D01*
X5285500Y-13403500D02*
G75*
G03*
X5285500Y-13403500I-51000J0D01*
G01*
X5711000Y-7255000D02*
X5813000Y-7357000D01*
X5813000Y-7255000D02*
X5711000Y-7357000D01*
X5813000Y-7306000D02*
G75*
G03*
X5813000Y-7306000I-51000J0D01*
G01*
X6541000Y-11765000D02*
X6643000Y-11867000D01*
X6643000Y-11765000D02*
X6541000Y-11867000D01*
X6643000Y-11816000D02*
G75*
G03*
X6643000Y-11816000I-51000J0D01*
G01*
X6721000Y-17435000D02*
X6823000Y-17537000D01*
X6823000Y-17435000D02*
X6721000Y-17537000D01*
X6823000Y-17486000D02*
G75*
G03*
X6823000Y-17486000I-51000J0D01*
G01*
X6846000Y-11445000D02*
X6948000Y-11547000D01*
X6948000Y-11445000D02*
X6846000Y-11547000D01*
X6948000Y-11496000D02*
G75*
G03*
X6948000Y-11496000I-51000J0D01*
G01*
X6991000Y-12485000D02*
X7093000Y-12587000D01*
X7093000Y-12485000D02*
X6991000Y-12587000D01*
X7093000Y-12536000D02*
G75*
G03*
X7093000Y-12536000I-51000J0D01*
G01*
X6998000Y-13192000D02*
X7100000Y-13294000D01*
X7100000Y-13192000D02*
X6998000Y-13294000D01*
X7100000Y-13243000D02*
G75*
G03*
X7100000Y-13243000I-51000J0D01*
G01*
X7122728Y-9543020D02*
X7224728Y-9645020D01*
X7224728Y-9543020D02*
X7122728Y-9645020D01*
X7224728Y-9594020D02*
G75*
G03*
X7224728Y-9594020I-51000J0D01*
G01*
X7191000Y-14635000D02*
X7293000Y-14737000D01*
X7293000Y-14635000D02*
X7191000Y-14737000D01*
X7293000Y-14686000D02*
G75*
G03*
X7293000Y-14686000I-51000J0D01*
G01*
X7201000Y-8535000D02*
X7303000Y-8637000D01*
X7303000Y-8535000D02*
X7201000Y-8637000D01*
X7303000Y-8586000D02*
G75*
G03*
X7303000Y-8586000I-51000J0D01*
G01*
X7337020Y-9797020D02*
X7439020Y-9899020D01*
X7439020Y-9797020D02*
X7337020Y-9899020D01*
X7439020Y-9848020D02*
G75*
G03*
X7439020Y-9848020I-51000J0D01*
G01*
X8051000Y-10285000D02*
X8153000Y-10387000D01*
X8153000Y-10285000D02*
X8051000Y-10387000D01*
X8153000Y-10336000D02*
G75*
G03*
X8153000Y-10336000I-51000J0D01*
G01*
X8071000Y-16405000D02*
X8173000Y-16507000D01*
X8173000Y-16405000D02*
X8071000Y-16507000D01*
X8173000Y-16456000D02*
G75*
G03*
X8173000Y-16456000I-51000J0D01*
G01*
X8481000Y-7740000D02*
X8583000Y-7842000D01*
X8583000Y-7740000D02*
X8481000Y-7842000D01*
X8583000Y-7791000D02*
G75*
G03*
X8583000Y-7791000I-51000J0D01*
G01*
X8491000Y-12775000D02*
X8593000Y-12877000D01*
X8593000Y-12775000D02*
X8491000Y-12877000D01*
X8593000Y-12826000D02*
G75*
G03*
X8593000Y-12826000I-51000J0D01*
G01*
X8637020Y-10051020D02*
X8739020Y-10153020D01*
X8739020Y-10051020D02*
X8637020Y-10153020D01*
X8739020Y-10102020D02*
G75*
G03*
X8739020Y-10102020I-51000J0D01*
G01*
X8711000Y-17435000D02*
X8813000Y-17537000D01*
X8813000Y-17435000D02*
X8711000Y-17537000D01*
X8813000Y-17486000D02*
G75*
G03*
X8813000Y-17486000I-51000J0D01*
G01*
X8941000Y-7725000D02*
X9043000Y-7827000D01*
X9043000Y-7725000D02*
X8941000Y-7827000D01*
X9043000Y-7776000D02*
G75*
G03*
X9043000Y-7776000I-51000J0D01*
G01*
X8951000Y-16495000D02*
X9053000Y-16597000D01*
X9053000Y-16495000D02*
X8951000Y-16597000D01*
X9053000Y-16546000D02*
G75*
G03*
X9053000Y-16546000I-51000J0D01*
G01*
X9010000Y-10581000D02*
X9112000Y-10683000D01*
X9112000Y-10581000D02*
X9010000Y-10683000D01*
X9112000Y-10632000D02*
G75*
G03*
X9112000Y-10632000I-51000J0D01*
G01*
X9010000Y-13248000D02*
X9112000Y-13350000D01*
X9112000Y-13248000D02*
X9010000Y-13350000D01*
X9112000Y-13299000D02*
G75*
G03*
X9112000Y-13299000I-51000J0D01*
G01*
X9786000Y-11365000D02*
X9888000Y-11467000D01*
X9888000Y-11365000D02*
X9786000Y-11467000D01*
X9888000Y-11416000D02*
G75*
G03*
X9888000Y-11416000I-51000J0D01*
G01*
X11016000Y-12450000D02*
X11118000Y-12552000D01*
X11118000Y-12450000D02*
X11016000Y-12552000D01*
X11118000Y-12501000D02*
G75*
G03*
X11118000Y-12501000I-51000J0D01*
G01*
X11016000Y-13395000D02*
X11118000Y-13497000D01*
X11118000Y-13395000D02*
X11016000Y-13497000D01*
X11118000Y-13446000D02*
G75*
G03*
X11118000Y-13446000I-51000J0D01*
G01*
X11270000Y-12216000D02*
X11372000Y-12318000D01*
X11372000Y-12216000D02*
X11270000Y-12318000D01*
X11372000Y-12267000D02*
G75*
G03*
X11372000Y-12267000I-51000J0D01*
G01*
X11270000Y-13196000D02*
X11372000Y-13298000D01*
X11372000Y-13196000D02*
X11270000Y-13298000D01*
X11372000Y-13247000D02*
G75*
G03*
X11372000Y-13247000I-51000J0D01*
G01*
X6837480Y-7511020D02*
X6939480Y-7613020D01*
X6939480Y-7511020D02*
X6837480Y-7613020D01*
X6888480Y-7511020D02*
X6888480Y-7613020D01*
X6837480Y-7562020D02*
X6939480Y-7562020D01*
X6837480Y-7765020D02*
X6939480Y-7867020D01*
X6939480Y-7765020D02*
X6837480Y-7867020D01*
X6888480Y-7765020D02*
X6888480Y-7867020D01*
X6837480Y-7816020D02*
X6939480Y-7816020D01*
X6837480Y-8019020D02*
X6939480Y-8121020D01*
X6939480Y-8019020D02*
X6837480Y-8121020D01*
X6888480Y-8019020D02*
X6888480Y-8121020D01*
X6837480Y-8070020D02*
X6939480Y-8070020D01*
X6837480Y-8273020D02*
X6939480Y-8375020D01*
X6939480Y-8273020D02*
X6837480Y-8375020D01*
X6888480Y-8273020D02*
X6888480Y-8375020D01*
X6837480Y-8324020D02*
X6939480Y-8324020D01*
X6837480Y-8527020D02*
X6939480Y-8629020D01*
X6939480Y-8527020D02*
X6837480Y-8629020D01*
X6888480Y-8527020D02*
X6888480Y-8629020D01*
X6837480Y-8578020D02*
X6939480Y-8578020D01*
X6837480Y-8781020D02*
X6939480Y-8883020D01*
X6939480Y-8781020D02*
X6837480Y-8883020D01*
X6888480Y-8781020D02*
X6888480Y-8883020D01*
X6837480Y-8832020D02*
X6939480Y-8832020D01*
X6837480Y-9035020D02*
X6939480Y-9137020D01*
X6939480Y-9035020D02*
X6837480Y-9137020D01*
X6888480Y-9035020D02*
X6888480Y-9137020D01*
X6837480Y-9086020D02*
X6939480Y-9086020D01*
X6837480Y-9289020D02*
X6939480Y-9391020D01*
X6939480Y-9289020D02*
X6837480Y-9391020D01*
X6888480Y-9289020D02*
X6888480Y-9391020D01*
X6837480Y-9340020D02*
X6939480Y-9340020D01*
X6837480Y-9543020D02*
X6939480Y-9645020D01*
X6939480Y-9543020D02*
X6837480Y-9645020D01*
X6888480Y-9543020D02*
X6888480Y-9645020D01*
X6837480Y-9594020D02*
X6939480Y-9594020D01*
X6837480Y-9797020D02*
X6939480Y-9899020D01*
X6939480Y-9797020D02*
X6837480Y-9899020D01*
X6888480Y-9797020D02*
X6888480Y-9899020D01*
X6837480Y-9848020D02*
X6939480Y-9848020D01*
X6837480Y-10051020D02*
X6939480Y-10153020D01*
X6939480Y-10051020D02*
X6837480Y-10153020D01*
X6888480Y-10051020D02*
X6888480Y-10153020D01*
X6837480Y-10102020D02*
X6939480Y-10102020D01*
X6837480Y-10305020D02*
X6939480Y-10407020D01*
X6939480Y-10305020D02*
X6837480Y-10407020D01*
X6888480Y-10305020D02*
X6888480Y-10407020D01*
X6837480Y-10356020D02*
X6939480Y-10356020D01*
X6837480Y-10559020D02*
X6939480Y-10661020D01*
X6939480Y-10559020D02*
X6837480Y-10661020D01*
X6888480Y-10559020D02*
X6888480Y-10661020D01*
X6837480Y-10610020D02*
X6939480Y-10610020D01*
X6837480Y-10813020D02*
X6939480Y-10915020D01*
X6939480Y-10813020D02*
X6837480Y-10915020D01*
X6888480Y-10813020D02*
X6888480Y-10915020D01*
X6837480Y-10864020D02*
X6939480Y-10864020D01*
X6837480Y-11067020D02*
X6939480Y-11169020D01*
X6939480Y-11067020D02*
X6837480Y-11169020D01*
X6888480Y-11067020D02*
X6888480Y-11169020D01*
X6837480Y-11118020D02*
X6939480Y-11118020D01*
X7533054Y-11979106D02*
X7635054Y-12081106D01*
X7635054Y-11979106D02*
X7533054Y-12081106D01*
X7584054Y-11979106D02*
X7584054Y-12081106D01*
X7533054Y-12030106D02*
X7635054Y-12030106D01*
X7533054Y-15928806D02*
X7635054Y-16030806D01*
X7635054Y-15928806D02*
X7533054Y-16030806D01*
X7584054Y-15928806D02*
X7584054Y-16030806D01*
X7533054Y-15979806D02*
X7635054Y-15979806D01*
X9247554Y-11979106D02*
X9349554Y-12081106D01*
X9349554Y-11979106D02*
X9247554Y-12081106D01*
X9298554Y-11979106D02*
X9298554Y-12081106D01*
X9247554Y-12030106D02*
X9349554Y-12030106D01*
X9247554Y-15928806D02*
X9349554Y-16030806D01*
X9349554Y-15928806D02*
X9247554Y-16030806D01*
X9298554Y-15928806D02*
X9298554Y-16030806D01*
X9247554Y-15979806D02*
X9349554Y-15979806D01*
X9377480Y-7511020D02*
X9479480Y-7613020D01*
X9479480Y-7511020D02*
X9377480Y-7613020D01*
X9428480Y-7511020D02*
X9428480Y-7613020D01*
X9377480Y-7562020D02*
X9479480Y-7562020D01*
X9377480Y-7765020D02*
X9479480Y-7867020D01*
X9479480Y-7765020D02*
X9377480Y-7867020D01*
X9428480Y-7765020D02*
X9428480Y-7867020D01*
X9377480Y-7816020D02*
X9479480Y-7816020D01*
X9377480Y-8019020D02*
X9479480Y-8121020D01*
X9479480Y-8019020D02*
X9377480Y-8121020D01*
X9428480Y-8019020D02*
X9428480Y-8121020D01*
X9377480Y-8070020D02*
X9479480Y-8070020D01*
X9377480Y-8273020D02*
X9479480Y-8375020D01*
X9479480Y-8273020D02*
X9377480Y-8375020D01*
X9428480Y-8273020D02*
X9428480Y-8375020D01*
X9377480Y-8324020D02*
X9479480Y-8324020D01*
X9377480Y-8527020D02*
X9479480Y-8629020D01*
X9479480Y-8527020D02*
X9377480Y-8629020D01*
X9428480Y-8527020D02*
X9428480Y-8629020D01*
X9377480Y-8578020D02*
X9479480Y-8578020D01*
X9377480Y-8781020D02*
X9479480Y-8883020D01*
X9479480Y-8781020D02*
X9377480Y-8883020D01*
X9428480Y-8781020D02*
X9428480Y-8883020D01*
X9377480Y-8832020D02*
X9479480Y-8832020D01*
X9377480Y-9035020D02*
X9479480Y-9137020D01*
X9479480Y-9035020D02*
X9377480Y-9137020D01*
X9428480Y-9035020D02*
X9428480Y-9137020D01*
X9377480Y-9086020D02*
X9479480Y-9086020D01*
X9377480Y-9289020D02*
X9479480Y-9391020D01*
X9479480Y-9289020D02*
X9377480Y-9391020D01*
X9428480Y-9289020D02*
X9428480Y-9391020D01*
X9377480Y-9340020D02*
X9479480Y-9340020D01*
X9377480Y-9543020D02*
X9479480Y-9645020D01*
X9479480Y-9543020D02*
X9377480Y-9645020D01*
X9428480Y-9543020D02*
X9428480Y-9645020D01*
X9377480Y-9594020D02*
X9479480Y-9594020D01*
X9377480Y-9797020D02*
X9479480Y-9899020D01*
X9479480Y-9797020D02*
X9377480Y-9899020D01*
X9428480Y-9797020D02*
X9428480Y-9899020D01*
X9377480Y-9848020D02*
X9479480Y-9848020D01*
X9377480Y-10051020D02*
X9479480Y-10153020D01*
X9479480Y-10051020D02*
X9377480Y-10153020D01*
X9428480Y-10051020D02*
X9428480Y-10153020D01*
X9377480Y-10102020D02*
X9479480Y-10102020D01*
X9377480Y-10305020D02*
X9479480Y-10407020D01*
X9479480Y-10305020D02*
X9377480Y-10407020D01*
X9428480Y-10305020D02*
X9428480Y-10407020D01*
X9377480Y-10356020D02*
X9479480Y-10356020D01*
X9377480Y-10559020D02*
X9479480Y-10661020D01*
X9479480Y-10559020D02*
X9377480Y-10661020D01*
X9428480Y-10559020D02*
X9428480Y-10661020D01*
X9377480Y-10610020D02*
X9479480Y-10610020D01*
X9377480Y-10813020D02*
X9479480Y-10915020D01*
X9479480Y-10813020D02*
X9377480Y-10915020D01*
X9428480Y-10813020D02*
X9428480Y-10915020D01*
X9377480Y-10864020D02*
X9479480Y-10864020D01*
X9377480Y-11067020D02*
X9479480Y-11169020D01*
X9479480Y-11067020D02*
X9377480Y-11169020D01*
X9428480Y-11067020D02*
X9428480Y-11169020D01*
X9377480Y-11118020D02*
X9479480Y-11118020D01*
D16*
X4422000Y-17196000D02*
X4532000Y-17306000D01*
X4532000Y-17196000D02*
X4422000Y-17306000D01*
X4515891Y-17289891D02*
X4515891Y-17212109D01*
X4438109Y-17212109D01*
X4438109Y-17289891D01*
X4515891Y-17289891D01*
X4422000Y-17846000D02*
X4532000Y-17956000D01*
X4532000Y-17846000D02*
X4422000Y-17956000D01*
X4515891Y-17939891D02*
X4515891Y-17862109D01*
X4438109Y-17862109D01*
X4438109Y-17939891D01*
X4515891Y-17939891D01*
X4872000Y-17196000D02*
X4982000Y-17306000D01*
X4982000Y-17196000D02*
X4872000Y-17306000D01*
X4965891Y-17289891D02*
X4965891Y-17212109D01*
X4888109Y-17212109D01*
X4888109Y-17289891D01*
X4965891Y-17289891D01*
X4872000Y-17846000D02*
X4982000Y-17956000D01*
X4982000Y-17846000D02*
X4872000Y-17956000D01*
X4965891Y-17939891D02*
X4965891Y-17862109D01*
X4888109Y-17862109D01*
X4888109Y-17939891D01*
X4965891Y-17939891D01*
D10*
X4365619Y-18570476D02*
X4365619Y-18370476D01*
X4413238Y-18370476D01*
X4441810Y-18380000D01*
X4460857Y-18399048D01*
X4470381Y-18418095D01*
X4479905Y-18456190D01*
X4479905Y-18484762D01*
X4470381Y-18522857D01*
X4460857Y-18541905D01*
X4441810Y-18560952D01*
X4413238Y-18570476D01*
X4365619Y-18570476D01*
X4565619Y-18570476D02*
X4565619Y-18437143D01*
X4565619Y-18475238D02*
X4575143Y-18456190D01*
X4584667Y-18446667D01*
X4603714Y-18437143D01*
X4622762Y-18437143D01*
X4689429Y-18570476D02*
X4689429Y-18437143D01*
X4689429Y-18370476D02*
X4679905Y-18380000D01*
X4689429Y-18389524D01*
X4698952Y-18380000D01*
X4689429Y-18370476D01*
X4689429Y-18389524D01*
X4813238Y-18570476D02*
X4794190Y-18560952D01*
X4784667Y-18541905D01*
X4784667Y-18370476D01*
X4918000Y-18570476D02*
X4898952Y-18560952D01*
X4889429Y-18541905D01*
X4889429Y-18370476D01*
X5146571Y-18570476D02*
X5146571Y-18370476D01*
X5213238Y-18513333D01*
X5279905Y-18370476D01*
X5279905Y-18570476D01*
X5460857Y-18570476D02*
X5460857Y-18465714D01*
X5451333Y-18446667D01*
X5432286Y-18437143D01*
X5394190Y-18437143D01*
X5375143Y-18446667D01*
X5460857Y-18560952D02*
X5441810Y-18570476D01*
X5394190Y-18570476D01*
X5375143Y-18560952D01*
X5365619Y-18541905D01*
X5365619Y-18522857D01*
X5375143Y-18503810D01*
X5394190Y-18494286D01*
X5441810Y-18494286D01*
X5460857Y-18484762D01*
X5556095Y-18437143D02*
X5556095Y-18637143D01*
X5556095Y-18446667D02*
X5575143Y-18437143D01*
X5613238Y-18437143D01*
X5632286Y-18446667D01*
X5641809Y-18456190D01*
X5651333Y-18475238D01*
X5651333Y-18532381D01*
X5641809Y-18551429D01*
X5632286Y-18560952D01*
X5613238Y-18570476D01*
X5575143Y-18570476D01*
X5556095Y-18560952D01*
X5737048Y-18551429D02*
X5746571Y-18560952D01*
X5737048Y-18570476D01*
X5727524Y-18560952D01*
X5737048Y-18551429D01*
X5737048Y-18570476D01*
X5737048Y-18446667D02*
X5746571Y-18456190D01*
X5737048Y-18465714D01*
X5727524Y-18456190D01*
X5737048Y-18446667D01*
X5737048Y-18465714D01*
D11*
X4058000Y-18875000D02*
X4108000Y-18925000D01*
X4108000Y-18875000D02*
X4058000Y-18925000D01*
D10*
X4403714Y-18790476D02*
X4422762Y-18790476D01*
X4441810Y-18800000D01*
X4451333Y-18809524D01*
X4460857Y-18828571D01*
X4470381Y-18866667D01*
X4470381Y-18914286D01*
X4460857Y-18952381D01*
X4451333Y-18971429D01*
X4441810Y-18980952D01*
X4422762Y-18990476D01*
X4403714Y-18990476D01*
X4384667Y-18980952D01*
X4375143Y-18971429D01*
X4365619Y-18952381D01*
X4356095Y-18914286D01*
X4356095Y-18866667D01*
X4365619Y-18828571D01*
X4375143Y-18809524D01*
X4384667Y-18800000D01*
X4403714Y-18790476D01*
X4556095Y-18971429D02*
X4565619Y-18980952D01*
X4556095Y-18990476D01*
X4546571Y-18980952D01*
X4556095Y-18971429D01*
X4556095Y-18990476D01*
X4746571Y-18790476D02*
X4651333Y-18790476D01*
X4641810Y-18885714D01*
X4651333Y-18876190D01*
X4670381Y-18866667D01*
X4718000Y-18866667D01*
X4737048Y-18876190D01*
X4746571Y-18885714D01*
X4756095Y-18904762D01*
X4756095Y-18952381D01*
X4746571Y-18971429D01*
X4737048Y-18980952D01*
X4718000Y-18990476D01*
X4670381Y-18990476D01*
X4651333Y-18980952D01*
X4641810Y-18971429D01*
X4879905Y-18790476D02*
X4898952Y-18790476D01*
X4918000Y-18800000D01*
X4927524Y-18809524D01*
X4937048Y-18828571D01*
X4946571Y-18866667D01*
X4946571Y-18914286D01*
X4937048Y-18952381D01*
X4927524Y-18971429D01*
X4918000Y-18980952D01*
X4898952Y-18990476D01*
X4879905Y-18990476D01*
X4860857Y-18980952D01*
X4851333Y-18971429D01*
X4841810Y-18952381D01*
X4832286Y-18914286D01*
X4832286Y-18866667D01*
X4841810Y-18828571D01*
X4851333Y-18809524D01*
X4860857Y-18800000D01*
X4879905Y-18790476D01*
X5070381Y-18790476D02*
X5089429Y-18790476D01*
X5108476Y-18800000D01*
X5118000Y-18809524D01*
X5127524Y-18828571D01*
X5137048Y-18866667D01*
X5137048Y-18914286D01*
X5127524Y-18952381D01*
X5118000Y-18971429D01*
X5108476Y-18980952D01*
X5089429Y-18990476D01*
X5070381Y-18990476D01*
X5051333Y-18980952D01*
X5041810Y-18971429D01*
X5032286Y-18952381D01*
X5022762Y-18914286D01*
X5022762Y-18866667D01*
X5032286Y-18828571D01*
X5041810Y-18809524D01*
X5051333Y-18800000D01*
X5070381Y-18790476D01*
X5222762Y-18990476D02*
X5222762Y-18857143D01*
X5222762Y-18876190D02*
X5232286Y-18866667D01*
X5251333Y-18857143D01*
X5279905Y-18857143D01*
X5298952Y-18866667D01*
X5308476Y-18885714D01*
X5308476Y-18990476D01*
X5308476Y-18885714D02*
X5318000Y-18866667D01*
X5337048Y-18857143D01*
X5365619Y-18857143D01*
X5384667Y-18866667D01*
X5394190Y-18885714D01*
X5394190Y-18990476D01*
X5489429Y-18990476D02*
X5489429Y-18857143D01*
X5489429Y-18876190D02*
X5498952Y-18866667D01*
X5518000Y-18857143D01*
X5546571Y-18857143D01*
X5565619Y-18866667D01*
X5575143Y-18885714D01*
X5575143Y-18990476D01*
X5575143Y-18885714D02*
X5584667Y-18866667D01*
X5603714Y-18857143D01*
X5632286Y-18857143D01*
X5651333Y-18866667D01*
X5660857Y-18885714D01*
X5660857Y-18990476D01*
X6051333Y-18780952D02*
X5879905Y-19038095D01*
X6308476Y-18790476D02*
X6327524Y-18790476D01*
X6346571Y-18800000D01*
X6356095Y-18809524D01*
X6365619Y-18828571D01*
X6375143Y-18866667D01*
X6375143Y-18914286D01*
X6365619Y-18952381D01*
X6356095Y-18971429D01*
X6346571Y-18980952D01*
X6327524Y-18990476D01*
X6308476Y-18990476D01*
X6289428Y-18980952D01*
X6279905Y-18971429D01*
X6270381Y-18952381D01*
X6260857Y-18914286D01*
X6260857Y-18866667D01*
X6270381Y-18828571D01*
X6279905Y-18809524D01*
X6289428Y-18800000D01*
X6308476Y-18790476D01*
X6460857Y-18971429D02*
X6470381Y-18980952D01*
X6460857Y-18990476D01*
X6451333Y-18980952D01*
X6460857Y-18971429D01*
X6460857Y-18990476D01*
X6594190Y-18790476D02*
X6613238Y-18790476D01*
X6632286Y-18800000D01*
X6641809Y-18809524D01*
X6651333Y-18828571D01*
X6660857Y-18866667D01*
X6660857Y-18914286D01*
X6651333Y-18952381D01*
X6641809Y-18971429D01*
X6632286Y-18980952D01*
X6613238Y-18990476D01*
X6594190Y-18990476D01*
X6575143Y-18980952D01*
X6565619Y-18971429D01*
X6556095Y-18952381D01*
X6546571Y-18914286D01*
X6546571Y-18866667D01*
X6556095Y-18828571D01*
X6565619Y-18809524D01*
X6575143Y-18800000D01*
X6594190Y-18790476D01*
X6851333Y-18990476D02*
X6737048Y-18990476D01*
X6794190Y-18990476D02*
X6794190Y-18790476D01*
X6775143Y-18819048D01*
X6756095Y-18838095D01*
X6737048Y-18847619D01*
X6946571Y-18990476D02*
X6984667Y-18990476D01*
X7003714Y-18980952D01*
X7013238Y-18971429D01*
X7032286Y-18942857D01*
X7041809Y-18904762D01*
X7041809Y-18828571D01*
X7032286Y-18809524D01*
X7022762Y-18800000D01*
X7003714Y-18790476D01*
X6965619Y-18790476D01*
X6946571Y-18800000D01*
X6937048Y-18809524D01*
X6927524Y-18828571D01*
X6927524Y-18876190D01*
X6937048Y-18895238D01*
X6946571Y-18904762D01*
X6965619Y-18914286D01*
X7003714Y-18914286D01*
X7022762Y-18904762D01*
X7032286Y-18895238D01*
X7041809Y-18876190D01*
X7108476Y-18790476D02*
X7241809Y-18790476D01*
X7156095Y-18990476D01*
X7308476Y-18790476D02*
X7308476Y-18828571D01*
X7384667Y-18790476D02*
X7384667Y-18828571D01*
X7679905Y-19066667D02*
X7670381Y-19057143D01*
X7651333Y-19028571D01*
X7641809Y-19009524D01*
X7632286Y-18980952D01*
X7622762Y-18933333D01*
X7622762Y-18895238D01*
X7632286Y-18847619D01*
X7641809Y-18819048D01*
X7651333Y-18800000D01*
X7670381Y-18771429D01*
X7679905Y-18761905D01*
X7794190Y-18790476D02*
X7813238Y-18790476D01*
X7832286Y-18800000D01*
X7841809Y-18809524D01*
X7851333Y-18828571D01*
X7860857Y-18866667D01*
X7860857Y-18914286D01*
X7851333Y-18952381D01*
X7841809Y-18971429D01*
X7832286Y-18980952D01*
X7813238Y-18990476D01*
X7794190Y-18990476D01*
X7775143Y-18980952D01*
X7765619Y-18971429D01*
X7756095Y-18952381D01*
X7746571Y-18914286D01*
X7746571Y-18866667D01*
X7756095Y-18828571D01*
X7765619Y-18809524D01*
X7775143Y-18800000D01*
X7794190Y-18790476D01*
X8098952Y-18990476D02*
X8098952Y-18790476D01*
X8184667Y-18990476D02*
X8184667Y-18885714D01*
X8175143Y-18866667D01*
X8156095Y-18857143D01*
X8127524Y-18857143D01*
X8108476Y-18866667D01*
X8098952Y-18876190D01*
X8308476Y-18990476D02*
X8289428Y-18980952D01*
X8279905Y-18971429D01*
X8270381Y-18952381D01*
X8270381Y-18895238D01*
X8279905Y-18876190D01*
X8289428Y-18866667D01*
X8308476Y-18857143D01*
X8337048Y-18857143D01*
X8356095Y-18866667D01*
X8365619Y-18876190D01*
X8375143Y-18895238D01*
X8375143Y-18952381D01*
X8365619Y-18971429D01*
X8356095Y-18980952D01*
X8337048Y-18990476D01*
X8308476Y-18990476D01*
X8489429Y-18990476D02*
X8470381Y-18980952D01*
X8460857Y-18961905D01*
X8460857Y-18790476D01*
X8641810Y-18980952D02*
X8622762Y-18990476D01*
X8584667Y-18990476D01*
X8565619Y-18980952D01*
X8556095Y-18961905D01*
X8556095Y-18885714D01*
X8565619Y-18866667D01*
X8584667Y-18857143D01*
X8622762Y-18857143D01*
X8641810Y-18866667D01*
X8651333Y-18885714D01*
X8651333Y-18904762D01*
X8556095Y-18923810D01*
X8727524Y-18980952D02*
X8746571Y-18990476D01*
X8784667Y-18990476D01*
X8803714Y-18980952D01*
X8813238Y-18961905D01*
X8813238Y-18952381D01*
X8803714Y-18933333D01*
X8784667Y-18923810D01*
X8756095Y-18923810D01*
X8737048Y-18914286D01*
X8727524Y-18895238D01*
X8727524Y-18885714D01*
X8737048Y-18866667D01*
X8756095Y-18857143D01*
X8784667Y-18857143D01*
X8803714Y-18866667D01*
X9051333Y-18914286D02*
X9203714Y-18914286D01*
X9127524Y-18990476D02*
X9127524Y-18838095D01*
X9441810Y-18809524D02*
X9451333Y-18800000D01*
X9470381Y-18790476D01*
X9518000Y-18790476D01*
X9537048Y-18800000D01*
X9546571Y-18809524D01*
X9556095Y-18828571D01*
X9556095Y-18847619D01*
X9546571Y-18876190D01*
X9432286Y-18990476D01*
X9556095Y-18990476D01*
X9784667Y-18980952D02*
X9803714Y-18990476D01*
X9841810Y-18990476D01*
X9860857Y-18980952D01*
X9870381Y-18961905D01*
X9870381Y-18952381D01*
X9860857Y-18933333D01*
X9841810Y-18923810D01*
X9813238Y-18923810D01*
X9794190Y-18914286D01*
X9784667Y-18895238D01*
X9784667Y-18885714D01*
X9794190Y-18866667D01*
X9813238Y-18857143D01*
X9841810Y-18857143D01*
X9860857Y-18866667D01*
X9984667Y-18990476D02*
X9965619Y-18980952D01*
X9956095Y-18961905D01*
X9956095Y-18790476D01*
X10089429Y-18990476D02*
X10070381Y-18980952D01*
X10060857Y-18971429D01*
X10051333Y-18952381D01*
X10051333Y-18895238D01*
X10060857Y-18876190D01*
X10070381Y-18866667D01*
X10089429Y-18857143D01*
X10118000Y-18857143D01*
X10137048Y-18866667D01*
X10146571Y-18876190D01*
X10156095Y-18895238D01*
X10156095Y-18952381D01*
X10146571Y-18971429D01*
X10137048Y-18980952D01*
X10118000Y-18990476D01*
X10089429Y-18990476D01*
X10213238Y-18857143D02*
X10289429Y-18857143D01*
X10241810Y-18790476D02*
X10241810Y-18961905D01*
X10251333Y-18980952D01*
X10270381Y-18990476D01*
X10289429Y-18990476D01*
X10346571Y-18980952D02*
X10365619Y-18990476D01*
X10403714Y-18990476D01*
X10422762Y-18980952D01*
X10432286Y-18961905D01*
X10432286Y-18952381D01*
X10422762Y-18933333D01*
X10403714Y-18923810D01*
X10375143Y-18923810D01*
X10356095Y-18914286D01*
X10346571Y-18895238D01*
X10346571Y-18885714D01*
X10356095Y-18866667D01*
X10375143Y-18857143D01*
X10403714Y-18857143D01*
X10422762Y-18866667D01*
X10498952Y-19066667D02*
X10508476Y-19057143D01*
X10527524Y-19028571D01*
X10537048Y-19009524D01*
X10546571Y-18980952D01*
X10556095Y-18933333D01*
X10556095Y-18895238D01*
X10546571Y-18847619D01*
X10537048Y-18819048D01*
X10527524Y-18800000D01*
X10508476Y-18771429D01*
X10498952Y-18761905D01*
D12*
X4108000Y-19164000D02*
G75*
G03*
X4108000Y-19164000I-35000J0D01*
G01*
D10*
X4403714Y-19054476D02*
X4422762Y-19054476D01*
X4441810Y-19064000D01*
X4451333Y-19073524D01*
X4460857Y-19092571D01*
X4470381Y-19130667D01*
X4470381Y-19178286D01*
X4460857Y-19216381D01*
X4451333Y-19235429D01*
X4441810Y-19244952D01*
X4422762Y-19254476D01*
X4403714Y-19254476D01*
X4384667Y-19244952D01*
X4375143Y-19235429D01*
X4365619Y-19216381D01*
X4356095Y-19178286D01*
X4356095Y-19130667D01*
X4365619Y-19092571D01*
X4375143Y-19073524D01*
X4384667Y-19064000D01*
X4403714Y-19054476D01*
X4556095Y-19235429D02*
X4565619Y-19244952D01*
X4556095Y-19254476D01*
X4546571Y-19244952D01*
X4556095Y-19235429D01*
X4556095Y-19254476D01*
X4632286Y-19054476D02*
X4765619Y-19054476D01*
X4679905Y-19254476D01*
X4879905Y-19054476D02*
X4898952Y-19054476D01*
X4918000Y-19064000D01*
X4927524Y-19073524D01*
X4937048Y-19092571D01*
X4946571Y-19130667D01*
X4946571Y-19178286D01*
X4937048Y-19216381D01*
X4927524Y-19235429D01*
X4918000Y-19244952D01*
X4898952Y-19254476D01*
X4879905Y-19254476D01*
X4860857Y-19244952D01*
X4851333Y-19235429D01*
X4841810Y-19216381D01*
X4832286Y-19178286D01*
X4832286Y-19130667D01*
X4841810Y-19092571D01*
X4851333Y-19073524D01*
X4860857Y-19064000D01*
X4879905Y-19054476D01*
X5070381Y-19054476D02*
X5089429Y-19054476D01*
X5108476Y-19064000D01*
X5118000Y-19073524D01*
X5127524Y-19092571D01*
X5137048Y-19130667D01*
X5137048Y-19178286D01*
X5127524Y-19216381D01*
X5118000Y-19235429D01*
X5108476Y-19244952D01*
X5089429Y-19254476D01*
X5070381Y-19254476D01*
X5051333Y-19244952D01*
X5041810Y-19235429D01*
X5032286Y-19216381D01*
X5022762Y-19178286D01*
X5022762Y-19130667D01*
X5032286Y-19092571D01*
X5041810Y-19073524D01*
X5051333Y-19064000D01*
X5070381Y-19054476D01*
X5222762Y-19254476D02*
X5222762Y-19121143D01*
X5222762Y-19140190D02*
X5232286Y-19130667D01*
X5251333Y-19121143D01*
X5279905Y-19121143D01*
X5298952Y-19130667D01*
X5308476Y-19149714D01*
X5308476Y-19254476D01*
X5308476Y-19149714D02*
X5318000Y-19130667D01*
X5337048Y-19121143D01*
X5365619Y-19121143D01*
X5384667Y-19130667D01*
X5394190Y-19149714D01*
X5394190Y-19254476D01*
X5489429Y-19254476D02*
X5489429Y-19121143D01*
X5489429Y-19140190D02*
X5498952Y-19130667D01*
X5518000Y-19121143D01*
X5546571Y-19121143D01*
X5565619Y-19130667D01*
X5575143Y-19149714D01*
X5575143Y-19254476D01*
X5575143Y-19149714D02*
X5584667Y-19130667D01*
X5603714Y-19121143D01*
X5632286Y-19121143D01*
X5651333Y-19130667D01*
X5660857Y-19149714D01*
X5660857Y-19254476D01*
X6051333Y-19044952D02*
X5879905Y-19302095D01*
X6308476Y-19054476D02*
X6327524Y-19054476D01*
X6346571Y-19064000D01*
X6356095Y-19073524D01*
X6365619Y-19092571D01*
X6375143Y-19130667D01*
X6375143Y-19178286D01*
X6365619Y-19216381D01*
X6356095Y-19235429D01*
X6346571Y-19244952D01*
X6327524Y-19254476D01*
X6308476Y-19254476D01*
X6289428Y-19244952D01*
X6279905Y-19235429D01*
X6270381Y-19216381D01*
X6260857Y-19178286D01*
X6260857Y-19130667D01*
X6270381Y-19092571D01*
X6279905Y-19073524D01*
X6289428Y-19064000D01*
X6308476Y-19054476D01*
X6460857Y-19235429D02*
X6470381Y-19244952D01*
X6460857Y-19254476D01*
X6451333Y-19244952D01*
X6460857Y-19235429D01*
X6460857Y-19254476D01*
X6594190Y-19054476D02*
X6613238Y-19054476D01*
X6632286Y-19064000D01*
X6641809Y-19073524D01*
X6651333Y-19092571D01*
X6660857Y-19130667D01*
X6660857Y-19178286D01*
X6651333Y-19216381D01*
X6641809Y-19235429D01*
X6632286Y-19244952D01*
X6613238Y-19254476D01*
X6594190Y-19254476D01*
X6575143Y-19244952D01*
X6565619Y-19235429D01*
X6556095Y-19216381D01*
X6546571Y-19178286D01*
X6546571Y-19130667D01*
X6556095Y-19092571D01*
X6565619Y-19073524D01*
X6575143Y-19064000D01*
X6594190Y-19054476D01*
X6737048Y-19073524D02*
X6746571Y-19064000D01*
X6765619Y-19054476D01*
X6813238Y-19054476D01*
X6832286Y-19064000D01*
X6841809Y-19073524D01*
X6851333Y-19092571D01*
X6851333Y-19111619D01*
X6841809Y-19140190D01*
X6727524Y-19254476D01*
X6851333Y-19254476D01*
X6918000Y-19054476D02*
X7051333Y-19054476D01*
X6965619Y-19254476D01*
X7213238Y-19054476D02*
X7175143Y-19054476D01*
X7156095Y-19064000D01*
X7146571Y-19073524D01*
X7127524Y-19102095D01*
X7118000Y-19140190D01*
X7118000Y-19216381D01*
X7127524Y-19235429D01*
X7137048Y-19244952D01*
X7156095Y-19254476D01*
X7194190Y-19254476D01*
X7213238Y-19244952D01*
X7222762Y-19235429D01*
X7232286Y-19216381D01*
X7232286Y-19168762D01*
X7222762Y-19149714D01*
X7213238Y-19140190D01*
X7194190Y-19130667D01*
X7156095Y-19130667D01*
X7137048Y-19140190D01*
X7127524Y-19149714D01*
X7118000Y-19168762D01*
X7308476Y-19054476D02*
X7308476Y-19092571D01*
X7384667Y-19054476D02*
X7384667Y-19092571D01*
X7679905Y-19330667D02*
X7670381Y-19321143D01*
X7651333Y-19292571D01*
X7641809Y-19273524D01*
X7632286Y-19244952D01*
X7622762Y-19197333D01*
X7622762Y-19159238D01*
X7632286Y-19111619D01*
X7641809Y-19083048D01*
X7651333Y-19064000D01*
X7670381Y-19035429D01*
X7679905Y-19025905D01*
X7841809Y-19121143D02*
X7841809Y-19254476D01*
X7794190Y-19044952D02*
X7746571Y-19187810D01*
X7870381Y-19187810D01*
X8098952Y-19254476D02*
X8098952Y-19054476D01*
X8184667Y-19254476D02*
X8184667Y-19149714D01*
X8175143Y-19130667D01*
X8156095Y-19121143D01*
X8127524Y-19121143D01*
X8108476Y-19130667D01*
X8098952Y-19140190D01*
X8308476Y-19254476D02*
X8289428Y-19244952D01*
X8279905Y-19235429D01*
X8270381Y-19216381D01*
X8270381Y-19159238D01*
X8279905Y-19140190D01*
X8289428Y-19130667D01*
X8308476Y-19121143D01*
X8337048Y-19121143D01*
X8356095Y-19130667D01*
X8365619Y-19140190D01*
X8375143Y-19159238D01*
X8375143Y-19216381D01*
X8365619Y-19235429D01*
X8356095Y-19244952D01*
X8337048Y-19254476D01*
X8308476Y-19254476D01*
X8489429Y-19254476D02*
X8470381Y-19244952D01*
X8460857Y-19225905D01*
X8460857Y-19054476D01*
X8641810Y-19244952D02*
X8622762Y-19254476D01*
X8584667Y-19254476D01*
X8565619Y-19244952D01*
X8556095Y-19225905D01*
X8556095Y-19149714D01*
X8565619Y-19130667D01*
X8584667Y-19121143D01*
X8622762Y-19121143D01*
X8641810Y-19130667D01*
X8651333Y-19149714D01*
X8651333Y-19168762D01*
X8556095Y-19187810D01*
X8727524Y-19244952D02*
X8746571Y-19254476D01*
X8784667Y-19254476D01*
X8803714Y-19244952D01*
X8813238Y-19225905D01*
X8813238Y-19216381D01*
X8803714Y-19197333D01*
X8784667Y-19187810D01*
X8756095Y-19187810D01*
X8737048Y-19178286D01*
X8727524Y-19159238D01*
X8727524Y-19149714D01*
X8737048Y-19130667D01*
X8756095Y-19121143D01*
X8784667Y-19121143D01*
X8803714Y-19130667D01*
X8879905Y-19330667D02*
X8889429Y-19321143D01*
X8908476Y-19292571D01*
X8918000Y-19273524D01*
X8927524Y-19244952D01*
X8937048Y-19197333D01*
X8937048Y-19159238D01*
X8927524Y-19111619D01*
X8918000Y-19083048D01*
X8908476Y-19064000D01*
X8889429Y-19035429D01*
X8879905Y-19025905D01*
D13*
X4068000Y-19388000D02*
X4068000Y-19468000D01*
X4028000Y-19428000D02*
X4108000Y-19428000D01*
D10*
X4403714Y-19318476D02*
X4422762Y-19318476D01*
X4441810Y-19328000D01*
X4451333Y-19337524D01*
X4460857Y-19356571D01*
X4470381Y-19394667D01*
X4470381Y-19442286D01*
X4460857Y-19480381D01*
X4451333Y-19499429D01*
X4441810Y-19508952D01*
X4422762Y-19518476D01*
X4403714Y-19518476D01*
X4384667Y-19508952D01*
X4375143Y-19499429D01*
X4365619Y-19480381D01*
X4356095Y-19442286D01*
X4356095Y-19394667D01*
X4365619Y-19356571D01*
X4375143Y-19337524D01*
X4384667Y-19328000D01*
X4403714Y-19318476D01*
X4556095Y-19499429D02*
X4565619Y-19508952D01*
X4556095Y-19518476D01*
X4546571Y-19508952D01*
X4556095Y-19499429D01*
X4556095Y-19518476D01*
X4679905Y-19404190D02*
X4660857Y-19394667D01*
X4651333Y-19385143D01*
X4641810Y-19366095D01*
X4641810Y-19356571D01*
X4651333Y-19337524D01*
X4660857Y-19328000D01*
X4679905Y-19318476D01*
X4718000Y-19318476D01*
X4737048Y-19328000D01*
X4746571Y-19337524D01*
X4756095Y-19356571D01*
X4756095Y-19366095D01*
X4746571Y-19385143D01*
X4737048Y-19394667D01*
X4718000Y-19404190D01*
X4679905Y-19404190D01*
X4660857Y-19413714D01*
X4651333Y-19423238D01*
X4641810Y-19442286D01*
X4641810Y-19480381D01*
X4651333Y-19499429D01*
X4660857Y-19508952D01*
X4679905Y-19518476D01*
X4718000Y-19518476D01*
X4737048Y-19508952D01*
X4746571Y-19499429D01*
X4756095Y-19480381D01*
X4756095Y-19442286D01*
X4746571Y-19423238D01*
X4737048Y-19413714D01*
X4718000Y-19404190D01*
X4879905Y-19318476D02*
X4898952Y-19318476D01*
X4918000Y-19328000D01*
X4927524Y-19337524D01*
X4937048Y-19356571D01*
X4946571Y-19394667D01*
X4946571Y-19442286D01*
X4937048Y-19480381D01*
X4927524Y-19499429D01*
X4918000Y-19508952D01*
X4898952Y-19518476D01*
X4879905Y-19518476D01*
X4860857Y-19508952D01*
X4851333Y-19499429D01*
X4841810Y-19480381D01*
X4832286Y-19442286D01*
X4832286Y-19394667D01*
X4841810Y-19356571D01*
X4851333Y-19337524D01*
X4860857Y-19328000D01*
X4879905Y-19318476D01*
X5070381Y-19318476D02*
X5089429Y-19318476D01*
X5108476Y-19328000D01*
X5118000Y-19337524D01*
X5127524Y-19356571D01*
X5137048Y-19394667D01*
X5137048Y-19442286D01*
X5127524Y-19480381D01*
X5118000Y-19499429D01*
X5108476Y-19508952D01*
X5089429Y-19518476D01*
X5070381Y-19518476D01*
X5051333Y-19508952D01*
X5041810Y-19499429D01*
X5032286Y-19480381D01*
X5022762Y-19442286D01*
X5022762Y-19394667D01*
X5032286Y-19356571D01*
X5041810Y-19337524D01*
X5051333Y-19328000D01*
X5070381Y-19318476D01*
X5222762Y-19518476D02*
X5222762Y-19385143D01*
X5222762Y-19404190D02*
X5232286Y-19394667D01*
X5251333Y-19385143D01*
X5279905Y-19385143D01*
X5298952Y-19394667D01*
X5308476Y-19413714D01*
X5308476Y-19518476D01*
X5308476Y-19413714D02*
X5318000Y-19394667D01*
X5337048Y-19385143D01*
X5365619Y-19385143D01*
X5384667Y-19394667D01*
X5394190Y-19413714D01*
X5394190Y-19518476D01*
X5489429Y-19518476D02*
X5489429Y-19385143D01*
X5489429Y-19404190D02*
X5498952Y-19394667D01*
X5518000Y-19385143D01*
X5546571Y-19385143D01*
X5565619Y-19394667D01*
X5575143Y-19413714D01*
X5575143Y-19518476D01*
X5575143Y-19413714D02*
X5584667Y-19394667D01*
X5603714Y-19385143D01*
X5632286Y-19385143D01*
X5651333Y-19394667D01*
X5660857Y-19413714D01*
X5660857Y-19518476D01*
X6051333Y-19308952D02*
X5879905Y-19566095D01*
X6308476Y-19318476D02*
X6327524Y-19318476D01*
X6346571Y-19328000D01*
X6356095Y-19337524D01*
X6365619Y-19356571D01*
X6375143Y-19394667D01*
X6375143Y-19442286D01*
X6365619Y-19480381D01*
X6356095Y-19499429D01*
X6346571Y-19508952D01*
X6327524Y-19518476D01*
X6308476Y-19518476D01*
X6289428Y-19508952D01*
X6279905Y-19499429D01*
X6270381Y-19480381D01*
X6260857Y-19442286D01*
X6260857Y-19394667D01*
X6270381Y-19356571D01*
X6279905Y-19337524D01*
X6289428Y-19328000D01*
X6308476Y-19318476D01*
X6460857Y-19499429D02*
X6470381Y-19508952D01*
X6460857Y-19518476D01*
X6451333Y-19508952D01*
X6460857Y-19499429D01*
X6460857Y-19518476D01*
X6594190Y-19318476D02*
X6613238Y-19318476D01*
X6632286Y-19328000D01*
X6641809Y-19337524D01*
X6651333Y-19356571D01*
X6660857Y-19394667D01*
X6660857Y-19442286D01*
X6651333Y-19480381D01*
X6641809Y-19499429D01*
X6632286Y-19508952D01*
X6613238Y-19518476D01*
X6594190Y-19518476D01*
X6575143Y-19508952D01*
X6565619Y-19499429D01*
X6556095Y-19480381D01*
X6546571Y-19442286D01*
X6546571Y-19394667D01*
X6556095Y-19356571D01*
X6565619Y-19337524D01*
X6575143Y-19328000D01*
X6594190Y-19318476D01*
X6727524Y-19318476D02*
X6851333Y-19318476D01*
X6784667Y-19394667D01*
X6813238Y-19394667D01*
X6832286Y-19404190D01*
X6841809Y-19413714D01*
X6851333Y-19432762D01*
X6851333Y-19480381D01*
X6841809Y-19499429D01*
X6832286Y-19508952D01*
X6813238Y-19518476D01*
X6756095Y-19518476D01*
X6737048Y-19508952D01*
X6727524Y-19499429D01*
X7041809Y-19518476D02*
X6927524Y-19518476D01*
X6984667Y-19518476D02*
X6984667Y-19318476D01*
X6965619Y-19347048D01*
X6946571Y-19366095D01*
X6927524Y-19375619D01*
X7222762Y-19318476D02*
X7127524Y-19318476D01*
X7118000Y-19413714D01*
X7127524Y-19404190D01*
X7146571Y-19394667D01*
X7194190Y-19394667D01*
X7213238Y-19404190D01*
X7222762Y-19413714D01*
X7232286Y-19432762D01*
X7232286Y-19480381D01*
X7222762Y-19499429D01*
X7213238Y-19508952D01*
X7194190Y-19518476D01*
X7146571Y-19518476D01*
X7127524Y-19508952D01*
X7118000Y-19499429D01*
X7308476Y-19318476D02*
X7308476Y-19356571D01*
X7384667Y-19318476D02*
X7384667Y-19356571D01*
X7679905Y-19594667D02*
X7670381Y-19585143D01*
X7651333Y-19556571D01*
X7641809Y-19537524D01*
X7632286Y-19508952D01*
X7622762Y-19461333D01*
X7622762Y-19423238D01*
X7632286Y-19375619D01*
X7641809Y-19347048D01*
X7651333Y-19328000D01*
X7670381Y-19299429D01*
X7679905Y-19289905D01*
X7860857Y-19518476D02*
X7746571Y-19518476D01*
X7803714Y-19518476D02*
X7803714Y-19318476D01*
X7784667Y-19347048D01*
X7765619Y-19366095D01*
X7746571Y-19375619D01*
X7984667Y-19318476D02*
X8003714Y-19318476D01*
X8022762Y-19328000D01*
X8032286Y-19337524D01*
X8041809Y-19356571D01*
X8051333Y-19394667D01*
X8051333Y-19442286D01*
X8041809Y-19480381D01*
X8032286Y-19499429D01*
X8022762Y-19508952D01*
X8003714Y-19518476D01*
X7984667Y-19518476D01*
X7965619Y-19508952D01*
X7956095Y-19499429D01*
X7946571Y-19480381D01*
X7937048Y-19442286D01*
X7937048Y-19394667D01*
X7946571Y-19356571D01*
X7956095Y-19337524D01*
X7965619Y-19328000D01*
X7984667Y-19318476D01*
X8289428Y-19518476D02*
X8289428Y-19318476D01*
X8375143Y-19518476D02*
X8375143Y-19413714D01*
X8365619Y-19394667D01*
X8346571Y-19385143D01*
X8318000Y-19385143D01*
X8298952Y-19394667D01*
X8289428Y-19404190D01*
X8498952Y-19518476D02*
X8479905Y-19508952D01*
X8470381Y-19499429D01*
X8460857Y-19480381D01*
X8460857Y-19423238D01*
X8470381Y-19404190D01*
X8479905Y-19394667D01*
X8498952Y-19385143D01*
X8527524Y-19385143D01*
X8546571Y-19394667D01*
X8556095Y-19404190D01*
X8565619Y-19423238D01*
X8565619Y-19480381D01*
X8556095Y-19499429D01*
X8546571Y-19508952D01*
X8527524Y-19518476D01*
X8498952Y-19518476D01*
X8679905Y-19518476D02*
X8660857Y-19508952D01*
X8651333Y-19489905D01*
X8651333Y-19318476D01*
X8832286Y-19508952D02*
X8813238Y-19518476D01*
X8775143Y-19518476D01*
X8756095Y-19508952D01*
X8746571Y-19489905D01*
X8746571Y-19413714D01*
X8756095Y-19394667D01*
X8775143Y-19385143D01*
X8813238Y-19385143D01*
X8832286Y-19394667D01*
X8841810Y-19413714D01*
X8841810Y-19432762D01*
X8746571Y-19451810D01*
X8918000Y-19508952D02*
X8937048Y-19518476D01*
X8975143Y-19518476D01*
X8994190Y-19508952D01*
X9003714Y-19489905D01*
X9003714Y-19480381D01*
X8994190Y-19461333D01*
X8975143Y-19451810D01*
X8946571Y-19451810D01*
X8927524Y-19442286D01*
X8918000Y-19423238D01*
X8918000Y-19413714D01*
X8927524Y-19394667D01*
X8946571Y-19385143D01*
X8975143Y-19385143D01*
X8994190Y-19394667D01*
X9070381Y-19594667D02*
X9079905Y-19585143D01*
X9098952Y-19556571D01*
X9108476Y-19537524D01*
X9118000Y-19508952D01*
X9127524Y-19461333D01*
X9127524Y-19423238D01*
X9118000Y-19375619D01*
X9108476Y-19347048D01*
X9098952Y-19328000D01*
X9079905Y-19299429D01*
X9070381Y-19289905D01*
D14*
X4093356Y-19727356D02*
X4093356Y-19656644D01*
X4022644Y-19656644D01*
X4022644Y-19727356D01*
X4093356Y-19727356D01*
D10*
X4470381Y-19782476D02*
X4356095Y-19782476D01*
X4413238Y-19782476D02*
X4413238Y-19582476D01*
X4394190Y-19611048D01*
X4375143Y-19630095D01*
X4356095Y-19639619D01*
X4556095Y-19763429D02*
X4565619Y-19772952D01*
X4556095Y-19782476D01*
X4546571Y-19772952D01*
X4556095Y-19763429D01*
X4556095Y-19782476D01*
X4689429Y-19582476D02*
X4708476Y-19582476D01*
X4727524Y-19592000D01*
X4737048Y-19601524D01*
X4746571Y-19620571D01*
X4756095Y-19658667D01*
X4756095Y-19706286D01*
X4746571Y-19744381D01*
X4737048Y-19763429D01*
X4727524Y-19772952D01*
X4708476Y-19782476D01*
X4689429Y-19782476D01*
X4670381Y-19772952D01*
X4660857Y-19763429D01*
X4651333Y-19744381D01*
X4641810Y-19706286D01*
X4641810Y-19658667D01*
X4651333Y-19620571D01*
X4660857Y-19601524D01*
X4670381Y-19592000D01*
X4689429Y-19582476D01*
X4879905Y-19582476D02*
X4898952Y-19582476D01*
X4918000Y-19592000D01*
X4927524Y-19601524D01*
X4937048Y-19620571D01*
X4946571Y-19658667D01*
X4946571Y-19706286D01*
X4937048Y-19744381D01*
X4927524Y-19763429D01*
X4918000Y-19772952D01*
X4898952Y-19782476D01*
X4879905Y-19782476D01*
X4860857Y-19772952D01*
X4851333Y-19763429D01*
X4841810Y-19744381D01*
X4832286Y-19706286D01*
X4832286Y-19658667D01*
X4841810Y-19620571D01*
X4851333Y-19601524D01*
X4860857Y-19592000D01*
X4879905Y-19582476D01*
X5070381Y-19582476D02*
X5089429Y-19582476D01*
X5108476Y-19592000D01*
X5118000Y-19601524D01*
X5127524Y-19620571D01*
X5137048Y-19658667D01*
X5137048Y-19706286D01*
X5127524Y-19744381D01*
X5118000Y-19763429D01*
X5108476Y-19772952D01*
X5089429Y-19782476D01*
X5070381Y-19782476D01*
X5051333Y-19772952D01*
X5041810Y-19763429D01*
X5032286Y-19744381D01*
X5022762Y-19706286D01*
X5022762Y-19658667D01*
X5032286Y-19620571D01*
X5041810Y-19601524D01*
X5051333Y-19592000D01*
X5070381Y-19582476D01*
X5222762Y-19782476D02*
X5222762Y-19649143D01*
X5222762Y-19668190D02*
X5232286Y-19658667D01*
X5251333Y-19649143D01*
X5279905Y-19649143D01*
X5298952Y-19658667D01*
X5308476Y-19677714D01*
X5308476Y-19782476D01*
X5308476Y-19677714D02*
X5318000Y-19658667D01*
X5337048Y-19649143D01*
X5365619Y-19649143D01*
X5384667Y-19658667D01*
X5394190Y-19677714D01*
X5394190Y-19782476D01*
X5489429Y-19782476D02*
X5489429Y-19649143D01*
X5489429Y-19668190D02*
X5498952Y-19658667D01*
X5518000Y-19649143D01*
X5546571Y-19649143D01*
X5565619Y-19658667D01*
X5575143Y-19677714D01*
X5575143Y-19782476D01*
X5575143Y-19677714D02*
X5584667Y-19658667D01*
X5603714Y-19649143D01*
X5632286Y-19649143D01*
X5651333Y-19658667D01*
X5660857Y-19677714D01*
X5660857Y-19782476D01*
X6051333Y-19572952D02*
X5879905Y-19830095D01*
X6308476Y-19582476D02*
X6327524Y-19582476D01*
X6346571Y-19592000D01*
X6356095Y-19601524D01*
X6365619Y-19620571D01*
X6375143Y-19658667D01*
X6375143Y-19706286D01*
X6365619Y-19744381D01*
X6356095Y-19763429D01*
X6346571Y-19772952D01*
X6327524Y-19782476D01*
X6308476Y-19782476D01*
X6289428Y-19772952D01*
X6279905Y-19763429D01*
X6270381Y-19744381D01*
X6260857Y-19706286D01*
X6260857Y-19658667D01*
X6270381Y-19620571D01*
X6279905Y-19601524D01*
X6289428Y-19592000D01*
X6308476Y-19582476D01*
X6460857Y-19763429D02*
X6470381Y-19772952D01*
X6460857Y-19782476D01*
X6451333Y-19772952D01*
X6460857Y-19763429D01*
X6460857Y-19782476D01*
X6594190Y-19582476D02*
X6613238Y-19582476D01*
X6632286Y-19592000D01*
X6641809Y-19601524D01*
X6651333Y-19620571D01*
X6660857Y-19658667D01*
X6660857Y-19706286D01*
X6651333Y-19744381D01*
X6641809Y-19763429D01*
X6632286Y-19772952D01*
X6613238Y-19782476D01*
X6594190Y-19782476D01*
X6575143Y-19772952D01*
X6565619Y-19763429D01*
X6556095Y-19744381D01*
X6546571Y-19706286D01*
X6546571Y-19658667D01*
X6556095Y-19620571D01*
X6565619Y-19601524D01*
X6575143Y-19592000D01*
X6594190Y-19582476D01*
X6727524Y-19582476D02*
X6851333Y-19582476D01*
X6784667Y-19658667D01*
X6813238Y-19658667D01*
X6832286Y-19668190D01*
X6841809Y-19677714D01*
X6851333Y-19696762D01*
X6851333Y-19744381D01*
X6841809Y-19763429D01*
X6832286Y-19772952D01*
X6813238Y-19782476D01*
X6756095Y-19782476D01*
X6737048Y-19772952D01*
X6727524Y-19763429D01*
X6946571Y-19782476D02*
X6984667Y-19782476D01*
X7003714Y-19772952D01*
X7013238Y-19763429D01*
X7032286Y-19734857D01*
X7041809Y-19696762D01*
X7041809Y-19620571D01*
X7032286Y-19601524D01*
X7022762Y-19592000D01*
X7003714Y-19582476D01*
X6965619Y-19582476D01*
X6946571Y-19592000D01*
X6937048Y-19601524D01*
X6927524Y-19620571D01*
X6927524Y-19668190D01*
X6937048Y-19687238D01*
X6946571Y-19696762D01*
X6965619Y-19706286D01*
X7003714Y-19706286D01*
X7022762Y-19696762D01*
X7032286Y-19687238D01*
X7041809Y-19668190D01*
X7213238Y-19649143D02*
X7213238Y-19782476D01*
X7165619Y-19572952D02*
X7118000Y-19715810D01*
X7241809Y-19715810D01*
X7308476Y-19582476D02*
X7308476Y-19620571D01*
X7384667Y-19582476D02*
X7384667Y-19620571D01*
X7679905Y-19858667D02*
X7670381Y-19849143D01*
X7651333Y-19820571D01*
X7641809Y-19801524D01*
X7632286Y-19772952D01*
X7622762Y-19725333D01*
X7622762Y-19687238D01*
X7632286Y-19639619D01*
X7641809Y-19611048D01*
X7651333Y-19592000D01*
X7670381Y-19563429D01*
X7679905Y-19553905D01*
X7841809Y-19649143D02*
X7841809Y-19782476D01*
X7794190Y-19572952D02*
X7746571Y-19715810D01*
X7870381Y-19715810D01*
X8098952Y-19782476D02*
X8098952Y-19582476D01*
X8184667Y-19782476D02*
X8184667Y-19677714D01*
X8175143Y-19658667D01*
X8156095Y-19649143D01*
X8127524Y-19649143D01*
X8108476Y-19658667D01*
X8098952Y-19668190D01*
X8308476Y-19782476D02*
X8289428Y-19772952D01*
X8279905Y-19763429D01*
X8270381Y-19744381D01*
X8270381Y-19687238D01*
X8279905Y-19668190D01*
X8289428Y-19658667D01*
X8308476Y-19649143D01*
X8337048Y-19649143D01*
X8356095Y-19658667D01*
X8365619Y-19668190D01*
X8375143Y-19687238D01*
X8375143Y-19744381D01*
X8365619Y-19763429D01*
X8356095Y-19772952D01*
X8337048Y-19782476D01*
X8308476Y-19782476D01*
X8489429Y-19782476D02*
X8470381Y-19772952D01*
X8460857Y-19753905D01*
X8460857Y-19582476D01*
X8641810Y-19772952D02*
X8622762Y-19782476D01*
X8584667Y-19782476D01*
X8565619Y-19772952D01*
X8556095Y-19753905D01*
X8556095Y-19677714D01*
X8565619Y-19658667D01*
X8584667Y-19649143D01*
X8622762Y-19649143D01*
X8641810Y-19658667D01*
X8651333Y-19677714D01*
X8651333Y-19696762D01*
X8556095Y-19715810D01*
X8727524Y-19772952D02*
X8746571Y-19782476D01*
X8784667Y-19782476D01*
X8803714Y-19772952D01*
X8813238Y-19753905D01*
X8813238Y-19744381D01*
X8803714Y-19725333D01*
X8784667Y-19715810D01*
X8756095Y-19715810D01*
X8737048Y-19706286D01*
X8727524Y-19687238D01*
X8727524Y-19677714D01*
X8737048Y-19658667D01*
X8756095Y-19649143D01*
X8784667Y-19649143D01*
X8803714Y-19658667D01*
X8879905Y-19858667D02*
X8889429Y-19849143D01*
X8908476Y-19820571D01*
X8918000Y-19801524D01*
X8927524Y-19772952D01*
X8937048Y-19725333D01*
X8937048Y-19687238D01*
X8927524Y-19639619D01*
X8918000Y-19611048D01*
X8908476Y-19592000D01*
X8889429Y-19563429D01*
X8879905Y-19553905D01*
D14*
X4058000Y-20006000D02*
X4108000Y-19956000D01*
X4058000Y-19906000D01*
X4008000Y-19956000D01*
X4058000Y-20006000D01*
D10*
X4470381Y-20046476D02*
X4356095Y-20046476D01*
X4413238Y-20046476D02*
X4413238Y-19846476D01*
X4394190Y-19875048D01*
X4375143Y-19894095D01*
X4356095Y-19903619D01*
X4556095Y-20027429D02*
X4565619Y-20036952D01*
X4556095Y-20046476D01*
X4546571Y-20036952D01*
X4556095Y-20027429D01*
X4556095Y-20046476D01*
X4689429Y-19846476D02*
X4708476Y-19846476D01*
X4727524Y-19856000D01*
X4737048Y-19865524D01*
X4746571Y-19884571D01*
X4756095Y-19922667D01*
X4756095Y-19970286D01*
X4746571Y-20008381D01*
X4737048Y-20027429D01*
X4727524Y-20036952D01*
X4708476Y-20046476D01*
X4689429Y-20046476D01*
X4670381Y-20036952D01*
X4660857Y-20027429D01*
X4651333Y-20008381D01*
X4641810Y-19970286D01*
X4641810Y-19922667D01*
X4651333Y-19884571D01*
X4660857Y-19865524D01*
X4670381Y-19856000D01*
X4689429Y-19846476D01*
X4879905Y-19846476D02*
X4898952Y-19846476D01*
X4918000Y-19856000D01*
X4927524Y-19865524D01*
X4937048Y-19884571D01*
X4946571Y-19922667D01*
X4946571Y-19970286D01*
X4937048Y-20008381D01*
X4927524Y-20027429D01*
X4918000Y-20036952D01*
X4898952Y-20046476D01*
X4879905Y-20046476D01*
X4860857Y-20036952D01*
X4851333Y-20027429D01*
X4841810Y-20008381D01*
X4832286Y-19970286D01*
X4832286Y-19922667D01*
X4841810Y-19884571D01*
X4851333Y-19865524D01*
X4860857Y-19856000D01*
X4879905Y-19846476D01*
X5070381Y-19846476D02*
X5089429Y-19846476D01*
X5108476Y-19856000D01*
X5118000Y-19865524D01*
X5127524Y-19884571D01*
X5137048Y-19922667D01*
X5137048Y-19970286D01*
X5127524Y-20008381D01*
X5118000Y-20027429D01*
X5108476Y-20036952D01*
X5089429Y-20046476D01*
X5070381Y-20046476D01*
X5051333Y-20036952D01*
X5041810Y-20027429D01*
X5032286Y-20008381D01*
X5022762Y-19970286D01*
X5022762Y-19922667D01*
X5032286Y-19884571D01*
X5041810Y-19865524D01*
X5051333Y-19856000D01*
X5070381Y-19846476D01*
X5222762Y-20046476D02*
X5222762Y-19913143D01*
X5222762Y-19932190D02*
X5232286Y-19922667D01*
X5251333Y-19913143D01*
X5279905Y-19913143D01*
X5298952Y-19922667D01*
X5308476Y-19941714D01*
X5308476Y-20046476D01*
X5308476Y-19941714D02*
X5318000Y-19922667D01*
X5337048Y-19913143D01*
X5365619Y-19913143D01*
X5384667Y-19922667D01*
X5394190Y-19941714D01*
X5394190Y-20046476D01*
X5489429Y-20046476D02*
X5489429Y-19913143D01*
X5489429Y-19932190D02*
X5498952Y-19922667D01*
X5518000Y-19913143D01*
X5546571Y-19913143D01*
X5565619Y-19922667D01*
X5575143Y-19941714D01*
X5575143Y-20046476D01*
X5575143Y-19941714D02*
X5584667Y-19922667D01*
X5603714Y-19913143D01*
X5632286Y-19913143D01*
X5651333Y-19922667D01*
X5660857Y-19941714D01*
X5660857Y-20046476D01*
X6051333Y-19836952D02*
X5879905Y-20094095D01*
X6308476Y-19846476D02*
X6327524Y-19846476D01*
X6346571Y-19856000D01*
X6356095Y-19865524D01*
X6365619Y-19884571D01*
X6375143Y-19922667D01*
X6375143Y-19970286D01*
X6365619Y-20008381D01*
X6356095Y-20027429D01*
X6346571Y-20036952D01*
X6327524Y-20046476D01*
X6308476Y-20046476D01*
X6289428Y-20036952D01*
X6279905Y-20027429D01*
X6270381Y-20008381D01*
X6260857Y-19970286D01*
X6260857Y-19922667D01*
X6270381Y-19884571D01*
X6279905Y-19865524D01*
X6289428Y-19856000D01*
X6308476Y-19846476D01*
X6460857Y-20027429D02*
X6470381Y-20036952D01*
X6460857Y-20046476D01*
X6451333Y-20036952D01*
X6460857Y-20027429D01*
X6460857Y-20046476D01*
X6594190Y-19846476D02*
X6613238Y-19846476D01*
X6632286Y-19856000D01*
X6641809Y-19865524D01*
X6651333Y-19884571D01*
X6660857Y-19922667D01*
X6660857Y-19970286D01*
X6651333Y-20008381D01*
X6641809Y-20027429D01*
X6632286Y-20036952D01*
X6613238Y-20046476D01*
X6594190Y-20046476D01*
X6575143Y-20036952D01*
X6565619Y-20027429D01*
X6556095Y-20008381D01*
X6546571Y-19970286D01*
X6546571Y-19922667D01*
X6556095Y-19884571D01*
X6565619Y-19865524D01*
X6575143Y-19856000D01*
X6594190Y-19846476D01*
X6727524Y-19846476D02*
X6851333Y-19846476D01*
X6784667Y-19922667D01*
X6813238Y-19922667D01*
X6832286Y-19932190D01*
X6841809Y-19941714D01*
X6851333Y-19960762D01*
X6851333Y-20008381D01*
X6841809Y-20027429D01*
X6832286Y-20036952D01*
X6813238Y-20046476D01*
X6756095Y-20046476D01*
X6737048Y-20036952D01*
X6727524Y-20027429D01*
X6946571Y-20046476D02*
X6984667Y-20046476D01*
X7003714Y-20036952D01*
X7013238Y-20027429D01*
X7032286Y-19998857D01*
X7041809Y-19960762D01*
X7041809Y-19884571D01*
X7032286Y-19865524D01*
X7022762Y-19856000D01*
X7003714Y-19846476D01*
X6965619Y-19846476D01*
X6946571Y-19856000D01*
X6937048Y-19865524D01*
X6927524Y-19884571D01*
X6927524Y-19932190D01*
X6937048Y-19951238D01*
X6946571Y-19960762D01*
X6965619Y-19970286D01*
X7003714Y-19970286D01*
X7022762Y-19960762D01*
X7032286Y-19951238D01*
X7041809Y-19932190D01*
X7213238Y-19913143D02*
X7213238Y-20046476D01*
X7165619Y-19836952D02*
X7118000Y-19979810D01*
X7241809Y-19979810D01*
X7308476Y-19846476D02*
X7308476Y-19884571D01*
X7384667Y-19846476D02*
X7384667Y-19884571D01*
X7679905Y-20122667D02*
X7670381Y-20113143D01*
X7651333Y-20084571D01*
X7641809Y-20065524D01*
X7632286Y-20036952D01*
X7622762Y-19989333D01*
X7622762Y-19951238D01*
X7632286Y-19903619D01*
X7641809Y-19875048D01*
X7651333Y-19856000D01*
X7670381Y-19827429D01*
X7679905Y-19817905D01*
X7860857Y-20046476D02*
X7746571Y-20046476D01*
X7803714Y-20046476D02*
X7803714Y-19846476D01*
X7784667Y-19875048D01*
X7765619Y-19894095D01*
X7746571Y-19903619D01*
X8051333Y-20046476D02*
X7937048Y-20046476D01*
X7994190Y-20046476D02*
X7994190Y-19846476D01*
X7975143Y-19875048D01*
X7956095Y-19894095D01*
X7937048Y-19903619D01*
X8127524Y-19865524D02*
X8137048Y-19856000D01*
X8156095Y-19846476D01*
X8203714Y-19846476D01*
X8222762Y-19856000D01*
X8232286Y-19865524D01*
X8241809Y-19884571D01*
X8241809Y-19903619D01*
X8232286Y-19932190D01*
X8118000Y-20046476D01*
X8241809Y-20046476D01*
X8479905Y-20046476D02*
X8479905Y-19846476D01*
X8565619Y-20046476D02*
X8565619Y-19941714D01*
X8556095Y-19922667D01*
X8537048Y-19913143D01*
X8508476Y-19913143D01*
X8489429Y-19922667D01*
X8479905Y-19932190D01*
X8689429Y-20046476D02*
X8670381Y-20036952D01*
X8660857Y-20027429D01*
X8651333Y-20008381D01*
X8651333Y-19951238D01*
X8660857Y-19932190D01*
X8670381Y-19922667D01*
X8689429Y-19913143D01*
X8718000Y-19913143D01*
X8737048Y-19922667D01*
X8746571Y-19932190D01*
X8756095Y-19951238D01*
X8756095Y-20008381D01*
X8746571Y-20027429D01*
X8737048Y-20036952D01*
X8718000Y-20046476D01*
X8689429Y-20046476D01*
X8870381Y-20046476D02*
X8851333Y-20036952D01*
X8841810Y-20017905D01*
X8841810Y-19846476D01*
X9022762Y-20036952D02*
X9003714Y-20046476D01*
X8965619Y-20046476D01*
X8946571Y-20036952D01*
X8937048Y-20017905D01*
X8937048Y-19941714D01*
X8946571Y-19922667D01*
X8965619Y-19913143D01*
X9003714Y-19913143D01*
X9022762Y-19922667D01*
X9032286Y-19941714D01*
X9032286Y-19960762D01*
X8937048Y-19979810D01*
X9108476Y-20036952D02*
X9127524Y-20046476D01*
X9165619Y-20046476D01*
X9184667Y-20036952D01*
X9194190Y-20017905D01*
X9194190Y-20008381D01*
X9184667Y-19989333D01*
X9165619Y-19979810D01*
X9137048Y-19979810D01*
X9118000Y-19970286D01*
X9108476Y-19951238D01*
X9108476Y-19941714D01*
X9118000Y-19922667D01*
X9137048Y-19913143D01*
X9165619Y-19913143D01*
X9184667Y-19922667D01*
X9260857Y-20122667D02*
X9270381Y-20113143D01*
X9289429Y-20084571D01*
X9298952Y-20065524D01*
X9308476Y-20036952D01*
X9318000Y-19989333D01*
X9318000Y-19951238D01*
X9308476Y-19903619D01*
X9298952Y-19875048D01*
X9289429Y-19856000D01*
X9270381Y-19827429D01*
X9260857Y-19817905D01*
D15*
X4006000Y-20169000D02*
X4108000Y-20271000D01*
X4108000Y-20169000D02*
X4006000Y-20271000D01*
X4108000Y-20220000D02*
G75*
G03*
X4108000Y-20220000I-51000J0D01*
G01*
D10*
X4470381Y-20310476D02*
X4356095Y-20310476D01*
X4413238Y-20310476D02*
X4413238Y-20110476D01*
X4394190Y-20139048D01*
X4375143Y-20158095D01*
X4356095Y-20167619D01*
X4556095Y-20291429D02*
X4565619Y-20300952D01*
X4556095Y-20310476D01*
X4546571Y-20300952D01*
X4556095Y-20291429D01*
X4556095Y-20310476D01*
X4689429Y-20110476D02*
X4708476Y-20110476D01*
X4727524Y-20120000D01*
X4737048Y-20129524D01*
X4746571Y-20148571D01*
X4756095Y-20186667D01*
X4756095Y-20234286D01*
X4746571Y-20272381D01*
X4737048Y-20291429D01*
X4727524Y-20300952D01*
X4708476Y-20310476D01*
X4689429Y-20310476D01*
X4670381Y-20300952D01*
X4660857Y-20291429D01*
X4651333Y-20272381D01*
X4641810Y-20234286D01*
X4641810Y-20186667D01*
X4651333Y-20148571D01*
X4660857Y-20129524D01*
X4670381Y-20120000D01*
X4689429Y-20110476D01*
X4832286Y-20129524D02*
X4841810Y-20120000D01*
X4860857Y-20110476D01*
X4908476Y-20110476D01*
X4927524Y-20120000D01*
X4937048Y-20129524D01*
X4946571Y-20148571D01*
X4946571Y-20167619D01*
X4937048Y-20196190D01*
X4822762Y-20310476D01*
X4946571Y-20310476D01*
X5070381Y-20110476D02*
X5089429Y-20110476D01*
X5108476Y-20120000D01*
X5118000Y-20129524D01*
X5127524Y-20148571D01*
X5137048Y-20186667D01*
X5137048Y-20234286D01*
X5127524Y-20272381D01*
X5118000Y-20291429D01*
X5108476Y-20300952D01*
X5089429Y-20310476D01*
X5070381Y-20310476D01*
X5051333Y-20300952D01*
X5041810Y-20291429D01*
X5032286Y-20272381D01*
X5022762Y-20234286D01*
X5022762Y-20186667D01*
X5032286Y-20148571D01*
X5041810Y-20129524D01*
X5051333Y-20120000D01*
X5070381Y-20110476D01*
X5222762Y-20310476D02*
X5222762Y-20177143D01*
X5222762Y-20196190D02*
X5232286Y-20186667D01*
X5251333Y-20177143D01*
X5279905Y-20177143D01*
X5298952Y-20186667D01*
X5308476Y-20205714D01*
X5308476Y-20310476D01*
X5308476Y-20205714D02*
X5318000Y-20186667D01*
X5337048Y-20177143D01*
X5365619Y-20177143D01*
X5384667Y-20186667D01*
X5394190Y-20205714D01*
X5394190Y-20310476D01*
X5489429Y-20310476D02*
X5489429Y-20177143D01*
X5489429Y-20196190D02*
X5498952Y-20186667D01*
X5518000Y-20177143D01*
X5546571Y-20177143D01*
X5565619Y-20186667D01*
X5575143Y-20205714D01*
X5575143Y-20310476D01*
X5575143Y-20205714D02*
X5584667Y-20186667D01*
X5603714Y-20177143D01*
X5632286Y-20177143D01*
X5651333Y-20186667D01*
X5660857Y-20205714D01*
X5660857Y-20310476D01*
X6051333Y-20100952D02*
X5879905Y-20358095D01*
X6308476Y-20110476D02*
X6327524Y-20110476D01*
X6346571Y-20120000D01*
X6356095Y-20129524D01*
X6365619Y-20148571D01*
X6375143Y-20186667D01*
X6375143Y-20234286D01*
X6365619Y-20272381D01*
X6356095Y-20291429D01*
X6346571Y-20300952D01*
X6327524Y-20310476D01*
X6308476Y-20310476D01*
X6289428Y-20300952D01*
X6279905Y-20291429D01*
X6270381Y-20272381D01*
X6260857Y-20234286D01*
X6260857Y-20186667D01*
X6270381Y-20148571D01*
X6279905Y-20129524D01*
X6289428Y-20120000D01*
X6308476Y-20110476D01*
X6460857Y-20291429D02*
X6470381Y-20300952D01*
X6460857Y-20310476D01*
X6451333Y-20300952D01*
X6460857Y-20291429D01*
X6460857Y-20310476D01*
X6594190Y-20110476D02*
X6613238Y-20110476D01*
X6632286Y-20120000D01*
X6641809Y-20129524D01*
X6651333Y-20148571D01*
X6660857Y-20186667D01*
X6660857Y-20234286D01*
X6651333Y-20272381D01*
X6641809Y-20291429D01*
X6632286Y-20300952D01*
X6613238Y-20310476D01*
X6594190Y-20310476D01*
X6575143Y-20300952D01*
X6565619Y-20291429D01*
X6556095Y-20272381D01*
X6546571Y-20234286D01*
X6546571Y-20186667D01*
X6556095Y-20148571D01*
X6565619Y-20129524D01*
X6575143Y-20120000D01*
X6594190Y-20110476D01*
X6832286Y-20177143D02*
X6832286Y-20310476D01*
X6784667Y-20100952D02*
X6737048Y-20243810D01*
X6860857Y-20243810D01*
X6975143Y-20110476D02*
X6994190Y-20110476D01*
X7013238Y-20120000D01*
X7022762Y-20129524D01*
X7032286Y-20148571D01*
X7041809Y-20186667D01*
X7041809Y-20234286D01*
X7032286Y-20272381D01*
X7022762Y-20291429D01*
X7013238Y-20300952D01*
X6994190Y-20310476D01*
X6975143Y-20310476D01*
X6956095Y-20300952D01*
X6946571Y-20291429D01*
X6937048Y-20272381D01*
X6927524Y-20234286D01*
X6927524Y-20186667D01*
X6937048Y-20148571D01*
X6946571Y-20129524D01*
X6956095Y-20120000D01*
X6975143Y-20110476D01*
X7118000Y-20129524D02*
X7127524Y-20120000D01*
X7146571Y-20110476D01*
X7194190Y-20110476D01*
X7213238Y-20120000D01*
X7222762Y-20129524D01*
X7232286Y-20148571D01*
X7232286Y-20167619D01*
X7222762Y-20196190D01*
X7108476Y-20310476D01*
X7232286Y-20310476D01*
X7308476Y-20110476D02*
X7308476Y-20148571D01*
X7384667Y-20110476D02*
X7384667Y-20148571D01*
X7679905Y-20386667D02*
X7670381Y-20377143D01*
X7651333Y-20348571D01*
X7641809Y-20329524D01*
X7632286Y-20300952D01*
X7622762Y-20253333D01*
X7622762Y-20215238D01*
X7632286Y-20167619D01*
X7641809Y-20139048D01*
X7651333Y-20120000D01*
X7670381Y-20091429D01*
X7679905Y-20081905D01*
X7746571Y-20129524D02*
X7756095Y-20120000D01*
X7775143Y-20110476D01*
X7822762Y-20110476D01*
X7841809Y-20120000D01*
X7851333Y-20129524D01*
X7860857Y-20148571D01*
X7860857Y-20167619D01*
X7851333Y-20196190D01*
X7737048Y-20310476D01*
X7860857Y-20310476D01*
X7956095Y-20310476D02*
X7994190Y-20310476D01*
X8013238Y-20300952D01*
X8022762Y-20291429D01*
X8041809Y-20262857D01*
X8051333Y-20224762D01*
X8051333Y-20148571D01*
X8041809Y-20129524D01*
X8032286Y-20120000D01*
X8013238Y-20110476D01*
X7975143Y-20110476D01*
X7956095Y-20120000D01*
X7946571Y-20129524D01*
X7937048Y-20148571D01*
X7937048Y-20196190D01*
X7946571Y-20215238D01*
X7956095Y-20224762D01*
X7975143Y-20234286D01*
X8013238Y-20234286D01*
X8032286Y-20224762D01*
X8041809Y-20215238D01*
X8051333Y-20196190D01*
X8289428Y-20310476D02*
X8289428Y-20110476D01*
X8375143Y-20310476D02*
X8375143Y-20205714D01*
X8365619Y-20186667D01*
X8346571Y-20177143D01*
X8318000Y-20177143D01*
X8298952Y-20186667D01*
X8289428Y-20196190D01*
X8498952Y-20310476D02*
X8479905Y-20300952D01*
X8470381Y-20291429D01*
X8460857Y-20272381D01*
X8460857Y-20215238D01*
X8470381Y-20196190D01*
X8479905Y-20186667D01*
X8498952Y-20177143D01*
X8527524Y-20177143D01*
X8546571Y-20186667D01*
X8556095Y-20196190D01*
X8565619Y-20215238D01*
X8565619Y-20272381D01*
X8556095Y-20291429D01*
X8546571Y-20300952D01*
X8527524Y-20310476D01*
X8498952Y-20310476D01*
X8679905Y-20310476D02*
X8660857Y-20300952D01*
X8651333Y-20281905D01*
X8651333Y-20110476D01*
X8832286Y-20300952D02*
X8813238Y-20310476D01*
X8775143Y-20310476D01*
X8756095Y-20300952D01*
X8746571Y-20281905D01*
X8746571Y-20205714D01*
X8756095Y-20186667D01*
X8775143Y-20177143D01*
X8813238Y-20177143D01*
X8832286Y-20186667D01*
X8841810Y-20205714D01*
X8841810Y-20224762D01*
X8746571Y-20243810D01*
X8918000Y-20300952D02*
X8937048Y-20310476D01*
X8975143Y-20310476D01*
X8994190Y-20300952D01*
X9003714Y-20281905D01*
X9003714Y-20272381D01*
X8994190Y-20253333D01*
X8975143Y-20243810D01*
X8946571Y-20243810D01*
X8927524Y-20234286D01*
X8918000Y-20215238D01*
X8918000Y-20205714D01*
X8927524Y-20186667D01*
X8946571Y-20177143D01*
X8975143Y-20177143D01*
X8994190Y-20186667D01*
X9070381Y-20386667D02*
X9079905Y-20377143D01*
X9098952Y-20348571D01*
X9108476Y-20329524D01*
X9118000Y-20300952D01*
X9127524Y-20253333D01*
X9127524Y-20215238D01*
X9118000Y-20167619D01*
X9108476Y-20139048D01*
X9098952Y-20120000D01*
X9079905Y-20091429D01*
X9070381Y-20081905D01*
D15*
X4006000Y-20433000D02*
X4108000Y-20535000D01*
X4108000Y-20433000D02*
X4006000Y-20535000D01*
X4057000Y-20433000D02*
X4057000Y-20535000D01*
X4006000Y-20484000D02*
X4108000Y-20484000D01*
D10*
X4470381Y-20574476D02*
X4356095Y-20574476D01*
X4413238Y-20574476D02*
X4413238Y-20374476D01*
X4394190Y-20403048D01*
X4375143Y-20422095D01*
X4356095Y-20431619D01*
X4556095Y-20555429D02*
X4565619Y-20564952D01*
X4556095Y-20574476D01*
X4546571Y-20564952D01*
X4556095Y-20555429D01*
X4556095Y-20574476D01*
X4689429Y-20374476D02*
X4708476Y-20374476D01*
X4727524Y-20384000D01*
X4737048Y-20393524D01*
X4746571Y-20412571D01*
X4756095Y-20450667D01*
X4756095Y-20498286D01*
X4746571Y-20536381D01*
X4737048Y-20555429D01*
X4727524Y-20564952D01*
X4708476Y-20574476D01*
X4689429Y-20574476D01*
X4670381Y-20564952D01*
X4660857Y-20555429D01*
X4651333Y-20536381D01*
X4641810Y-20498286D01*
X4641810Y-20450667D01*
X4651333Y-20412571D01*
X4660857Y-20393524D01*
X4670381Y-20384000D01*
X4689429Y-20374476D01*
X4832286Y-20393524D02*
X4841810Y-20384000D01*
X4860857Y-20374476D01*
X4908476Y-20374476D01*
X4927524Y-20384000D01*
X4937048Y-20393524D01*
X4946571Y-20412571D01*
X4946571Y-20431619D01*
X4937048Y-20460190D01*
X4822762Y-20574476D01*
X4946571Y-20574476D01*
X5070381Y-20374476D02*
X5089429Y-20374476D01*
X5108476Y-20384000D01*
X5118000Y-20393524D01*
X5127524Y-20412571D01*
X5137048Y-20450667D01*
X5137048Y-20498286D01*
X5127524Y-20536381D01*
X5118000Y-20555429D01*
X5108476Y-20564952D01*
X5089429Y-20574476D01*
X5070381Y-20574476D01*
X5051333Y-20564952D01*
X5041810Y-20555429D01*
X5032286Y-20536381D01*
X5022762Y-20498286D01*
X5022762Y-20450667D01*
X5032286Y-20412571D01*
X5041810Y-20393524D01*
X5051333Y-20384000D01*
X5070381Y-20374476D01*
X5222762Y-20574476D02*
X5222762Y-20441143D01*
X5222762Y-20460190D02*
X5232286Y-20450667D01*
X5251333Y-20441143D01*
X5279905Y-20441143D01*
X5298952Y-20450667D01*
X5308476Y-20469714D01*
X5308476Y-20574476D01*
X5308476Y-20469714D02*
X5318000Y-20450667D01*
X5337048Y-20441143D01*
X5365619Y-20441143D01*
X5384667Y-20450667D01*
X5394190Y-20469714D01*
X5394190Y-20574476D01*
X5489429Y-20574476D02*
X5489429Y-20441143D01*
X5489429Y-20460190D02*
X5498952Y-20450667D01*
X5518000Y-20441143D01*
X5546571Y-20441143D01*
X5565619Y-20450667D01*
X5575143Y-20469714D01*
X5575143Y-20574476D01*
X5575143Y-20469714D02*
X5584667Y-20450667D01*
X5603714Y-20441143D01*
X5632286Y-20441143D01*
X5651333Y-20450667D01*
X5660857Y-20469714D01*
X5660857Y-20574476D01*
X6051333Y-20364952D02*
X5879905Y-20622095D01*
X6308476Y-20374476D02*
X6327524Y-20374476D01*
X6346571Y-20384000D01*
X6356095Y-20393524D01*
X6365619Y-20412571D01*
X6375143Y-20450667D01*
X6375143Y-20498286D01*
X6365619Y-20536381D01*
X6356095Y-20555429D01*
X6346571Y-20564952D01*
X6327524Y-20574476D01*
X6308476Y-20574476D01*
X6289428Y-20564952D01*
X6279905Y-20555429D01*
X6270381Y-20536381D01*
X6260857Y-20498286D01*
X6260857Y-20450667D01*
X6270381Y-20412571D01*
X6279905Y-20393524D01*
X6289428Y-20384000D01*
X6308476Y-20374476D01*
X6460857Y-20555429D02*
X6470381Y-20564952D01*
X6460857Y-20574476D01*
X6451333Y-20564952D01*
X6460857Y-20555429D01*
X6460857Y-20574476D01*
X6594190Y-20374476D02*
X6613238Y-20374476D01*
X6632286Y-20384000D01*
X6641809Y-20393524D01*
X6651333Y-20412571D01*
X6660857Y-20450667D01*
X6660857Y-20498286D01*
X6651333Y-20536381D01*
X6641809Y-20555429D01*
X6632286Y-20564952D01*
X6613238Y-20574476D01*
X6594190Y-20574476D01*
X6575143Y-20564952D01*
X6565619Y-20555429D01*
X6556095Y-20536381D01*
X6546571Y-20498286D01*
X6546571Y-20450667D01*
X6556095Y-20412571D01*
X6565619Y-20393524D01*
X6575143Y-20384000D01*
X6594190Y-20374476D01*
X6832286Y-20441143D02*
X6832286Y-20574476D01*
X6784667Y-20364952D02*
X6737048Y-20507810D01*
X6860857Y-20507810D01*
X6975143Y-20374476D02*
X6994190Y-20374476D01*
X7013238Y-20384000D01*
X7022762Y-20393524D01*
X7032286Y-20412571D01*
X7041809Y-20450667D01*
X7041809Y-20498286D01*
X7032286Y-20536381D01*
X7022762Y-20555429D01*
X7013238Y-20564952D01*
X6994190Y-20574476D01*
X6975143Y-20574476D01*
X6956095Y-20564952D01*
X6946571Y-20555429D01*
X6937048Y-20536381D01*
X6927524Y-20498286D01*
X6927524Y-20450667D01*
X6937048Y-20412571D01*
X6946571Y-20393524D01*
X6956095Y-20384000D01*
X6975143Y-20374476D01*
X7118000Y-20393524D02*
X7127524Y-20384000D01*
X7146571Y-20374476D01*
X7194190Y-20374476D01*
X7213238Y-20384000D01*
X7222762Y-20393524D01*
X7232286Y-20412571D01*
X7232286Y-20431619D01*
X7222762Y-20460190D01*
X7108476Y-20574476D01*
X7232286Y-20574476D01*
X7308476Y-20374476D02*
X7308476Y-20412571D01*
X7384667Y-20374476D02*
X7384667Y-20412571D01*
X7679905Y-20650667D02*
X7670381Y-20641143D01*
X7651333Y-20612571D01*
X7641809Y-20593524D01*
X7632286Y-20564952D01*
X7622762Y-20517333D01*
X7622762Y-20479238D01*
X7632286Y-20431619D01*
X7641809Y-20403048D01*
X7651333Y-20384000D01*
X7670381Y-20355429D01*
X7679905Y-20345905D01*
X7737048Y-20374476D02*
X7860857Y-20374476D01*
X7794190Y-20450667D01*
X7822762Y-20450667D01*
X7841809Y-20460190D01*
X7851333Y-20469714D01*
X7860857Y-20488762D01*
X7860857Y-20536381D01*
X7851333Y-20555429D01*
X7841809Y-20564952D01*
X7822762Y-20574476D01*
X7765619Y-20574476D01*
X7746571Y-20564952D01*
X7737048Y-20555429D01*
X8032286Y-20441143D02*
X8032286Y-20574476D01*
X7984667Y-20364952D02*
X7937048Y-20507810D01*
X8060857Y-20507810D01*
X8289428Y-20574476D02*
X8289428Y-20374476D01*
X8375143Y-20574476D02*
X8375143Y-20469714D01*
X8365619Y-20450667D01*
X8346571Y-20441143D01*
X8318000Y-20441143D01*
X8298952Y-20450667D01*
X8289428Y-20460190D01*
X8498952Y-20574476D02*
X8479905Y-20564952D01*
X8470381Y-20555429D01*
X8460857Y-20536381D01*
X8460857Y-20479238D01*
X8470381Y-20460190D01*
X8479905Y-20450667D01*
X8498952Y-20441143D01*
X8527524Y-20441143D01*
X8546571Y-20450667D01*
X8556095Y-20460190D01*
X8565619Y-20479238D01*
X8565619Y-20536381D01*
X8556095Y-20555429D01*
X8546571Y-20564952D01*
X8527524Y-20574476D01*
X8498952Y-20574476D01*
X8679905Y-20574476D02*
X8660857Y-20564952D01*
X8651333Y-20545905D01*
X8651333Y-20374476D01*
X8832286Y-20564952D02*
X8813238Y-20574476D01*
X8775143Y-20574476D01*
X8756095Y-20564952D01*
X8746571Y-20545905D01*
X8746571Y-20469714D01*
X8756095Y-20450667D01*
X8775143Y-20441143D01*
X8813238Y-20441143D01*
X8832286Y-20450667D01*
X8841810Y-20469714D01*
X8841810Y-20488762D01*
X8746571Y-20507810D01*
X8918000Y-20564952D02*
X8937048Y-20574476D01*
X8975143Y-20574476D01*
X8994190Y-20564952D01*
X9003714Y-20545905D01*
X9003714Y-20536381D01*
X8994190Y-20517333D01*
X8975143Y-20507810D01*
X8946571Y-20507810D01*
X8927524Y-20498286D01*
X8918000Y-20479238D01*
X8918000Y-20469714D01*
X8927524Y-20450667D01*
X8946571Y-20441143D01*
X8975143Y-20441143D01*
X8994190Y-20450667D01*
X9070381Y-20650667D02*
X9079905Y-20641143D01*
X9098952Y-20612571D01*
X9108476Y-20593524D01*
X9118000Y-20564952D01*
X9127524Y-20517333D01*
X9127524Y-20479238D01*
X9118000Y-20431619D01*
X9108476Y-20403048D01*
X9098952Y-20384000D01*
X9079905Y-20355429D01*
X9070381Y-20345905D01*
D16*
X3998000Y-20693000D02*
X4108000Y-20803000D01*
X4108000Y-20693000D02*
X3998000Y-20803000D01*
X4091891Y-20786891D02*
X4091891Y-20709109D01*
X4014109Y-20709109D01*
X4014109Y-20786891D01*
X4091891Y-20786891D01*
D10*
X4470381Y-20838476D02*
X4356095Y-20838476D01*
X4413238Y-20838476D02*
X4413238Y-20638476D01*
X4394190Y-20667048D01*
X4375143Y-20686095D01*
X4356095Y-20695619D01*
X4556095Y-20819429D02*
X4565619Y-20828952D01*
X4556095Y-20838476D01*
X4546571Y-20828952D01*
X4556095Y-20819429D01*
X4556095Y-20838476D01*
X4756095Y-20838476D02*
X4641810Y-20838476D01*
X4698952Y-20838476D02*
X4698952Y-20638476D01*
X4679905Y-20667048D01*
X4660857Y-20686095D01*
X4641810Y-20695619D01*
X4879905Y-20638476D02*
X4898952Y-20638476D01*
X4918000Y-20648000D01*
X4927524Y-20657524D01*
X4937048Y-20676571D01*
X4946571Y-20714667D01*
X4946571Y-20762286D01*
X4937048Y-20800381D01*
X4927524Y-20819429D01*
X4918000Y-20828952D01*
X4898952Y-20838476D01*
X4879905Y-20838476D01*
X4860857Y-20828952D01*
X4851333Y-20819429D01*
X4841810Y-20800381D01*
X4832286Y-20762286D01*
X4832286Y-20714667D01*
X4841810Y-20676571D01*
X4851333Y-20657524D01*
X4860857Y-20648000D01*
X4879905Y-20638476D01*
X5070381Y-20638476D02*
X5089429Y-20638476D01*
X5108476Y-20648000D01*
X5118000Y-20657524D01*
X5127524Y-20676571D01*
X5137048Y-20714667D01*
X5137048Y-20762286D01*
X5127524Y-20800381D01*
X5118000Y-20819429D01*
X5108476Y-20828952D01*
X5089429Y-20838476D01*
X5070381Y-20838476D01*
X5051333Y-20828952D01*
X5041810Y-20819429D01*
X5032286Y-20800381D01*
X5022762Y-20762286D01*
X5022762Y-20714667D01*
X5032286Y-20676571D01*
X5041810Y-20657524D01*
X5051333Y-20648000D01*
X5070381Y-20638476D01*
X5222762Y-20838476D02*
X5222762Y-20705143D01*
X5222762Y-20724190D02*
X5232286Y-20714667D01*
X5251333Y-20705143D01*
X5279905Y-20705143D01*
X5298952Y-20714667D01*
X5308476Y-20733714D01*
X5308476Y-20838476D01*
X5308476Y-20733714D02*
X5318000Y-20714667D01*
X5337048Y-20705143D01*
X5365619Y-20705143D01*
X5384667Y-20714667D01*
X5394190Y-20733714D01*
X5394190Y-20838476D01*
X5489429Y-20838476D02*
X5489429Y-20705143D01*
X5489429Y-20724190D02*
X5498952Y-20714667D01*
X5518000Y-20705143D01*
X5546571Y-20705143D01*
X5565619Y-20714667D01*
X5575143Y-20733714D01*
X5575143Y-20838476D01*
X5575143Y-20733714D02*
X5584667Y-20714667D01*
X5603714Y-20705143D01*
X5632286Y-20705143D01*
X5651333Y-20714667D01*
X5660857Y-20733714D01*
X5660857Y-20838476D01*
X6051333Y-20628952D02*
X5879905Y-20886095D01*
X6308476Y-20638476D02*
X6327524Y-20638476D01*
X6346571Y-20648000D01*
X6356095Y-20657524D01*
X6365619Y-20676571D01*
X6375143Y-20714667D01*
X6375143Y-20762286D01*
X6365619Y-20800381D01*
X6356095Y-20819429D01*
X6346571Y-20828952D01*
X6327524Y-20838476D01*
X6308476Y-20838476D01*
X6289428Y-20828952D01*
X6279905Y-20819429D01*
X6270381Y-20800381D01*
X6260857Y-20762286D01*
X6260857Y-20714667D01*
X6270381Y-20676571D01*
X6279905Y-20657524D01*
X6289428Y-20648000D01*
X6308476Y-20638476D01*
X6460857Y-20819429D02*
X6470381Y-20828952D01*
X6460857Y-20838476D01*
X6451333Y-20828952D01*
X6460857Y-20819429D01*
X6460857Y-20838476D01*
X6594190Y-20638476D02*
X6613238Y-20638476D01*
X6632286Y-20648000D01*
X6641809Y-20657524D01*
X6651333Y-20676571D01*
X6660857Y-20714667D01*
X6660857Y-20762286D01*
X6651333Y-20800381D01*
X6641809Y-20819429D01*
X6632286Y-20828952D01*
X6613238Y-20838476D01*
X6594190Y-20838476D01*
X6575143Y-20828952D01*
X6565619Y-20819429D01*
X6556095Y-20800381D01*
X6546571Y-20762286D01*
X6546571Y-20714667D01*
X6556095Y-20676571D01*
X6565619Y-20657524D01*
X6575143Y-20648000D01*
X6594190Y-20638476D01*
X6832286Y-20705143D02*
X6832286Y-20838476D01*
X6784667Y-20628952D02*
X6737048Y-20771810D01*
X6860857Y-20771810D01*
X6918000Y-20638476D02*
X7041809Y-20638476D01*
X6975143Y-20714667D01*
X7003714Y-20714667D01*
X7022762Y-20724190D01*
X7032286Y-20733714D01*
X7041809Y-20752762D01*
X7041809Y-20800381D01*
X7032286Y-20819429D01*
X7022762Y-20828952D01*
X7003714Y-20838476D01*
X6946571Y-20838476D01*
X6927524Y-20828952D01*
X6918000Y-20819429D01*
X7108476Y-20638476D02*
X7232286Y-20638476D01*
X7165619Y-20714667D01*
X7194190Y-20714667D01*
X7213238Y-20724190D01*
X7222762Y-20733714D01*
X7232286Y-20752762D01*
X7232286Y-20800381D01*
X7222762Y-20819429D01*
X7213238Y-20828952D01*
X7194190Y-20838476D01*
X7137048Y-20838476D01*
X7118000Y-20828952D01*
X7108476Y-20819429D01*
X7308476Y-20638476D02*
X7308476Y-20676571D01*
X7384667Y-20638476D02*
X7384667Y-20676571D01*
X7679905Y-20914667D02*
X7670381Y-20905143D01*
X7651333Y-20876571D01*
X7641809Y-20857524D01*
X7632286Y-20828952D01*
X7622762Y-20781333D01*
X7622762Y-20743238D01*
X7632286Y-20695619D01*
X7641809Y-20667048D01*
X7651333Y-20648000D01*
X7670381Y-20619429D01*
X7679905Y-20609905D01*
X7841809Y-20705143D02*
X7841809Y-20838476D01*
X7794190Y-20628952D02*
X7746571Y-20771810D01*
X7870381Y-20771810D01*
X8098952Y-20838476D02*
X8098952Y-20638476D01*
X8184667Y-20838476D02*
X8184667Y-20733714D01*
X8175143Y-20714667D01*
X8156095Y-20705143D01*
X8127524Y-20705143D01*
X8108476Y-20714667D01*
X8098952Y-20724190D01*
X8308476Y-20838476D02*
X8289428Y-20828952D01*
X8279905Y-20819429D01*
X8270381Y-20800381D01*
X8270381Y-20743238D01*
X8279905Y-20724190D01*
X8289428Y-20714667D01*
X8308476Y-20705143D01*
X8337048Y-20705143D01*
X8356095Y-20714667D01*
X8365619Y-20724190D01*
X8375143Y-20743238D01*
X8375143Y-20800381D01*
X8365619Y-20819429D01*
X8356095Y-20828952D01*
X8337048Y-20838476D01*
X8308476Y-20838476D01*
X8489429Y-20838476D02*
X8470381Y-20828952D01*
X8460857Y-20809905D01*
X8460857Y-20638476D01*
X8641810Y-20828952D02*
X8622762Y-20838476D01*
X8584667Y-20838476D01*
X8565619Y-20828952D01*
X8556095Y-20809905D01*
X8556095Y-20733714D01*
X8565619Y-20714667D01*
X8584667Y-20705143D01*
X8622762Y-20705143D01*
X8641810Y-20714667D01*
X8651333Y-20733714D01*
X8651333Y-20752762D01*
X8556095Y-20771810D01*
X8727524Y-20828952D02*
X8746571Y-20838476D01*
X8784667Y-20838476D01*
X8803714Y-20828952D01*
X8813238Y-20809905D01*
X8813238Y-20800381D01*
X8803714Y-20781333D01*
X8784667Y-20771810D01*
X8756095Y-20771810D01*
X8737048Y-20762286D01*
X8727524Y-20743238D01*
X8727524Y-20733714D01*
X8737048Y-20714667D01*
X8756095Y-20705143D01*
X8784667Y-20705143D01*
X8803714Y-20714667D01*
X8879905Y-20914667D02*
X8889429Y-20905143D01*
X8908476Y-20876571D01*
X8918000Y-20857524D01*
X8927524Y-20828952D01*
X8937048Y-20781333D01*
X8937048Y-20743238D01*
X8927524Y-20695619D01*
X8918000Y-20667048D01*
X8908476Y-20648000D01*
X8889429Y-20619429D01*
X8879905Y-20609905D01*
M02*
